<svg width="157" height="44" viewBox="0 0 157 44" fill="none" xmlns="http://www.w3.org/2000/svg">
<rect width="157" height="44" fill="#2C8B2F"/>
<rect width="12.0769" height="11" fill="#287E2B"/>
<rect x="108.692" width="12.0769" height="11" fill="#3F9542"/>
<rect x="12.0767" y="22" width="12.0769" height="11" fill="#268329"/>
<rect x="24.1538" y="22" width="12.0769" height="11" fill="#268329"/>
<rect x="120.769" y="11" width="12.0769" height="11" fill="#268329"/>
<rect x="108.692" y="22" width="12.0769" height="11" fill="#268329"/>
<rect y="22" width="12.0769" height="11" fill="#287E2B"/>
<rect y="33" width="12.0769" height="11" fill="#287E2B"/>
<rect x="12.0767" width="12.0769" height="11" fill="#3F9542"/>
<rect x="120.769" width="12.0769" height="11" fill="#3F9542"/>
<rect y="11" width="12.0769" height="11" fill="#3F9542"/>
<rect x="96.6157" y="33" width="12.0769" height="11" fill="#3F9542"/>
<rect x="144.923" width="12.0769" height="11" fill="#3F9542"/>
<rect x="24.1538" width="12.0769" height="11" fill="#287E2B"/>
<rect x="132.846" width="12.0769" height="11" fill="#287E2B"/>
<rect x="36.231" width="12.0769" height="11" fill="#287E2B"/>
<rect x="48.3076" width="12.0769" height="11" fill="#287E2B"/>
<rect x="36.231" y="33" width="12.0769" height="11" fill="#268329"/>
<rect x="144.923" y="11" width="12.0769" height="11" fill="#268329"/>
<rect x="144.923" y="22" width="12.0769" height="11" fill="#268329"/>
<rect x="72.4614" width="12.0769" height="11" fill="#268329"/>
<rect x="48.3076" y="33" width="12.0769" height="11" fill="#268329"/>
<rect x="84.5386" width="12.0769" height="11" fill="#268329"/>
<rect x="60.3843" y="33" width="12.0769" height="11" fill="#268329"/>
<rect x="96.6157" width="12.0769" height="11" fill="#268329"/>
<rect x="36.231" y="11" width="12.0769" height="11" fill="#287E2B"/>
<rect x="60.3843" y="11" width="12.0769" height="11" fill="#287E2B"/>
</svg>
