<svg width="289" height="60" viewBox="0 0 289 60" fill="none" xmlns="http://www.w3.org/2000/svg">
<mask id="path-1-inside-1_854_23998" fill="white">
<path fill-rule="evenodd" clip-rule="evenodd" d="M10.0889 1.97708C10.3794 0.911384 11.2477 0 12.3522 0H276.648C277.752 0 278.621 0.911384 278.911 1.97708C279.779 5.15996 282.69 7.5 286.148 7.5H287C288.105 7.5 289 8.39543 289 9.5V50.5C289 51.6046 288.105 52.5 287 52.5H286.148C282.69 52.5 279.779 54.84 278.911 58.0229C278.621 59.0886 277.752 60 276.648 60H12.3522C11.2477 60 10.3794 59.0886 10.0889 58.0229C9.22137 54.84 6.31007 52.5 2.85224 52.5H2C0.895431 52.5 0 51.6046 0 50.5V9.5C0 8.39543 0.895432 7.5 2 7.5H2.85224C6.31007 7.5 9.22137 5.15996 10.0889 1.97708Z"/>
</mask>
<path fill-rule="evenodd" clip-rule="evenodd" d="M10.0889 1.97708C10.3794 0.911384 11.2477 0 12.3522 0H276.648C277.752 0 278.621 0.911384 278.911 1.97708C279.779 5.15996 282.69 7.5 286.148 7.5H287C288.105 7.5 289 8.39543 289 9.5V50.5C289 51.6046 288.105 52.5 287 52.5H286.148C282.69 52.5 279.779 54.84 278.911 58.0229C278.621 59.0886 277.752 60 276.648 60H12.3522C11.2477 60 10.3794 59.0886 10.0889 58.0229C9.22137 54.84 6.31007 52.5 2.85224 52.5H2C0.895431 52.5 0 51.6046 0 50.5V9.5C0 8.39543 0.895432 7.5 2 7.5H2.85224C6.31007 7.5 9.22137 5.15996 10.0889 1.97708Z" fill="#FFF2F7"/>
<path d="M10.0889 58.0229L10.5713 57.8914L10.0889 58.0229ZM278.911 58.0229L279.393 58.1544L278.911 58.0229ZM10.0889 1.97708L9.60651 1.84559L10.0889 1.97708ZM278.911 1.97708L279.393 1.84559L278.911 1.97708ZM286.148 7C285.76 7 285.38 6.96856 285.011 6.90819L284.85 7.89513C285.272 7.96416 285.706 8 286.148 8V7ZM282.859 6.18103C282.184 5.82093 281.574 5.35321 281.053 4.80066L280.326 5.48661C280.92 6.11745 281.617 6.65177 282.389 7.06342L282.859 6.18103ZM279.782 2.91659C279.625 2.57357 279.494 2.21568 279.393 1.84559L278.429 2.10856C278.544 2.53199 278.693 2.94143 278.873 3.33374L279.782 2.91659ZM279.393 1.84559C279.311 1.54336 279.189 1.25182 279.032 0.983078L278.168 1.4875C278.281 1.68021 278.369 1.89054 278.429 2.10856L279.393 1.84559ZM277.629 -0.298294C277.327 -0.427174 276.997 -0.5 276.648 -0.5V0.5C276.856 0.5 277.052 0.542972 277.236 0.621441L277.629 -0.298294ZM276.648 -0.5H275.146V0.5H276.648V-0.5ZM272.143 -0.5H269.139V0.5H272.143V-0.5ZM266.136 -0.5H263.133V0.5H266.136V-0.5ZM260.129 -0.5H257.126V0.5H260.129V-0.5ZM254.123 -0.5H251.119V0.5H254.123V-0.5ZM248.116 -0.5H245.113V0.5H248.116V-0.5ZM242.109 -0.5H239.106V0.5H242.109V-0.5ZM236.102 -0.5H233.099V0.5H236.102V-0.5ZM230.096 -0.5H227.092V0.5H230.096V-0.5ZM224.089 -0.5H221.086V0.5H224.089V-0.5ZM218.082 -0.5H215.079V0.5H218.082V-0.5ZM212.076 -0.5H209.072V0.5H212.076V-0.5ZM206.069 -0.5H203.065V0.5H206.069V-0.5ZM200.062 -0.5H197.059V0.5H200.062V-0.5ZM194.055 -0.5H191.052V0.5H194.055V-0.5ZM188.049 -0.5H185.045V0.5H188.049V-0.5ZM182.042 -0.5H179.039V0.5H182.042V-0.5ZM176.035 -0.5H173.032V0.5H176.035V-0.5ZM170.029 -0.5H167.025V0.5H170.029V-0.5ZM164.022 -0.5H161.019V0.5H164.022V-0.5ZM158.015 -0.5H155.012V0.5H158.015V-0.5ZM152.008 -0.5H149.005V0.5H152.008V-0.5ZM146.002 -0.5H142.998V0.5H146.002V-0.5ZM139.995 -0.5H136.992V0.5H139.995V-0.5ZM133.988 -0.5H130.985V0.5H133.988V-0.5ZM127.982 -0.5H124.978V0.5H127.982V-0.5ZM121.975 -0.5H118.971V0.5H121.975V-0.5ZM115.968 -0.5H112.965V0.5H115.968V-0.5ZM109.961 -0.5H106.958V0.5H109.961V-0.5ZM103.955 -0.5H100.951V0.5H103.955V-0.5ZM97.948 -0.5H94.9446V0.5H97.948V-0.5ZM91.9413 -0.5H88.9379V0.5H91.9413V-0.5ZM85.9346 -0.5H82.9312V0.5H85.9346V-0.5ZM79.9279 -0.5H76.9245V0.5H79.9279V-0.5ZM73.9212 -0.5H70.9178V0.5H73.9212V-0.5ZM67.9144 -0.5H64.9111V0.5H67.9144V-0.5ZM61.9077 -0.5H58.9044V0.5H61.9077V-0.5ZM55.901 -0.5H52.8976V0.5H55.901V-0.5ZM49.8943 -0.5H46.8909V0.5H49.8943V-0.5ZM43.8876 -0.5H40.8842V0.5H43.8876V-0.5ZM37.8809 -0.5H34.8775V0.5H37.8809V-0.5ZM31.8741 -0.5H28.8708V0.5H31.8741V-0.5ZM25.8674 -0.5H22.8641V0.5H25.8674V-0.5ZM19.8607 -0.5H16.8574V0.5H19.8607V-0.5ZM13.854 -0.5H12.3522V0.5H13.854V-0.5ZM12.3522 -0.5C12.0032 -0.5 11.6732 -0.427174 11.3713 -0.298294L11.7638 0.621441C11.9476 0.542972 12.1445 0.5 12.3522 0.5V-0.5ZM9.9682 0.983078C9.8112 1.25182 9.68888 1.54336 9.60651 1.84559L10.5713 2.10856C10.6307 1.89054 10.7191 1.68021 10.8317 1.4875L9.9682 0.983078ZM9.60651 1.84559C9.50564 2.21568 9.37514 2.57357 9.21769 2.91659L10.1265 3.33374C10.3066 2.94143 10.4559 2.53199 10.5713 2.10856L9.60651 1.84559ZM7.94674 4.80066C7.42585 5.35321 6.81625 5.82093 6.14095 6.18103L6.61148 7.06341C7.38344 6.65177 8.0797 6.11745 8.67439 5.48661L7.94674 4.80066ZM3.9893 6.90819C3.61954 6.96856 3.23974 7 2.85224 7V8C3.29392 8 3.7276 7.96416 4.15043 7.89513L3.9893 6.90819ZM2.85224 7H2.63918V8H2.85224V7ZM2.21306 7H2V8H2.21306V7ZM2 7C1.66194 7 1.33836 7.06737 1.0429 7.1899L1.42595 8.11362C1.60212 8.04057 1.79569 8 2 8V7ZM-0.310102 8.5429C-0.432625 8.83836 -0.5 9.16194 -0.5 9.5H0.5C0.5 9.29569 0.54057 9.10212 0.613624 8.92595L-0.310102 8.5429ZM-0.5 9.5V10.9643H0.5V9.5H-0.5ZM-0.5 13.8929V16.8214H0.5V13.8929H-0.5ZM-0.5 19.75V22.6786H0.5V19.75H-0.5ZM-0.5 25.6071V28.5357H0.5V25.6071H-0.5ZM-0.5 31.4643V34.3929H0.5V31.4643H-0.5ZM-0.5 37.3214V40.25H0.5V37.3214H-0.5ZM-0.5 43.1786V46.1071H0.5V43.1786H-0.5ZM-0.5 49.0357V50.5H0.5V49.0357H-0.5ZM-0.5 50.5C-0.5 50.8381 -0.432626 51.1616 -0.310102 51.4571L0.613624 51.074C0.54057 50.8979 0.5 50.7043 0.5 50.5H-0.5ZM1.0429 52.8101C1.33836 52.9326 1.66194 53 2 53V52C1.79569 52 1.60212 51.9594 1.42595 51.8864L1.0429 52.8101ZM2 53H2.21306V52H2V53ZM2.63918 53H2.85224V52H2.63918V53ZM2.85224 53C3.23974 53 3.61954 53.0314 3.9893 53.0918L4.15043 52.1049C3.7276 52.0358 3.29392 52 2.85224 52V53ZM6.14095 53.819C6.81625 54.1791 7.42585 54.6468 7.94674 55.1993L8.67439 54.5134C8.0797 53.8825 7.38344 53.3482 6.61148 52.9366L6.14095 53.819ZM9.21769 57.0834C9.37513 57.4264 9.50564 57.7843 9.60651 58.1544L10.5713 57.8914C10.4559 57.468 10.3066 57.0586 10.1265 56.6663L9.21769 57.0834ZM9.60651 58.1544C9.68888 58.4566 9.8112 58.7482 9.9682 59.0169L10.8317 58.5125C10.7191 58.3198 10.6307 58.1095 10.5713 57.8914L9.60651 58.1544ZM11.3713 60.2983C11.6732 60.4272 12.0032 60.5 12.3522 60.5V59.5C12.1445 59.5 11.9477 59.457 11.7638 59.3786L11.3713 60.2983ZM12.3522 60.5H13.8539V59.5H12.3522V60.5ZM16.8573 60.5H19.8606V59.5H16.8573V60.5ZM22.864 60.5H25.8674V59.5H22.864V60.5ZM28.8707 60.5H31.8741V59.5H28.8707V60.5ZM34.8774 60.5H37.8808V59.5H34.8774V60.5ZM40.8841 60.5H43.8875V59.5H40.8841V60.5ZM46.8909 60.5H49.8942V59.5H46.8909V60.5ZM52.8976 60.5H55.9009V59.5H52.8976V60.5ZM58.9043 60.5H61.9076V59.5H58.9043V60.5ZM64.911 60.5H67.9144V59.5H64.911V60.5ZM70.9177 60.5H73.9211V59.5H70.9177V60.5ZM76.9244 60.5H79.9278V59.5H76.9244V60.5ZM82.9311 60.5H85.9345V59.5H82.9311V60.5ZM88.9379 60.5H91.9412V59.5H88.9379V60.5ZM94.9446 60.5H97.9479V59.5H94.9446V60.5ZM100.951 60.5H103.955V59.5H100.951V60.5ZM106.958 60.5H109.961V59.5H106.958V60.5ZM112.965 60.5H115.968V59.5H112.965V60.5ZM118.971 60.5H121.975V59.5H118.971V60.5ZM124.978 60.5H127.981V59.5H124.978V60.5ZM130.985 60.5H133.988V59.5H130.985V60.5ZM136.992 60.5H139.995V59.5H136.992V60.5ZM142.998 60.5H146.002V59.5H142.998V60.5ZM149.005 60.5H152.008V59.5H149.005V60.5ZM155.012 60.5H158.015V59.5H155.012V60.5ZM161.018 60.5H164.022V59.5H161.018V60.5ZM167.025 60.5H170.029V59.5H167.025V60.5ZM173.032 60.5H176.035V59.5H173.032V60.5ZM179.039 60.5H182.042V59.5H179.039V60.5ZM185.045 60.5H188.049V59.5H185.045V60.5ZM191.052 60.5H194.055V59.5H191.052V60.5ZM197.059 60.5H200.062V59.5H197.059V60.5ZM203.065 60.5H206.069V59.5H203.065V60.5ZM209.072 60.5H212.076V59.5H209.072V60.5ZM215.079 60.5H218.082V59.5H215.079V60.5ZM221.086 60.5H224.089V59.5H221.086V60.5ZM227.092 60.5H230.096V59.5H227.092V60.5ZM233.099 60.5H236.102V59.5H233.099V60.5ZM239.106 60.5H242.109V59.5H239.106V60.5ZM245.112 60.5H248.116V59.5H245.112V60.5ZM251.119 60.5H254.122V59.5H251.119V60.5ZM257.126 60.5H260.129V59.5H257.126V60.5ZM263.133 60.5H266.136V59.5H263.133V60.5ZM269.139 60.5H272.143V59.5H269.139V60.5ZM275.146 60.5H276.648V59.5H275.146V60.5ZM276.648 60.5C276.997 60.5 277.327 60.4272 277.629 60.2983L277.236 59.3786C277.052 59.457 276.856 59.5 276.648 59.5V60.5ZM279.032 59.0169C279.189 58.7482 279.311 58.4566 279.393 58.1544L278.429 57.8914C278.369 58.1095 278.281 58.3198 278.168 58.5125L279.032 59.0169ZM279.393 58.1544C279.494 57.7843 279.625 57.4264 279.782 57.0834L278.873 56.6663C278.693 57.0586 278.544 57.468 278.429 57.8914L279.393 58.1544ZM281.053 55.1993C281.574 54.6468 282.184 54.1791 282.859 53.819L282.389 52.9366C281.617 53.3482 280.92 53.8825 280.326 54.5134L281.053 55.1993ZM285.011 53.0918C285.38 53.0314 285.76 53 286.148 53V52C285.706 52 285.272 52.0358 284.85 52.1049L285.011 53.0918ZM286.148 53H286.361V52H286.148V53ZM286.787 53H287V52H286.787V53ZM287 53C287.338 53 287.662 52.9326 287.957 52.8101L287.574 51.8864C287.398 51.9594 287.204 52 287 52V53ZM289.31 51.4571C289.433 51.1616 289.5 50.8381 289.5 50.5H288.5C288.5 50.7043 288.459 50.8979 288.386 51.074L289.31 51.4571ZM289.5 50.5V49.0357H288.5V50.5H289.5ZM289.5 46.1071V43.1786H288.5V46.1071H289.5ZM289.5 40.25V37.3214H288.5V40.25H289.5ZM289.5 34.3929V31.4643H288.5V34.3929H289.5ZM289.5 28.5357V25.6071H288.5V28.5357H289.5ZM289.5 22.6786V19.75H288.5V22.6786H289.5ZM289.5 16.8214V13.8929H288.5V16.8214H289.5ZM289.5 10.9643V9.5H288.5V10.9643H289.5ZM289.5 9.5C289.5 9.16194 289.433 8.83836 289.31 8.5429L288.386 8.92595C288.459 9.10212 288.5 9.29569 288.5 9.5H289.5ZM287.957 7.1899C287.662 7.06737 287.338 7 287 7V8C287.204 8 287.398 8.04057 287.574 8.11362L287.957 7.1899ZM287 7H286.787V8H287V7ZM286.361 7H286.148V8H286.361V7ZM10.0889 58.0229L11.0537 57.76L10.0889 58.0229ZM278.911 58.0229L279.876 58.2859L278.911 58.0229ZM10.0889 1.97708L9.12411 1.7141L10.0889 1.97708ZM278.911 1.97708L279.876 1.71411L278.911 1.97708ZM286.148 6.5C285.787 6.5 285.435 6.47076 285.091 6.41473L284.769 8.38859C285.218 8.46196 285.679 8.5 286.148 8.5V6.5ZM283.094 5.73984C282.467 5.40551 281.901 4.97109 281.417 4.45769L279.962 5.82959C280.593 6.49957 281.333 7.06719 282.153 7.50461L283.094 5.73984ZM280.237 2.70802C280.091 2.38965 279.97 2.05752 279.876 1.71411L277.946 2.24005C278.069 2.69015 278.228 3.12536 278.419 3.54232L280.237 2.70802ZM279.876 1.71411C279.782 1.36978 279.643 1.03762 279.464 0.730868L277.737 1.73971C277.827 1.89441 277.898 2.06412 277.946 2.24005L279.876 1.71411ZM277.825 -0.758162C277.464 -0.912247 277.067 -1 276.648 -1V1C276.785 1 276.915 1.02804 277.04 1.08131L277.825 -0.758162ZM276.648 -1H275.146V1H276.648V-1ZM272.143 -1H269.139V1H272.143V-1ZM266.136 -1H263.133V1H266.136V-1ZM260.129 -1H257.126V1H260.129V-1ZM254.123 -1H251.119V1H254.123V-1ZM248.116 -1H245.113V1H248.116V-1ZM242.109 -1H239.106V1H242.109V-1ZM236.102 -1H233.099V1H236.102V-1ZM230.096 -1H227.092V1H230.096V-1ZM224.089 -1H221.086V1H224.089V-1ZM218.082 -1H215.079V1H218.082V-1ZM212.076 -1H209.072V1H212.076V-1ZM206.069 -1H203.065V1H206.069V-1ZM200.062 -1H197.059V1H200.062V-1ZM194.055 -1H191.052V1H194.055V-1ZM188.049 -1H185.045V1H188.049V-1ZM182.042 -1H179.039V1H182.042V-1ZM176.035 -1H173.032V1H176.035V-1ZM170.029 -1H167.025V1H170.029V-1ZM164.022 -1H161.019V1H164.022V-1ZM158.015 -1H155.012V1H158.015V-1ZM152.008 -1H149.005V1H152.008V-1ZM146.002 -1H142.998V1H146.002V-1ZM139.995 -1H136.992V1H139.995V-1ZM133.988 -1H130.985V1H133.988V-1ZM127.982 -1H124.978V1H127.982V-1ZM121.975 -1H118.971V1H121.975V-1ZM115.968 -1H112.965V1H115.968V-1ZM109.961 -1H106.958V1H109.961V-1ZM103.955 -1H100.951V1H103.955V-1ZM97.948 -1H94.9446V1H97.948V-1ZM91.9413 -1H88.9379V1H91.9413V-1ZM85.9346 -1H82.9312V1H85.9346V-1ZM79.9279 -1H76.9245V1H79.9279V-1ZM73.9212 -1H70.9178V1H73.9212V-1ZM67.9144 -1H64.9111V1H67.9144V-1ZM61.9077 -1H58.9044V1H61.9077V-1ZM55.901 -1H52.8976V1H55.901V-1ZM49.8943 -1H46.8909V1H49.8943V-1ZM43.8876 -1H40.8842V1H43.8876V-1ZM37.8809 -1H34.8775V1H37.8809V-1ZM31.8741 -1H28.8708V1H31.8741V-1ZM25.8674 -1H22.8641V1H25.8674V-1ZM19.8607 -1H16.8574V1H19.8607V-1ZM13.854 -1H12.3522V1H13.854V-1ZM12.3522 -1C11.9326 -1 11.536 -0.912247 11.175 -0.758162L11.9601 1.08131C12.0849 1.02804 12.2151 1 12.3522 1V-1ZM9.53647 0.730869C9.35727 1.03762 9.21796 1.36978 9.12411 1.7141L11.0537 2.24005C11.1017 2.06412 11.173 1.89441 11.2634 1.73971L9.53647 0.730869ZM9.12411 1.7141C9.0305 2.05752 8.9094 2.38964 8.76327 2.70801L10.5809 3.54232C10.7723 3.12536 10.931 2.69015 11.0537 2.24005L9.12411 1.7141ZM7.58292 4.45768C7.09893 4.97109 6.53265 5.40551 5.90568 5.73984L6.84675 7.5046C7.66703 7.06718 8.40662 6.49957 9.03821 5.82959L7.58292 4.45768ZM3.90874 6.41473C3.5655 6.47076 3.21265 6.5 2.85224 6.5V8.5C3.32101 8.5 3.78163 8.46196 4.23099 8.38859L3.90874 6.41473ZM2.85224 6.5H2.63918V8.5H2.85224V6.5ZM2.21306 6.5H2V8.5H2.21306V6.5ZM2 6.5C1.59507 6.5 1.20648 6.58078 0.851371 6.72803L1.61748 8.57549C1.734 8.52717 1.86257 8.5 2 8.5V6.5ZM-0.771965 8.35137C-0.919223 8.70648 -1 9.09507 -1 9.5H1C1 9.36257 1.02717 9.234 1.07549 9.11748L-0.771965 8.35137ZM-1 9.5V10.9643H1V9.5H-1ZM-1 13.8929V16.8214H1V13.8929H-1ZM-1 19.75V22.6786H1V19.75H-1ZM-1 25.6071V28.5357H1V25.6071H-1ZM-1 31.4643V34.3929H1V31.4643H-1ZM-1 37.3214V40.25H1V37.3214H-1ZM-1 43.1786V46.1071H1V43.1786H-1ZM-1 49.0357V50.5H1V49.0357H-1ZM-1 50.5C-1 50.9049 -0.919223 51.2935 -0.771965 51.6486L1.07549 50.8825C1.02717 50.766 1 50.6374 1 50.5H-1ZM0.851371 53.272C1.20648 53.4192 1.59507 53.5 2 53.5V51.5C1.86257 51.5 1.734 51.4728 1.61748 51.4245L0.851371 53.272ZM2 53.5H2.21306V51.5H2V53.5ZM2.63918 53.5H2.85224V51.5H2.63918V53.5ZM2.85224 53.5C3.21265 53.5 3.5655 53.5292 3.90874 53.5853L4.23099 51.6114C3.78163 51.538 3.32101 51.5 2.85224 51.5V53.5ZM5.90568 54.2602C6.53265 54.5945 7.09893 55.0289 7.58292 55.5423L9.03821 54.1704C8.40662 53.5004 7.66703 52.9328 6.84675 52.4954L5.90568 54.2602ZM8.76327 57.292C8.9094 57.6104 9.0305 57.9425 9.12411 58.2859L11.0537 57.76C10.931 57.3098 10.7723 56.8746 10.5809 56.4577L8.76327 57.292ZM9.12411 58.2859C9.21796 58.6302 9.35727 58.9624 9.53647 59.2691L11.2634 58.2603C11.173 58.1056 11.1017 57.9359 11.0537 57.76L9.12411 58.2859ZM11.175 60.7582C11.536 60.9122 11.9326 61 12.3522 61V59C12.2151 59 12.0849 58.972 11.9601 58.9187L11.175 60.7582ZM12.3522 61H13.8539V59H12.3522V61ZM16.8573 61H19.8606V59H16.8573V61ZM22.864 61H25.8674V59H22.864V61ZM28.8707 61H31.8741V59H28.8707V61ZM34.8774 61H37.8808V59H34.8774V61ZM40.8841 61H43.8875V59H40.8841V61ZM46.8909 61H49.8942V59H46.8909V61ZM52.8976 61H55.9009V59H52.8976V61ZM58.9043 61H61.9076V59H58.9043V61ZM64.911 61H67.9144V59H64.911V61ZM70.9177 61H73.9211V59H70.9177V61ZM76.9244 61H79.9278V59H76.9244V61ZM82.9311 61H85.9345V59H82.9311V61ZM88.9379 61H91.9412V59H88.9379V61ZM94.9446 61H97.9479V59H94.9446V61ZM100.951 61H103.955V59H100.951V61ZM106.958 61H109.961V59H106.958V61ZM112.965 61H115.968V59H112.965V61ZM118.971 61H121.975V59H118.971V61ZM124.978 61H127.981V59H124.978V61ZM130.985 61H133.988V59H130.985V61ZM136.992 61H139.995V59H136.992V61ZM142.998 61H146.002V59H142.998V61ZM149.005 61H152.008V59H149.005V61ZM155.012 61H158.015V59H155.012V61ZM161.018 61H164.022V59H161.018V61ZM167.025 61H170.029V59H167.025V61ZM173.032 61H176.035V59H173.032V61ZM179.039 61H182.042V59H179.039V61ZM185.045 61H188.049V59H185.045V61ZM191.052 61H194.055V59H191.052V61ZM197.059 61H200.062V59H197.059V61ZM203.065 61H206.069V59H203.065V61ZM209.072 61H212.076V59H209.072V61ZM215.079 61H218.082V59H215.079V61ZM221.086 61H224.089V59H221.086V61ZM227.092 61H230.096V59H227.092V61ZM233.099 61H236.102V59H233.099V61ZM239.106 61H242.109V59H239.106V61ZM245.112 61H248.116V59H245.112V61ZM251.119 61H254.122V59H251.119V61ZM257.126 61H260.129V59H257.126V61ZM263.133 61H266.136V59H263.133V61ZM269.139 61H272.143V59H269.139V61ZM275.146 61H276.648V59H275.146V61ZM276.648 61C277.067 61 277.464 60.9122 277.825 60.7582L277.04 58.9187C276.915 58.972 276.785 59 276.648 59V61ZM279.464 59.2691C279.643 58.9624 279.782 58.6302 279.876 58.2859L277.946 57.76C277.898 57.9359 277.827 58.1056 277.737 58.2603L279.464 59.2691ZM279.876 58.2859C279.97 57.9425 280.091 57.6104 280.237 57.292L278.419 56.4577C278.228 56.8746 278.069 57.3098 277.946 57.76L279.876 58.2859ZM281.417 55.5423C281.901 55.0289 282.467 54.5945 283.094 54.2602L282.153 52.4954C281.333 52.9328 280.593 53.5004 279.962 54.1704L281.417 55.5423ZM285.091 53.5853C285.435 53.5292 285.787 53.5 286.148 53.5V51.5C285.679 51.5 285.218 51.538 284.769 51.6114L285.091 53.5853ZM286.148 53.5H286.361V51.5H286.148V53.5ZM286.787 53.5H287V51.5H286.787V53.5ZM287 53.5C287.405 53.5 287.794 53.4192 288.149 53.272L287.383 51.4245C287.266 51.4728 287.137 51.5 287 51.5V53.5ZM289.772 51.6486C289.919 51.2935 290 50.9049 290 50.5H288C288 50.6374 287.973 50.766 287.924 50.8825L289.772 51.6486ZM290 50.5V49.0357H288V50.5H290ZM290 46.1071V43.1786H288V46.1071H290ZM290 40.25V37.3214H288V40.25H290ZM290 34.3929V31.4643H288V34.3929H290ZM290 28.5357V25.6071H288V28.5357H290ZM290 22.6786V19.75H288V22.6786H290ZM290 16.8214V13.8929H288V16.8214H290ZM290 10.9643V9.5H288V10.9643H290ZM290 9.5C290 9.09507 289.919 8.70648 289.772 8.35137L287.924 9.11748C287.973 9.234 288 9.36257 288 9.5H290ZM288.149 6.72803C287.794 6.58078 287.405 6.5 287 6.5V8.5C287.137 8.5 287.266 8.52717 287.383 8.57549L288.149 6.72803ZM287 6.5H286.787V8.5H287V6.5ZM286.361 6.5H286.148V8.5H286.361V6.5Z" fill="#FFCBDE" mask="url(#path-1-inside-1_854_23998)"/>
</svg>
