<svg width="18" height="18" viewBox="0 0 18 18" fill="none" xmlns="http://www.w3.org/2000/svg">
<path d="M15.959 2.60335C15.959 3.22476 15.4553 3.72835 14.834 3.72835C14.2126 3.72835 13.709 3.22476 13.709 2.60335C13.709 1.98207 14.2126 1.47835 14.834 1.47835C15.4553 1.47835 15.959 1.98207 15.959 2.60335Z" fill="white"/>
<path d="M4.29102 15.3967C4.29102 16.0179 3.78743 16.5217 3.16602 16.5217C2.54474 16.5217 2.04102 16.0179 2.04102 15.3967C2.04102 14.7752 2.54474 14.2717 3.16602 14.2717C3.78743 14.2717 4.29102 14.7752 4.29102 15.3967Z" fill="white"/>
<path d="M14.0921 7.89766C13.9581 7.27432 13.7128 6.69232 13.3777 6.17377L14.0513 5.50003L12.4963 3.94629L11.8233 4.61934C11.3047 4.28426 10.7227 4.03899 10.0994 3.90495V2.95312H7.90115V3.90495C7.27768 4.03899 6.69568 4.28426 6.17712 4.61934L5.50407 3.94629L3.9491 5.50003L4.6227 6.17377C4.28761 6.69232 4.04234 7.27432 3.90831 7.89766H2.95387L2.95264 10.0959H3.90831C4.04221 10.7194 4.28748 11.3014 4.6227 11.8199L3.94649 12.4961L5.50037 14.0511L6.17712 13.3743C6.69568 13.7096 7.27768 13.9548 7.90115 14.0887V15.0469H10.0994V14.0887C10.7227 13.9548 11.3047 13.7096 11.8234 13.3743L12.5002 14.0511L14.0539 12.4961L13.3777 11.8199C13.7129 11.3014 13.9582 10.7194 14.0921 10.0959H15.0478V7.89766H14.0921ZM9.0002 11.5534C7.58997 11.5534 6.44684 10.4102 6.44684 9C6.44684 7.58977 7.58997 6.44664 9.0002 6.44664C10.4104 6.44664 11.5536 7.58977 11.5536 9C11.5536 10.4102 10.4104 11.5534 9.0002 11.5534Z" fill="#222222"/>
<path d="M3.16585 13.9201C2.91385 13.9201 2.6716 13.983 2.45668 14.1011C1.32454 12.6498 0.703125 10.8469 0.703125 9C0.703125 4.42502 4.42502 0.703125 9 0.703125C9.55618 0.703125 10.1121 0.758469 10.6523 0.867645C10.8424 0.906097 11.0281 0.783051 11.0665 0.592712C11.105 0.402374 10.9819 0.21698 10.7916 0.178391C10.2056 0.0600128 9.60287 0 9 0C6.59605 0 4.33589 0.936172 2.63603 2.63603C0.936172 4.33589 0 6.59605 0 9C0 11.0222 0.686646 12.9956 1.93675 14.5776C1.7758 14.8181 1.68929 15.1007 1.68929 15.3967C1.68929 15.7911 1.84296 16.1618 2.12187 16.4406C2.40065 16.7195 2.77144 16.8732 3.16585 16.8732C3.56026 16.8732 3.93105 16.7195 4.20996 16.4406C4.48888 16.1618 4.64241 15.7909 4.64241 15.3965C4.64241 15.0022 4.48888 14.6313 4.20996 14.3525C3.93105 14.0736 3.56026 13.9201 3.16585 13.9201ZM3.71269 15.9435C3.56671 16.0896 3.37239 16.1701 3.16585 16.1701C2.9593 16.1701 2.76512 16.0896 2.619 15.9435C2.47289 15.7974 2.39241 15.6032 2.39241 15.3967C2.39241 15.19 2.47289 14.9958 2.619 14.8497C2.76498 14.7036 2.9593 14.6232 3.16585 14.6232C3.37239 14.6232 3.56657 14.7037 3.71269 14.8497C3.85881 14.9958 3.93929 15.19 3.93929 15.3967C3.93929 15.6032 3.85881 15.7974 3.71269 15.9435Z" fill="#222222"/>
<path d="M16.0631 3.42197C16.4452 2.84862 16.3839 2.06474 15.8783 1.55923C15.5994 1.28046 15.2286 1.12679 14.8342 1.12679C14.4398 1.12679 14.069 1.28046 13.7901 1.55923C13.5112 1.83815 13.3577 2.20894 13.3577 2.60335C13.3577 2.99776 13.5112 3.36855 13.7901 3.64746C14.069 3.92638 14.4398 4.07991 14.8342 4.07991C15.0862 4.07991 15.3285 4.01701 15.5434 3.89891C16.6755 5.35034 17.297 7.15306 17.297 9C17.297 13.575 13.5751 17.2969 9.00008 17.2969C8.44939 17.2969 7.8987 17.2426 7.36353 17.1355C7.17319 17.0975 6.98793 17.2209 6.94975 17.4113C6.91171 17.6017 7.03517 17.7869 7.22551 17.825C7.806 17.9411 8.40311 18 9.00008 18C11.404 18 13.6642 17.0638 15.364 15.364C17.0639 13.6641 18.0001 11.4039 18.0001 9C18.0001 6.97769 17.3133 5.00413 16.0631 3.42197ZM14.2874 3.15033C14.1413 3.00421 14.0608 2.81003 14.0608 2.60335C14.0608 2.3968 14.1413 2.20262 14.2874 2.0565C14.4334 1.91039 14.6277 1.82991 14.8342 1.82991C15.0408 1.82991 15.2351 1.91039 15.3812 2.0565C15.6826 2.35808 15.6826 2.84875 15.3812 3.15033C15.2351 3.29631 15.0408 3.37679 14.8342 3.37679C14.6275 3.37679 14.4334 3.29631 14.2874 3.15033Z" fill="#222222"/>
<path d="M7.54932 15.0469C7.54932 15.2411 7.70683 15.3984 7.90088 15.3984H10.0991C10.2933 15.3984 10.4507 15.2411 10.4507 15.0469V14.3653C10.9129 14.2409 11.3548 14.0577 11.7701 13.8185L12.2513 14.2997C12.3172 14.3656 12.4066 14.4027 12.5 14.4027C12.5931 14.4027 12.6827 14.3656 12.7486 14.2995L14.3023 12.7447C14.4395 12.6074 14.4395 12.3848 14.3023 12.2476L13.8217 11.7669C14.0609 11.3516 14.2441 10.9097 14.3685 10.4474H15.0475C15.2417 10.4474 15.399 10.2901 15.399 10.0959V7.89766C15.399 7.70348 15.2417 7.5461 15.0475 7.5461H14.3684C14.244 7.08398 14.0609 6.64206 13.8217 6.22678L14.2997 5.74873C14.3656 5.68282 14.4027 5.59328 14.4027 5.50003C14.4026 5.40678 14.3655 5.31725 14.2996 5.25133L12.7446 3.69759C12.6074 3.56039 12.3848 3.56039 12.2475 3.69772L11.7701 4.17522C11.3548 3.93599 10.9129 3.75279 10.4507 3.62837V2.95312C10.4507 2.75894 10.2933 2.60156 10.0991 2.60156H7.90088C7.70683 2.60156 7.54932 2.75894 7.54932 2.95312V3.62851C7.0872 3.75279 6.64528 3.93599 6.23 4.17522L5.7525 3.69772C5.61531 3.56053 5.3927 3.56039 5.25537 3.69759L3.70053 5.25146C3.63448 5.31738 3.5974 5.40678 3.5974 5.50003C3.5974 5.59328 3.63448 5.68282 3.70039 5.74873L4.17844 6.22678C3.93921 6.64206 3.75601 7.08385 3.63159 7.5461H2.95387C2.75969 7.5461 2.60231 7.70348 2.60231 7.89752L2.60107 10.0957C2.60094 10.189 2.63802 10.2785 2.70393 10.3445C2.76985 10.4104 2.85925 10.4474 2.95264 10.4474H3.63159C3.75601 10.9097 3.93921 11.3516 4.17844 11.7669L3.69778 12.2476C3.56059 12.3848 3.56046 12.6074 3.69778 12.7447L5.25153 14.2995C5.31744 14.3654 5.40685 14.4027 5.50009 14.4027H5.50023C5.59348 14.4027 5.68288 14.3656 5.74879 14.2997L6.22986 13.8185C6.64528 14.0577 7.0872 14.2409 7.54932 14.3653V15.0469ZM6.36774 13.0791C6.22862 12.9891 6.04556 13.0086 5.92828 13.1258L5.50023 13.5538L4.44348 12.4963L4.87112 12.0685C4.98827 11.9513 5.00777 11.7683 4.91782 11.6292C4.59908 11.1359 4.37495 10.5952 4.25191 10.022C4.21703 9.86009 4.07393 9.74432 3.90817 9.74432H3.30434L3.30516 8.24922H3.90817C4.07393 8.24922 4.21703 8.13359 4.25191 7.97154C4.37495 7.39847 4.59908 6.8578 4.91782 6.36452C5.00777 6.2254 4.98827 6.04234 4.87112 5.9252L4.44623 5.50017L5.5038 4.44342L5.92828 4.86804C6.04556 4.98518 6.22849 5.00455 6.36774 4.91473C6.86089 4.59599 7.40155 4.37187 7.97476 4.24883C8.13667 4.21394 8.25244 4.07071 8.25244 3.90509V3.30469H9.74754V3.90495C9.74754 4.07071 9.86317 4.21394 10.0252 4.24869C10.5983 4.37187 11.1391 4.59586 11.6322 4.9146C11.7714 5.00455 11.9544 4.98518 12.0716 4.8679L12.4962 4.44342L13.5538 5.50017L13.1289 5.92506C13.0116 6.04234 12.9922 6.2254 13.0822 6.36452C13.4009 6.8578 13.6249 7.39847 13.7481 7.97154C13.7828 8.13359 13.9261 8.24922 14.0918 8.24922H14.6959V9.74432H14.0918C13.9261 9.74432 13.783 9.86009 13.7481 10.022C13.625 10.5951 13.4009 11.1359 13.0822 11.629C12.9922 11.7683 13.0117 11.9513 13.1289 12.0685L13.5565 12.4961L12.4998 13.5537L12.0717 13.1258C11.9544 13.0085 11.7714 12.9891 11.6322 13.0791C11.139 13.3978 10.5983 13.6218 10.0252 13.745C9.86317 13.7799 9.74754 13.923 9.74754 14.0887V14.6953H8.25244V14.0887C8.25244 13.9231 8.13667 13.7799 7.97476 13.745C7.40169 13.6219 6.86102 13.3978 6.36774 13.0791Z" fill="#222222"/>
<path d="M11.9051 9C11.9051 7.39819 10.6019 6.09508 9.00014 6.09508C7.39833 6.09508 6.09521 7.39819 6.09521 9C6.09521 10.6018 7.39833 11.9049 9.00014 11.9049C10.6019 11.9049 11.9051 10.6018 11.9051 9ZM6.79834 9C6.79834 7.78587 7.78601 6.7982 9.00014 6.7982C10.2143 6.7982 11.2019 7.78601 11.2019 9C11.2019 10.214 10.2143 11.2018 9.00014 11.2018C7.78601 11.2018 6.79834 10.2141 6.79834 9Z" fill="#222222"/>
<path d="M12.2373 1.32962C12.3299 1.32962 12.4205 1.29199 12.4859 1.22662C12.5512 1.16084 12.5889 1.07021 12.5889 0.977646C12.5889 0.885635 12.5514 0.794861 12.4859 0.72908C12.4205 0.663712 12.3299 0.626083 12.2373 0.626083C12.1445 0.626083 12.0542 0.663712 11.9889 0.72908C11.9234 0.794861 11.8857 0.885223 11.8857 0.977646C11.8857 1.07048 11.9234 1.16084 11.9889 1.22662C12.0542 1.29199 12.1445 1.32962 12.2373 1.32962Z" fill="#222222"/>
<path d="M5.77832 16.6767C5.6859 16.6767 5.59512 16.7143 5.52975 16.7797C5.46439 16.8451 5.42676 16.9358 5.42676 17.0283C5.42676 17.1211 5.46439 17.2115 5.52975 17.2768C5.59512 17.3422 5.6859 17.3798 5.77832 17.3798C5.87074 17.3798 5.96152 17.3422 6.02689 17.2768C6.09225 17.2115 6.12988 17.1207 6.12988 17.0283C6.12988 16.9358 6.09225 16.8451 6.02689 16.7797C5.96152 16.7143 5.87074 16.6767 5.77832 16.6767Z" fill="#222222"/>
</svg>
