<svg width="18" height="18" viewBox="0 0 18 18" fill="none" xmlns="http://www.w3.org/2000/svg">
<path d="M1.58203 8.47266H6.89062C7.76299 8.47266 8.47266 7.76299 8.47266 6.89062V1.58203C8.47266 0.709664 7.76299 0 6.89062 0H1.58203C0.709664 0 0 0.709664 0 1.58203V6.89062C0 7.76299 0.709664 8.47266 1.58203 8.47266ZM2.67188 3.72656H3.72656V2.67188C3.72656 2.38039 3.96243 2.14453 4.25391 2.14453C4.54539 2.14453 4.78125 2.38039 4.78125 2.67188V3.72656H5.83594C6.12742 3.72656 6.36328 3.96243 6.36328 4.25391C6.36328 4.54539 6.12742 4.78125 5.83594 4.78125H4.78125V5.83594C4.78125 6.12742 4.54539 6.36328 4.25391 6.36328C3.96243 6.36328 3.72656 6.12742 3.72656 5.83594V4.78125H2.67188C2.38039 4.78125 2.14453 4.54539 2.14453 4.25391C2.14453 3.96243 2.38039 3.72656 2.67188 3.72656Z" fill="#222222"/>
<path d="M16.418 0H11.1094C10.237 0 9.52734 0.709664 9.52734 1.58203V6.89062C9.52734 7.76299 10.237 8.47266 11.1094 8.47266H16.418C17.2903 8.47266 18 7.76299 18 6.89062V1.58203C18 0.709664 17.2903 0 16.418 0ZM15.3633 4.78125H12.1641C11.8726 4.78125 11.6367 4.54539 11.6367 4.25391C11.6367 3.96243 11.8726 3.72656 12.1641 3.72656H15.3633C15.6548 3.72656 15.8906 3.96243 15.8906 4.25391C15.8906 4.54539 15.6548 4.78125 15.3633 4.78125Z" fill="#222222"/>
<path d="M16.418 9.52734H11.1094C10.237 9.52734 9.52734 10.237 9.52734 11.1094V16.418C9.52734 17.2903 10.237 18 11.1094 18H16.418C17.2903 18 18 17.2903 18 16.418V11.1094C18 10.237 17.2903 9.52734 16.418 9.52734ZM15.3633 15.3281H12.1641C11.8726 15.3281 11.6367 15.0923 11.6367 14.8008C11.6367 14.5093 11.8726 14.2734 12.1641 14.2734H15.3633C15.6548 14.2734 15.8906 14.5093 15.8906 14.8008C15.8906 15.0923 15.6548 15.3281 15.3633 15.3281ZM15.3633 13.2188H12.1641C11.8726 13.2188 11.6367 12.9829 11.6367 12.6914C11.6367 12.3999 11.8726 12.1641 12.1641 12.1641H15.3633C15.6548 12.1641 15.8906 12.3999 15.8906 12.6914C15.8906 12.9829 15.6548 13.2188 15.3633 13.2188Z" fill="#222222"/>
<path d="M8.47266 16.418V11.1094C8.47266 10.237 7.76299 9.52734 6.89062 9.52734H1.58203C0.709664 9.52734 0 10.237 0 11.1094V16.418C0 17.2903 0.709664 18 1.58203 18H6.89062C7.76299 18 8.47266 17.2903 8.47266 16.418ZM5.7453 14.4918C5.95128 14.6978 5.95128 15.0315 5.7453 15.2375C5.53932 15.4435 5.20559 15.4435 4.99961 15.2375L4.25391 14.4918L3.50821 15.2375C3.30223 15.4435 2.96849 15.4435 2.76251 15.2375C2.55653 15.0315 2.55653 14.6978 2.76251 14.4918L3.50821 13.7461L2.76251 13.0004C2.55653 12.7944 2.55653 12.4607 2.76251 12.2547C2.96849 12.0487 3.30223 12.0487 3.50821 12.2547L4.25391 13.0004L4.99961 12.2547C5.20559 12.0487 5.53932 12.0487 5.7453 12.2547C5.95128 12.4607 5.95128 12.7944 5.7453 13.0004L4.99961 13.7461L5.7453 14.4918Z" fill="#222222"/>
</svg>
