<svg width="20" height="20" viewBox="0 0 20 20" fill="none" xmlns="http://www.w3.org/2000/svg">
<path d="M19.7196 1.77565L18.3381 0.410522C17.9642 0.0366922 17.3466 0.0366922 16.9565 0.410522L10.065 7.30183L3.04361 0.280494C2.66961 -0.093498 2.05198 -0.093498 1.66205 0.280494L0.280496 1.66204C-0.0934988 2.03587 -0.0934988 2.6535 0.280496 3.04358L7.28579 10.0488L0.410525 16.9565C0.0366925 17.3304 0.0366925 17.948 0.410525 18.3381L1.79208 19.7196C2.16591 20.0935 2.78355 20.0935 3.17364 19.7196L10.065 12.8282L16.9565 19.7196C17.3303 20.0935 17.948 20.0935 18.3381 19.7196L19.7196 18.3381C20.0935 17.9643 20.0935 17.3466 19.7196 16.9565L12.8119 10.0651L19.7034 3.17377C20.0935 2.78336 20.0935 2.16573 19.7196 1.77565Z" fill="black"/>
</svg>
