<svg width="12" height="12" viewBox="0 0 12 12" fill="none" xmlns="http://www.w3.org/2000/svg">
<g clip-path="url(#clip0_815_1118)">
<path d="M6.08316 4.98526C4.53357 3.43586 2.83443 2.62278 2.28784 3.16917C2.22787 3.23199 2.18373 3.30819 2.15909 3.39148L2.1503 3.38268L1.6283 5.52185L1.1085 7.65462L0.492343 10.18L0.102295 11.7794L2.4116 10.9056L5.34885 9.79418L7.69214 8.90753L7.68934 8.90473C7.76778 8.87971 7.83956 8.83728 7.89926 8.78058C8.44584 8.23399 7.63276 6.53485 6.08316 4.98526Z" fill="#DD1C4B"/>
<path d="M6.08309 4.98425C4.53355 3.43471 2.83436 2.6216 2.28784 3.16811C1.74133 3.71463 2.55444 5.41382 4.10398 6.96336C5.65352 8.51289 7.35271 9.326 7.89922 8.77949C8.44574 8.23297 7.63263 6.53378 6.08309 4.98425Z" fill="#D1E3EE"/>
<path d="M7.47942 8.97648C7.19963 8.98138 6.92204 8.9263 6.66534 8.81494L4.75008 9.53966L1.81183 10.65L0.236243 11.2462L0.102295 11.7954L2.4116 10.9215L5.34885 9.81015L7.49941 8.99647L7.47942 8.97648Z" fill="#B21D48"/>
<path d="M9.89848 7.39678C9.87453 7.39671 9.85079 7.39243 9.8283 7.38419C8.81337 7.00396 7.71628 6.89735 6.64714 7.0751L5.93302 7.19406C5.82371 7.20965 5.72245 7.13368 5.70686 7.02437C5.69179 6.91876 5.76229 6.81993 5.86705 6.79981L6.58137 6.67986C7.71978 6.4907 8.88789 6.60413 9.96865 7.00873C10.0726 7.04606 10.1265 7.16057 10.0892 7.26448C10.0603 7.34475 9.98377 7.39788 9.89848 7.39678Z" fill="#FFBF41"/>
<path d="M6.29995 6.19737C6.18954 6.19672 6.10055 6.10668 6.1012 5.99627C6.10165 5.92005 6.14538 5.85073 6.21398 5.81752L10.4123 3.8183C10.512 3.77082 10.6314 3.81315 10.6788 3.91286C10.7263 4.01257 10.684 4.13188 10.5843 4.17936L6.38591 6.17858C6.35902 6.19115 6.32966 6.19757 6.29995 6.19737Z" fill="#FFBF41"/>
<path d="M3.962 5.79763C3.93563 5.79768 3.90952 5.79245 3.88523 5.78223C3.78332 5.73972 3.73516 5.62267 3.77767 5.52076V5.52073L4.06836 4.82321C4.51561 3.7545 4.61989 2.57326 4.36684 1.44272C4.3409 1.33539 4.4069 1.22738 4.51421 1.20144C4.62154 1.1755 4.72955 1.2415 4.75549 1.34881C4.75606 1.35118 4.75659 1.35356 4.75709 1.35596C5.02818 2.56701 4.9164 3.83237 4.43721 4.97715L4.14633 5.67467C4.11529 5.74907 4.04262 5.79755 3.962 5.79763Z" fill="#FFBF41"/>
<path d="M10.8981 8.19666C11.119 8.19666 11.298 8.01764 11.298 7.79682C11.298 7.57599 11.119 7.39697 10.8981 7.39697C10.6773 7.39697 10.4983 7.57599 10.4983 7.79682C10.4983 8.01764 10.6773 8.19666 10.8981 8.19666Z" fill="#D5557E"/>
<path d="M6.09992 2.599C6.32074 2.599 6.49976 2.41999 6.49976 2.19916C6.49976 1.97833 6.32074 1.79932 6.09992 1.79932C5.87909 1.79932 5.70007 1.97833 5.70007 2.19916C5.70007 2.41999 5.87909 2.599 6.09992 2.599Z" fill="#DD95C1"/>
<path d="M4.30072 0.799688C4.07988 0.799688 3.90088 0.620683 3.90088 0.399844C3.90088 0.179005 4.07988 0 4.30072 0C4.52156 0 4.70057 0.179005 4.70057 0.399844C4.70057 0.620683 4.52156 0.799688 4.30072 0.799688Z" fill="#7FCCCB"/>
<path d="M9.89841 1.59977C9.788 1.59977 9.69849 1.51025 9.69849 1.39984V1.19992C9.69849 1.08952 9.788 1 9.89841 1C10.0088 1 10.0983 1.08952 10.0983 1.19992V1.39984C10.0983 1.51025 10.0088 1.59977 9.89841 1.59977Z" fill="#2276BB"/>
<path d="M9.89841 0.599766C9.788 0.599766 9.69849 0.510251 9.69849 0.399844V0.199922C9.69849 0.0895151 9.788 0 9.89841 0C10.0088 0 10.0983 0.0895151 10.0983 0.199922V0.399844C10.0983 0.510251 10.0088 0.599766 9.89841 0.599766Z" fill="#2276BB"/>
<path d="M10.4982 0.999454H10.2983C10.1879 0.999454 10.0984 0.909939 10.0984 0.799532C10.0984 0.689125 10.1879 0.599609 10.2983 0.599609H10.4982C10.6086 0.599609 10.6982 0.689125 10.6982 0.799532C10.6982 0.909939 10.6087 0.999454 10.4982 0.999454Z" fill="#2276BB"/>
<path d="M9.4986 0.999454H9.29868C9.18827 0.999454 9.09875 0.909939 9.09875 0.799532C9.09875 0.689125 9.18827 0.599609 9.29868 0.599609H9.4986C9.609 0.599609 9.69852 0.689125 9.69852 0.799532C9.69852 0.909939 9.60903 0.999454 9.4986 0.999454Z" fill="#2276BB"/>
<path d="M1.68929 5.7975C1.6669 5.71193 1.64691 5.62556 1.62832 5.5376L1.10852 7.67037L1.1485 8.15798C1.23565 9.19755 1.68222 10.1743 2.41141 10.9203L5.34887 9.80993C5.33287 9.80493 5.31628 9.80134 5.30029 9.79594C3.51911 9.12807 2.17281 7.6373 1.68929 5.7975Z" fill="white"/>
<path d="M5.3489 9.80986C5.3329 9.80486 5.31631 9.80126 5.30031 9.79587C5.10789 9.72302 4.91941 9.64008 4.73573 9.54736L2.08997 10.5484C2.19028 10.6785 2.29766 10.8029 2.41164 10.9212L5.3489 9.80986Z" fill="#F6F6E7"/>
<path d="M8.49905 2.39502V3.39883H7.49524V2.39502H8.49905Z" fill="#C9DA53"/>
<path d="M4.90043 5.99778C4.79003 5.99775 4.70054 5.90821 4.70056 5.7978C4.70059 5.74118 4.7246 5.68722 4.76669 5.64931L6.7659 3.85001C6.8494 3.77776 6.97565 3.78689 7.04789 3.87038C7.11814 3.95155 7.11175 4.0737 7.0334 4.1471L5.03418 5.9464C4.9975 5.97946 4.94984 5.99775 4.90043 5.99778Z" fill="#FFBF41"/>
<path d="M10.6982 5.19791C10.5878 5.19791 10.4983 5.1084 10.4983 4.99799V4.79807C10.4983 4.68766 10.5878 4.59814 10.6982 4.59814C10.8086 4.59814 10.8981 4.68766 10.8981 4.79807V4.99799C10.8981 5.1084 10.8086 5.19791 10.6982 5.19791Z" fill="#FFDB43"/>
<path d="M11.4051 4.90494C11.352 4.90509 11.3011 4.884 11.2638 4.84636L11.1224 4.70502C11.0457 4.6256 11.0479 4.49902 11.1273 4.42233C11.2048 4.34751 11.3276 4.34751 11.4051 4.42233L11.5464 4.56367C11.6245 4.64177 11.6245 4.76834 11.5464 4.84641C11.5089 4.88387 11.4581 4.90494 11.4051 4.90494Z" fill="#FFDB43"/>
<path d="M11.6978 4.19818H11.4979C11.3875 4.19818 11.298 4.10867 11.298 3.99826C11.298 3.88785 11.3875 3.79834 11.4979 3.79834H11.6978C11.8082 3.79834 11.8977 3.88785 11.8977 3.99826C11.8977 4.10867 11.8083 4.19818 11.6978 4.19818Z" fill="#FFDB43"/>
<path d="M11.2637 3.6325C11.1533 3.63247 11.0638 3.54296 11.0638 3.43252C11.0638 3.37952 11.0849 3.32869 11.1224 3.29123L11.2637 3.14988C11.3431 3.07316 11.4697 3.07536 11.5464 3.15478C11.6212 3.23225 11.6212 3.35508 11.5464 3.43257L11.4051 3.57392C11.3676 3.61141 11.3167 3.6325 11.2637 3.6325Z" fill="#FFDB43"/>
<path d="M10.6982 3.39859C10.5878 3.39859 10.4983 3.30908 10.4983 3.19867V2.99875C10.4983 2.88834 10.5878 2.79883 10.6982 2.79883C10.8086 2.79883 10.8981 2.88834 10.8981 2.99875V3.19867C10.8981 3.30908 10.8086 3.39859 10.6982 3.39859Z" fill="#FFDB43"/>
<path d="M10.1325 3.63297C10.0795 3.63297 10.0287 3.61187 9.99117 3.57439L9.84983 3.43304C9.77313 3.35363 9.7753 3.22705 9.85472 3.15035C9.93219 3.07553 10.055 3.07553 10.1325 3.15035L10.2739 3.2917C10.3519 3.36979 10.3519 3.49637 10.2738 3.57444C10.2364 3.6119 10.1855 3.63297 10.1325 3.63297Z" fill="#FFDB43"/>
<path d="M1.10191 0.199707L1.41079 0.825663L2.10152 0.926024L1.60171 1.41323L1.71966 2.10117L1.10191 1.77629L0.484146 2.10117L0.6021 1.41323L0.102295 0.926024L0.793026 0.825663L1.10191 0.199707Z" fill="#FFDB43"/>
<path d="M11.8345 10.8292C11.7394 10.4922 11.5205 10.2037 11.2215 10.0213L11.1392 9.89778C10.6773 9.20712 9.95108 8.73751 9.13175 8.59969C9.02245 8.58409 8.92119 8.66006 8.90559 8.76937C8.89052 8.87498 8.96102 8.97381 9.06578 8.99393C9.65675 9.09424 10.1953 9.39448 10.5914 9.8444C10.2584 9.9043 9.96715 10.1043 9.7917 10.3936C9.57638 10.7792 9.71445 11.2663 10.1001 11.4817C10.4857 11.697 10.9728 11.5589 11.1881 11.1733C11.2704 11.0145 11.3148 10.8389 11.3179 10.6601C11.5306 10.969 11.5476 11.3725 11.3617 11.6983C11.3054 11.7932 11.3367 11.9159 11.4316 11.9722C11.5266 12.0285 11.6492 11.9972 11.7056 11.9023C11.7074 11.8992 11.7091 11.8961 11.7107 11.893C11.8924 11.5692 11.9369 11.1861 11.8345 10.8292ZM10.8395 10.9782C10.7328 11.1715 10.4895 11.2417 10.2962 11.135C10.1029 11.0283 10.0327 10.7851 10.1394 10.5918C10.14 10.5907 10.1406 10.5896 10.1412 10.5885C10.2591 10.3953 10.4581 10.2658 10.6825 10.2362C10.7173 10.2353 10.7517 10.2433 10.7825 10.2594C10.9512 10.3536 10.9602 10.7618 10.8395 10.9782Z" fill="#2BB3CE"/>
</g>
<defs>
<clipPath id="clip0_815_1118">
<rect width="12" height="12" fill="white"/>
</clipPath>
</defs>
</svg>
