<svg width="16" height="19" viewBox="0 0 16 19" fill="none" xmlns="http://www.w3.org/2000/svg">
<path d="M10.4414 8.82812C10.4414 8.26562 10.0195 7.80859 9.52734 7.80859C9 7.80859 8.57812 8.26562 8.57812 8.82812C8.57812 9.35547 9 9.8125 9.52734 9.8125C10.0195 9.8125 10.4414 9.35547 10.4414 8.82812ZM6.22266 7.80859C5.73047 7.80859 5.30859 8.26562 5.30859 8.82812C5.30859 9.35547 5.73047 9.8125 6.22266 9.8125C6.75 9.8125 7.13672 9.35547 7.13672 8.82812C7.17188 8.26562 6.75 7.80859 6.22266 7.80859ZM15.75 2.11328C15.75 1.09375 14.9062 0.25 13.8867 0.25H1.82812C0.808594 0.25 0 1.09375 0 2.11328V14.2773C0 15.332 0.808594 16.1406 1.82812 16.1406H12.0234L11.5664 14.4883C14.2031 16.9141 13.4648 16.2812 15.75 18.25V2.11328ZM13.1836 10.6562C13.1836 10.6562 12.4102 11.957 10.4062 12.0273C10.4062 12.0273 10.0898 11.6406 9.80859 11.2891C11.0039 10.9727 11.4609 10.2344 11.4609 10.2344C11.0742 10.4805 10.7227 10.6211 10.4062 10.7617C8.47266 11.5703 6.32812 11.2891 4.78125 10.4453C4.78125 10.4102 4.57031 10.3047 4.42969 10.1992C4.42969 10.1992 4.85156 10.9375 6.01172 11.2891C5.73047 11.6055 5.41406 12.0273 5.41406 12.0273C3.41016 11.957 2.67188 10.6562 2.67188 10.6562C2.67188 7.73828 3.9375 5.41797 3.9375 5.41797C5.23828 4.43359 6.46875 4.46875 6.46875 4.46875L6.57422 4.57422C4.95703 5.03125 4.21875 5.73438 4.21875 5.73438C4.21875 5.73438 4.39453 5.62891 4.74609 5.48828C6.82031 4.57422 9.31641 4.57422 11.4609 5.73438C11.4609 5.73438 10.7578 5.06641 9.21094 4.60938L9.35156 4.46875C9.35156 4.46875 10.582 4.43359 11.8828 5.41797C11.8828 5.41797 13.1836 7.73828 13.1836 10.6562Z" fill="#222222"/>
</svg>
