<svg width="12" height="14" viewBox="0 0 12 14" fill="none" xmlns="http://www.w3.org/2000/svg">
<path d="M6.0757 14L0 10.3394V4.6975L6.00733 7.96871L10.2857 5.7733V9.30737L6.06593 11.5125L2.02198 9.28303L2.46642 8.4847L6.0757 10.4708L9.36752 8.75243V7.2726L5.99267 9.00069L0.918193 6.24061V9.82337L6.06593 12.9242L11.0769 9.79416V3.95271L6.10501 1.05633L2.03663 3.39777L6.10501 5.70515L8.20024 4.48331L6.12454 3.23227L4.56654 4.02573L4.1514 3.20793L6.16361 2.18567L9.99267 4.49305L6.10989 6.76147L0.190476 3.40264L6.10989 0L12 3.42698V10.3004L6.0757 14Z" fill="#4A2684"/>
</svg>
