<svg width="44" height="36" viewBox="0 0 44 36" fill="none" xmlns="http://www.w3.org/2000/svg">
<g opacity="0.3">
<path d="M7.00591 25.3229C4.87013 22.2916 5.58468 18.0867 8.60189 15.931L27.6272 2.33828C30.6444 0.182608 34.8217 0.892463 36.9575 3.92379L41.5261 10.408C43.6619 13.4394 42.9473 17.6442 39.9301 19.7999L20.9048 33.3927C17.8876 35.5484 13.7103 34.8385 11.5745 31.8072L7.00591 25.3229Z" fill="url(#paint0_linear_854_24245)"/>
<g filter="url(#filter0_b_854_24245)">
<rect width="18.4053" height="13.593" rx="3.35711" transform="matrix(0.813667 -0.581331 0.575967 0.817473 8.52905 20.7555)" fill="white"/>
</g>
<line opacity="0.3" y1="-0.839278" x2="21.3605" y2="-0.839278" transform="matrix(0.575967 0.817473 -0.813667 0.581331 24.4193 4.62793)" stroke="white" stroke-width="1.67856" stroke-dasharray="5.04 5.04"/>
<line opacity="0.3" y1="-0.839278" x2="13.593" y2="-0.839278" transform="matrix(0.575967 0.817473 -0.813667 0.581331 29.0223 6.1156)" stroke="white" stroke-width="1.67856"/>
<line opacity="0.3" y1="-0.839278" x2="13.593" y2="-0.839278" transform="matrix(0.575967 0.817473 -0.813667 0.581331 30.5988 4.98779)" stroke="white" stroke-width="1.67856"/>
<path d="M14.9631 20.1211C14.4732 19.4258 14.29 18.7384 14.4135 18.0588C14.5461 17.3727 14.9311 16.802 15.5685 16.3466C16.2058 15.8913 16.8634 15.7171 17.5412 15.8243C18.2281 15.9249 18.8164 16.3228 19.3063 17.018C19.8026 17.7224 19.9844 18.4177 19.8518 19.1037C19.7283 19.7833 19.3479 20.3508 18.7105 20.8062C18.0732 21.2616 17.4111 21.4389 16.7242 21.3383C16.0464 21.2312 15.4594 20.8254 14.9631 20.1211ZM22.2812 11.7982L23.6812 25.2383L21.8238 26.5654L20.4101 13.135L22.2812 11.7982ZM16.3669 17.509C15.8661 17.8668 15.8671 18.4025 16.3698 19.116C16.879 19.8387 17.384 20.0211 17.8848 19.6633C18.1306 19.4877 18.2606 19.2642 18.2747 18.9928C18.2824 18.7122 18.1573 18.389 17.8995 18.0231C17.3968 17.3096 16.8859 17.1382 16.3669 17.509ZM24.8164 21.3123C24.3201 20.6079 24.1369 19.9205 24.2668 19.2501C24.3994 18.564 24.7844 17.9932 25.4218 17.5379C26.0591 17.0825 26.7122 16.9116 27.3808 17.0252C28.0522 17.1232 28.636 17.5244 29.1323 18.2288C29.6285 18.9332 29.8149 19.6251 29.6915 20.3047C29.5771 20.9778 29.2012 21.542 28.5638 21.9974C27.9174 22.4593 27.2552 22.6367 26.5775 22.5296C25.8997 22.4224 25.3127 22.0167 24.8164 21.3123ZM26.2202 18.7002C25.7012 19.071 25.6931 19.6132 26.1958 20.3267C26.705 21.0494 27.2191 21.2254 27.7381 20.8546C28.248 20.4903 28.2483 19.9468 27.7392 19.2241C27.2364 18.5106 26.7301 18.3359 26.2202 18.7002Z" fill="#BB446F"/>
</g>
<path d="M1.44271 15.1107C0.48919 11.5272 2.61848 7.83911 6.19861 6.87311L28.7069 0.799872C32.287 -0.166129 35.9622 1.95575 36.9157 5.53923L38.9656 13.243C39.9191 16.8264 37.7899 20.5145 34.2097 21.4805L11.7015 27.5538C8.12135 28.5198 4.44611 26.3979 3.49259 22.8144L1.44271 15.1107Z" fill="url(#paint1_linear_854_24245)"/>
<g filter="url(#filter1_b_854_24245)">
<rect width="18.3708" height="13.6183" rx="3.35711" transform="matrix(0.965472 -0.260506 0.257141 0.966374 4.4519 11.3733)" fill="white"/>
</g>
<line opacity="0.3" y1="-0.839278" x2="21.4002" y2="-0.839278" transform="matrix(0.257141 0.966374 -0.965472 0.260507 24.9209 1.8197)" stroke="white" stroke-width="1.67856" stroke-dasharray="5.04 5.04"/>
<line opacity="0.3" y1="-0.839278" x2="13.6183" y2="-0.839278" transform="matrix(0.257141 0.966374 -0.965472 0.260506 28.7233 4.82617)" stroke="white" stroke-width="1.67856"/>
<line opacity="0.3" y1="-0.839278" x2="13.6183" y2="-0.839278" transform="matrix(0.257141 0.966374 -0.965472 0.260506 30.5896 4.32471)" stroke="white" stroke-width="1.67856"/>
<path d="M10.9526 14.651C10.7963 14.0634 10.8438 13.5576 11.0952 13.1334C11.3543 12.7072 11.7542 12.4212 12.2948 12.2753C12.8355 12.1294 13.32 12.1768 13.7483 12.4176C14.1843 12.6562 14.4805 13.0693 14.6368 13.6569C14.7952 14.2522 14.7449 14.7629 14.4858 15.1891C14.2344 15.6133 13.8384 15.8983 13.2977 16.0441C12.757 16.19 12.2687 16.1436 11.8327 15.905C11.4044 15.6643 11.111 15.2462 10.9526 14.651ZM17.9278 10.9045L15.5346 20.2506L13.9589 20.6758L16.3405 11.3328L17.9278 10.9045ZM12.5425 13.2525C12.1177 13.3671 11.9855 13.726 12.1459 14.329C12.3084 14.9397 12.6021 15.1878 13.0269 15.0732C13.2355 15.0169 13.3781 14.8997 13.4549 14.7215C13.5296 14.5357 13.5258 14.2881 13.4435 13.9789C13.2831 13.3758 12.9827 13.1337 12.5425 13.2525ZM17.2699 17.9056C17.1115 17.3103 17.159 16.8045 17.4125 16.3881C17.6716 15.9619 18.0715 15.6758 18.6121 15.5299C19.1528 15.3841 19.6334 15.4325 20.054 15.6753C20.4803 15.9083 20.7726 16.3225 20.931 16.9178C21.0894 17.5131 21.0429 18.0228 20.7915 18.4469C20.5478 18.8689 20.1557 19.1529 19.615 19.2988C19.0666 19.4468 18.5783 19.4004 18.15 19.1596C17.7217 18.9189 17.4283 18.5009 17.2699 17.9056ZM18.8598 16.5072C18.4195 16.626 18.2796 16.9869 18.4401 17.5899C18.6026 18.2006 18.904 18.4466 19.3442 18.3278C19.7767 18.2111 19.9118 17.8474 19.7492 17.2366C19.5888 16.6336 19.2923 16.3905 18.8598 16.5072Z" fill="#BB446F"/>
<defs>
<filter id="filter0_b_854_24245" x="4.02008" y="5.55683" width="31.8229" height="30.8097" filterUnits="userSpaceOnUse" color-interpolation-filters="sRGB">
<feFlood flood-opacity="0" result="BackgroundImageFix"/>
<feGaussianBlur in="BackgroundImage" stdDeviation="2.9136"/>
<feComposite in2="SourceAlpha" operator="in" result="effect1_backgroundBlur_854_24245"/>
<feBlend mode="normal" in="SourceGraphic" in2="effect1_backgroundBlur_854_24245" result="shape"/>
</filter>
<filter id="filter1_b_854_24245" x="-0.625912" y="1.51825" width="31.3939" height="28.0847" filterUnits="userSpaceOnUse" color-interpolation-filters="sRGB">
<feFlood flood-opacity="0" result="BackgroundImageFix"/>
<feGaussianBlur in="BackgroundImage" stdDeviation="2.9136"/>
<feComposite in2="SourceAlpha" operator="in" result="effect1_backgroundBlur_854_24245"/>
<feBlend mode="normal" in="SourceGraphic" in2="effect1_backgroundBlur_854_24245" result="shape"/>
</filter>
<linearGradient id="paint0_linear_854_24245" x1="32.7557" y1="-1.30045" x2="19.1812" y2="38.0157" gradientUnits="userSpaceOnUse">
<stop offset="0.121668" stop-color="#BB446F"/>
<stop offset="0.843371" stop-color="#9C3359"/>
</linearGradient>
<linearGradient id="paint1_linear_854_24245" x1="34.7917" y1="-0.830577" x2="8.39012" y2="31.2339" gradientUnits="userSpaceOnUse">
<stop offset="0.121668" stop-color="#BB446F"/>
<stop offset="0.843371" stop-color="#9C3359"/>
</linearGradient>
</defs>
</svg>
