<svg width="34" height="25" viewBox="0 0 34 25" fill="none" xmlns="http://www.w3.org/2000/svg">
<path d="M19.8043 24.1673H18.7041V25H19.8043V24.1673Z" fill="#2D672D"/>
<path d="M18.7042 24.1673H17.604V25H18.7042V24.1673Z" fill="#2D672D"/>
<path d="M17.6037 24.1673H16.5034V25H17.6037V24.1673Z" fill="#46A949"/>
<path d="M16.5036 24.1673H15.4033V25H16.5036V24.1673Z" fill="#2D9B31"/>
<path d="M15.4035 24.1673H14.3032V25H15.4035V24.1673Z" fill="#2C8B2F"/>
<path d="M14.3034 24.1673H13.2031V25H14.3034V24.1673Z" fill="#2C8B2F"/>
<path d="M13.2028 24.1673H12.1025V25H13.2028V24.1673Z" fill="#1E8021"/>
<path d="M12.1027 24.1673H11.0024V25H12.1027V24.1673Z" fill="#2C8B2F"/>
<path d="M11.0026 24.1673H9.90234V25H11.0026V24.1673Z" fill="#1E8021"/>
<path d="M9.902 24.1673H8.80176V25H9.902V24.1673Z" fill="#2C8B2F"/>
<path d="M8.8019 24.1673H7.70166V25H8.8019V24.1673Z" fill="#20571F"/>
<path d="M28.6061 23.3327H27.5059V24.1654H28.6061V23.3327Z" fill="#2C8B2F"/>
<path d="M27.506 23.3327H26.4058V24.1654H27.506V23.3327Z" fill="#2C8B2F"/>
<path d="M26.4059 23.3327H25.3057V24.1654H26.4059V23.3327Z" fill="#2C8B2F"/>
<path d="M25.3058 23.3327H24.2056V24.1654H25.3058V23.3327Z" fill="#255125"/>
<path d="M24.2052 23.3327H23.105V24.1654H24.2052V23.3327Z" fill="#143214"/>
<path d="M23.1051 23.3327H22.0049V24.1654H23.1051V23.3327Z" fill="#174516"/>
<path d="M22.005 23.3327H20.9048V24.1654H22.005V23.3327Z" fill="#174516"/>
<path d="M20.9044 23.3327H19.8042V24.1654H20.9044V23.3327Z" fill="#174516"/>
<path d="M19.8043 23.3327H18.7041V24.1654H19.8043V23.3327Z" fill="#174516"/>
<path d="M18.7042 23.3327H17.604V24.1654H18.7042V23.3327Z" fill="#174516"/>
<path d="M17.6037 23.3327H16.5034V24.1654H17.6037V23.3327Z" fill="#2C8B2F"/>
<path d="M16.5036 23.3327H15.4033V24.1654H16.5036V23.3327Z" fill="#1E8021"/>
<path d="M15.4035 23.3327H14.3032V24.1654H15.4035V23.3327Z" fill="#2C8B2F"/>
<path d="M14.3034 23.3327H13.2031V24.1654H14.3034V23.3327Z" fill="#1E8021"/>
<path d="M13.2028 23.3327H12.1025V24.1654H13.2028V23.3327Z" fill="#2C8B2F"/>
<path d="M12.1027 23.3327H11.0024V24.1654H12.1027V23.3327Z" fill="#1E8021"/>
<path d="M11.0026 23.3327H9.90234V24.1654H11.0026V23.3327Z" fill="#2C8B2F"/>
<path d="M9.902 23.3327H8.80176V24.1654H9.902V23.3327Z" fill="#2C8B2F"/>
<path d="M8.8019 23.3327H7.70166V24.1654H8.8019V23.3327Z" fill="#20571F"/>
<path d="M7.7018 23.3327H6.60156V24.1654H7.7018V23.3327Z" fill="#20571F"/>
<path d="M6.60122 23.3327H5.50098V24.1654H6.60122V23.3327Z" fill="#20571F"/>
<path d="M28.6061 22.5H27.5059V23.3326H28.6061V22.5Z" fill="#2C8B2F"/>
<path d="M27.506 22.5H26.4058V23.3326H27.506V22.5Z" fill="#1E8021"/>
<path d="M26.4059 22.5H25.3057V23.3326H26.4059V22.5Z" fill="#2C8B2F"/>
<path d="M25.3058 22.5H24.2056V23.3326H25.3058V22.5Z" fill="#255125"/>
<path d="M24.2052 22.5H23.105V23.3326H24.2052V22.5Z" fill="#143214"/>
<path d="M23.1051 22.5H22.0049V23.3326H23.1051V22.5Z" fill="#174516"/>
<path d="M22.005 22.5H20.9048V23.3326H22.005V22.5Z" fill="#174516"/>
<path d="M20.9044 22.5H19.8042V23.3326H20.9044V22.5Z" fill="#174516"/>
<path d="M19.8043 22.5H18.7041V23.3326H19.8043V22.5Z" fill="#174516"/>
<path d="M18.7042 22.5H17.604V23.3326H18.7042V22.5Z" fill="#174516"/>
<path d="M17.6037 22.5H16.5034V23.3326H17.6037V22.5Z" fill="#2C8B2F"/>
<path d="M16.5036 22.5H15.4033V23.3326H16.5036V22.5Z" fill="#2C8B2F"/>
<path d="M15.4035 22.5H14.3032V23.3326H15.4035V22.5Z" fill="#2C8B2F"/>
<path d="M14.3034 22.5H13.2031V23.3326H14.3034V22.5Z" fill="#2C8B2F"/>
<path d="M13.2028 22.5H12.1025V23.3326H13.2028V22.5Z" fill="#2C8B2F"/>
<path d="M12.1027 22.5H11.0024V23.3326H12.1027V22.5Z" fill="#2C8B2F"/>
<path d="M11.0026 22.5H9.90234V23.3326H11.0026V22.5Z" fill="#1E8021"/>
<path d="M9.902 22.5H8.80176V23.3326H9.902V22.5Z" fill="#2C8B2F"/>
<path d="M8.8019 22.5H7.70166V23.3326H8.8019V22.5Z" fill="#174516"/>
<path d="M7.7018 22.5H6.60156V23.3326H7.7018V22.5Z" fill="#20571F"/>
<path d="M6.60122 22.5H5.50098V23.3326H6.60122V22.5Z" fill="#20571F"/>
<path d="M5.50112 22.5H4.40088V23.3326H5.50112V22.5Z" fill="#174516"/>
<path d="M4.40102 22.5H3.30078V23.3326H4.40102V22.5Z" fill="#20571F"/>
<path d="M28.6061 21.6673H27.5059V22.5H28.6061V21.6673Z" fill="#2C8B2F"/>
<path d="M27.506 21.6673H26.4058V22.5H27.506V21.6673Z" fill="#2C8B2F"/>
<path d="M26.4059 21.6673H25.3057V22.5H26.4059V21.6673Z" fill="#2C8B2F"/>
<path d="M25.3058 21.6673H24.2056V22.5H25.3058V21.6673Z" fill="#255125"/>
<path d="M24.2052 21.6673H23.105V22.5H24.2052V21.6673Z" fill="#143214"/>
<path d="M23.1051 21.6673H22.0049V22.5H23.1051V21.6673Z" fill="#174516"/>
<path d="M22.005 21.6673H20.9048V22.5H22.005V21.6673Z" fill="#0D350C"/>
<path d="M20.9044 21.6673H19.8042V22.5H20.9044V21.6673Z" fill="#174516"/>
<path d="M19.8043 21.6673H18.7041V22.5H19.8043V21.6673Z" fill="#174516"/>
<path d="M18.7042 21.6673H17.604V22.5H18.7042V21.6673Z" fill="#174516"/>
<path d="M17.6037 21.6673H16.5034V22.5H17.6037V21.6673Z" fill="#2C8B2F"/>
<path d="M16.5036 21.6673H15.4033V22.5H16.5036V21.6673Z" fill="#1E8021"/>
<path d="M15.4035 21.6673H14.3032V22.5H15.4035V21.6673Z" fill="#2C8B2F"/>
<path d="M14.3034 21.6673H13.2031V22.5H14.3034V21.6673Z" fill="#1E8021"/>
<path d="M13.2028 21.6673H12.1025V22.5H13.2028V21.6673Z" fill="#2C8B2F"/>
<path d="M12.1027 21.6673H11.0024V22.5H12.1027V21.6673Z" fill="#2C8B2F"/>
<path d="M11.0026 21.6673H9.90234V22.5H11.0026V21.6673Z" fill="#2C8B2F"/>
<path d="M9.902 21.6673H8.80176V22.5H9.902V21.6673Z" fill="#1E8021"/>
<path d="M8.8019 21.6673H7.70166V22.5H8.8019V21.6673Z" fill="#20571F"/>
<path d="M7.7018 21.6673H6.60156V22.5H7.7018V21.6673Z" fill="#20571F"/>
<path d="M6.60122 21.6673H5.50098V22.5H6.60122V21.6673Z" fill="#20571F"/>
<path d="M5.50112 21.6673H4.40088V22.5H5.50112V21.6673Z" fill="#20571F"/>
<path d="M4.40102 21.6673H3.30078V22.5H4.40102V21.6673Z" fill="#20571F"/>
<path d="M28.6061 20.8327H27.5059V21.6654H28.6061V20.8327Z" fill="#2C8B2F"/>
<path d="M27.506 20.8327H26.4058V21.6654H27.506V20.8327Z" fill="#2C8B2F"/>
<path d="M26.4059 20.8327H25.3057V21.6654H26.4059V20.8327Z" fill="#1E8021"/>
<path d="M25.3058 20.8327H24.2056V21.6654H25.3058V20.8327Z" fill="#255125"/>
<path d="M24.2052 20.8327H23.105V21.6654H24.2052V20.8327Z" fill="#143214"/>
<path d="M23.1051 20.8327H22.0049V21.6654H23.1051V20.8327Z" fill="#174516"/>
<path d="M22.005 20.8327H20.9048V21.6654H22.005V20.8327Z" fill="#174516"/>
<path d="M20.9044 20.8327H19.8042V21.6654H20.9044V20.8327Z" fill="#0D350C"/>
<path d="M19.8043 20.8327H18.7041V21.6654H19.8043V20.8327Z" fill="#174516"/>
<path d="M18.7042 20.8327H17.604V21.6654H18.7042V20.8327Z" fill="#174516"/>
<path d="M17.6037 20.8327H16.5034V21.6654H17.6037V20.8327Z" fill="#2C8B2F"/>
<path d="M16.5036 20.8327H15.4033V21.6654H16.5036V20.8327Z" fill="#2C8B2F"/>
<path d="M15.4035 20.8327H14.3032V21.6654H15.4035V20.8327Z" fill="#2C8B2F"/>
<path d="M14.3034 20.8327H13.2031V21.6654H14.3034V20.8327Z" fill="#2C8B2F"/>
<path d="M13.2028 20.8327H12.1025V21.6654H13.2028V20.8327Z" fill="#1E8021"/>
<path d="M12.1027 20.8327H11.0024V21.6654H12.1027V20.8327Z" fill="#2C8B2F"/>
<path d="M11.0026 20.8327H9.90234V21.6654H11.0026V20.8327Z" fill="#2C8B2F"/>
<path d="M9.902 20.8327H8.80176V21.6654H9.902V20.8327Z" fill="#2C8B2F"/>
<path d="M8.8019 20.8327H7.70166V21.6654H8.8019V20.8327Z" fill="#20571F"/>
<path d="M7.7018 20.8327H6.60156V21.6654H7.7018V20.8327Z" fill="#20571F"/>
<path d="M6.60122 20.8327H5.50098V21.6654H6.60122V20.8327Z" fill="#174516"/>
<path d="M5.50112 20.8327H4.40088V21.6654H5.50112V20.8327Z" fill="#20571F"/>
<path d="M4.40102 20.8327H3.30078V21.6654H4.40102V20.8327Z" fill="#20571F"/>
<path d="M28.6061 20H27.5059V20.8327H28.6061V20Z" fill="#2C8B2F"/>
<path d="M27.506 20H26.4058V20.8327H27.506V20Z" fill="#2C8B2F"/>
<path d="M26.4059 20H25.3057V20.8327H26.4059V20Z" fill="#2C8B2F"/>
<path d="M25.3058 20H24.2056V20.8327H25.3058V20Z" fill="#255125"/>
<path d="M24.2052 20H23.105V20.8327H24.2052V20Z" fill="#143214"/>
<path d="M23.1051 20H22.0049V20.8327H23.1051V20Z" fill="#174516"/>
<path d="M22.005 20H20.9048V20.8327H22.005V20Z" fill="#174516"/>
<path d="M20.9044 20H19.8042V20.8327H20.9044V20Z" fill="#174516"/>
<path d="M19.8043 20H18.7041V20.8327H19.8043V20Z" fill="#174516"/>
<path d="M18.7042 20H17.604V20.8327H18.7042V20Z" fill="#174516"/>
<path d="M17.6037 20H16.5034V20.8327H17.6037V20Z" fill="#2C8B2F"/>
<path d="M16.5036 20H15.4033V20.8327H16.5036V20Z" fill="#2C8B2F"/>
<path d="M15.4035 20H14.3032V20.8327H15.4035V20Z" fill="#1E8021"/>
<path d="M14.3034 20H13.2031V20.8327H14.3034V20Z" fill="#2C8B2F"/>
<path d="M13.2028 20H12.1025V20.8327H13.2028V20Z" fill="#2C8B2F"/>
<path d="M12.1027 20H11.0024V20.8327H12.1027V20Z" fill="#2C8B2F"/>
<path d="M11.0026 20H9.90234V20.8327H11.0026V20Z" fill="#1E8021"/>
<path d="M9.902 20H8.80176V20.8327H9.902V20Z" fill="#2C8B2F"/>
<path d="M8.8019 20H7.70166V20.8327H8.8019V20Z" fill="#174516"/>
<path d="M7.7018 20H6.60156V20.8327H7.7018V20Z" fill="#20571F"/>
<path d="M6.60122 20H5.50098V20.8327H6.60122V20Z" fill="#20571F"/>
<path d="M5.50112 20H4.40088V20.8327H5.50112V20Z" fill="#174516"/>
<path d="M4.40102 20H3.30078V20.8327H4.40102V20Z" fill="#20571F"/>
<path d="M28.6061 19.1673H27.5059V20H28.6061V19.1673Z" fill="#2C8B2F"/>
<path d="M27.506 19.1673H26.4058V20H27.506V19.1673Z" fill="#1E8021"/>
<path d="M26.4059 19.1673H25.3057V20H26.4059V19.1673Z" fill="#2C8B2F"/>
<path d="M25.3058 19.1673H24.2056V20H25.3058V19.1673Z" fill="#255125"/>
<path d="M24.2052 19.1673H23.105V20H24.2052V19.1673Z" fill="#143214"/>
<path d="M23.1051 19.1673H22.0049V20H23.1051V19.1673Z" fill="#0D350C"/>
<path d="M22.005 19.1673H20.9048V20H22.005V19.1673Z" fill="#174516"/>
<path d="M20.9044 19.1673H19.8042V20H20.9044V19.1673Z" fill="#174516"/>
<path d="M19.8043 19.1673H18.7041V20H19.8043V19.1673Z" fill="#174516"/>
<path d="M18.7042 19.1673H17.604V20H18.7042V19.1673Z" fill="#174516"/>
<path d="M17.6037 19.1673H16.5034V20H17.6037V19.1673Z" fill="#1E8021"/>
<path d="M16.5036 19.1673H15.4033V20H16.5036V19.1673Z" fill="#2C8B2F"/>
<path d="M15.4035 19.1673H14.3032V20H15.4035V19.1673Z" fill="#2C8B2F"/>
<path d="M14.3034 19.1673H13.2031V20H14.3034V19.1673Z" fill="#1E8021"/>
<path d="M13.2028 19.1673H12.1025V20H13.2028V19.1673Z" fill="#2C8B2F"/>
<path d="M12.1027 19.1673H11.0024V20H12.1027V19.1673Z" fill="#2C8B2F"/>
<path d="M11.0026 19.1673H9.90234V20H11.0026V19.1673Z" fill="#2C8B2F"/>
<path d="M9.902 19.1673H8.80176V20H9.902V19.1673Z" fill="#1E8021"/>
<path d="M8.8019 19.1673H7.70166V20H8.8019V19.1673Z" fill="#20571F"/>
<path d="M7.7018 19.1673H6.60156V20H7.7018V19.1673Z" fill="#20571F"/>
<path d="M6.60122 19.1673H5.50098V20H6.60122V19.1673Z" fill="#20571F"/>
<path d="M5.50112 19.1673H4.40088V20H5.50112V19.1673Z" fill="#20571F"/>
<path d="M4.40102 19.1673H3.30078V20H4.40102V19.1673Z" fill="#20571F"/>
<path d="M28.6061 18.3327H27.5059V19.1653H28.6061V18.3327Z" fill="#2C8B2F"/>
<path d="M27.506 18.3327H26.4058V19.1653H27.506V18.3327Z" fill="#2C8B2F"/>
<path d="M26.4059 18.3327H25.3057V19.1653H26.4059V18.3327Z" fill="#2C8B2F"/>
<path d="M25.3058 18.3327H24.2056V19.1653H25.3058V18.3327Z" fill="#255125"/>
<path d="M24.2052 18.3327H23.105V19.1653H24.2052V18.3327Z" fill="#143214"/>
<path d="M23.1051 18.3327H22.0049V19.1653H23.1051V18.3327Z" fill="#174516"/>
<path d="M22.005 18.3327H20.9048V19.1653H22.005V18.3327Z" fill="#0D350C"/>
<path d="M20.9044 18.3327H19.8042V19.1653H20.9044V18.3327Z" fill="#174516"/>
<path d="M19.8043 18.3327H18.7041V19.1653H19.8043V18.3327Z" fill="#174516"/>
<path d="M18.7042 18.3327H17.604V19.1653H18.7042V18.3327Z" fill="#174516"/>
<path d="M17.6037 18.3327H16.5034V19.1653H17.6037V18.3327Z" fill="#2C8B2F"/>
<path d="M16.5036 18.3327H15.4033V19.1653H16.5036V18.3327Z" fill="#2C8B2F"/>
<path d="M15.4035 18.3327H14.3032V19.1653H15.4035V18.3327Z" fill="#2C8B2F"/>
<path d="M14.3034 18.3327H13.2031V19.1653H14.3034V18.3327Z" fill="#2C8B2F"/>
<path d="M13.2028 18.3327H12.1025V19.1653H13.2028V18.3327Z" fill="#2C8B2F"/>
<path d="M12.1027 18.3327H11.0024V19.1653H12.1027V18.3327Z" fill="#1E8021"/>
<path d="M11.0026 18.3327H9.90234V19.1653H11.0026V18.3327Z" fill="#2C8B2F"/>
<path d="M9.902 18.3327H8.80176V19.1653H9.902V18.3327Z" fill="#2C8B2F"/>
<path d="M8.8019 18.3327H7.70166V19.1653H8.8019V18.3327Z" fill="#20571F"/>
<path d="M7.7018 18.3327H6.60156V19.1653H7.7018V18.3327Z" fill="#20571F"/>
<path d="M6.60122 18.3327H5.50098V19.1653H6.60122V18.3327Z" fill="#174516"/>
<path d="M5.50112 18.3327H4.40088V19.1653H5.50112V18.3327Z" fill="#20571F"/>
<path d="M4.40102 18.3327H3.30078V19.1653H4.40102V18.3327Z" fill="#20571F"/>
<path d="M28.6061 17.4999H27.5059V18.3326H28.6061V17.4999Z" fill="#1E8021"/>
<path d="M27.506 17.4999H26.4058V18.3326H27.506V17.4999Z" fill="#2C8B2F"/>
<path d="M26.4059 17.4999H25.3057V18.3326H26.4059V17.4999Z" fill="#2C8B2F"/>
<path d="M25.3058 17.4999H24.2056V18.3326H25.3058V17.4999Z" fill="#255125"/>
<path d="M24.2052 17.4999H23.105V18.3326H24.2052V17.4999Z" fill="#143214"/>
<path d="M23.1051 17.4999H22.0049V18.3326H23.1051V17.4999Z" fill="#174516"/>
<path d="M22.005 17.4999H20.9048V18.3326H22.005V17.4999Z" fill="#174516"/>
<path d="M20.9044 17.4999H19.8042V18.3326H20.9044V17.4999Z" fill="#174516"/>
<path d="M19.8043 17.4999H18.7041V18.3326H19.8043V17.4999Z" fill="#174516"/>
<path d="M18.7042 17.4999H17.604V18.3326H18.7042V17.4999Z" fill="#174516"/>
<path d="M17.6037 17.4999H16.5034V18.3326H17.6037V17.4999Z" fill="#2C8B2F"/>
<path d="M16.5036 17.4999H15.4033V18.3326H16.5036V17.4999Z" fill="#2C8B2F"/>
<path d="M15.4035 17.4999H14.3032V18.3326H15.4035V17.4999Z" fill="#1E8021"/>
<path d="M14.3034 17.4999H13.2031V18.3326H14.3034V17.4999Z" fill="#2C8B2F"/>
<path d="M13.2028 17.4999H12.1025V18.3326H13.2028V17.4999Z" fill="#2C8B2F"/>
<path d="M12.1027 17.4999H11.0024V18.3326H12.1027V17.4999Z" fill="#2C8B2F"/>
<path d="M11.0026 17.4999H9.90234V18.3326H11.0026V17.4999Z" fill="#1E8021"/>
<path d="M9.902 17.4999H8.80176V18.3326H9.902V17.4999Z" fill="#2C8B2F"/>
<path d="M8.8019 17.4999H7.70166V18.3326H8.8019V17.4999Z" fill="#20571F"/>
<path d="M7.7018 17.4999H6.60156V18.3326H7.7018V17.4999Z" fill="#20571F"/>
<path d="M6.60122 17.4999H5.50098V18.3326H6.60122V17.4999Z" fill="#20571F"/>
<path d="M5.50112 17.4999H4.40088V18.3326H5.50112V17.4999Z" fill="#20571F"/>
<path d="M4.40102 17.4999H3.30078V18.3326H4.40102V17.4999Z" fill="#20571F"/>
<path d="M28.6061 16.6673H27.5059V17.4999H28.6061V16.6673Z" fill="#2C8B2F"/>
<path d="M27.506 16.6673H26.4058V17.4999H27.506V16.6673Z" fill="#2C8B2F"/>
<path d="M26.4059 16.6673H25.3057V17.4999H26.4059V16.6673Z" fill="#2C8B2F"/>
<path d="M25.3058 16.6673H24.2056V17.4999H25.3058V16.6673Z" fill="#255125"/>
<path d="M24.2052 16.6673H23.105V17.4999H24.2052V16.6673Z" fill="#143214"/>
<path d="M23.1051 16.6673H22.0049V17.4999H23.1051V16.6673Z" fill="#174516"/>
<path d="M22.005 16.6673H20.9048V17.4999H22.005V16.6673Z" fill="#174516"/>
<path d="M20.9044 16.6673H19.8042V17.4999H20.9044V16.6673Z" fill="#174516"/>
<path d="M19.8043 16.6673H18.7041V17.4999H19.8043V16.6673Z" fill="#0D350C"/>
<path d="M18.7042 16.6673H17.604V17.4999H18.7042V16.6673Z" fill="#174516"/>
<path d="M17.6037 16.6673H16.5034V17.4999H17.6037V16.6673Z" fill="#2C8B2F"/>
<path d="M16.5036 16.6673H15.4033V17.4999H16.5036V16.6673Z" fill="#2C8B2F"/>
<path d="M15.4035 16.6673H14.3032V17.4999H15.4035V16.6673Z" fill="#2C8B2F"/>
<path d="M14.3034 16.6673H13.2031V17.4999H14.3034V16.6673Z" fill="#1E8021"/>
<path d="M13.2028 16.6673H12.1025V17.4999H13.2028V16.6673Z" fill="#2C8B2F"/>
<path d="M12.1027 16.6673H11.0024V17.4999H12.1027V16.6673Z" fill="#2C8B2F"/>
<path d="M11.0026 16.6673H9.90234V17.4999H11.0026V16.6673Z" fill="#2C8B2F"/>
<path d="M9.902 16.6673H8.80176V17.4999H9.902V16.6673Z" fill="#2C8B2F"/>
<path d="M8.8019 16.6673H7.70166V17.4999H8.8019V16.6673Z" fill="#20571F"/>
<path d="M7.7018 16.6673H6.60156V17.4999H7.7018V16.6673Z" fill="#20571F"/>
<path d="M6.60122 16.6673H5.50098V17.4999H6.60122V16.6673Z" fill="#20571F"/>
<path d="M5.50112 16.6673H4.40088V17.4999H5.50112V16.6673Z" fill="#20571F"/>
<path d="M4.40102 16.6673H3.30078V17.4999H4.40102V16.6673Z" fill="#174516"/>
<path d="M28.6061 15.8327H27.5059V16.6654H28.6061V15.8327Z" fill="#2C8B2F"/>
<path d="M27.506 15.8327H26.4058V16.6654H27.506V15.8327Z" fill="#2C8B2F"/>
<path d="M26.4059 15.8327H25.3057V16.6654H26.4059V15.8327Z" fill="#1E8021"/>
<path d="M25.3058 15.8327H24.2056V16.6654H25.3058V15.8327Z" fill="#255125"/>
<path d="M24.2052 15.8327H23.105V16.6654H24.2052V15.8327Z" fill="#143214"/>
<path d="M23.1051 15.8327H22.0049V16.6654H23.1051V15.8327Z" fill="#174516"/>
<path d="M22.005 15.8327H20.9048V16.6654H22.005V15.8327Z" fill="#174516"/>
<path d="M20.9044 15.8327H19.8042V16.6654H20.9044V15.8327Z" fill="#174516"/>
<path d="M19.8043 15.8327H18.7041V16.6654H19.8043V15.8327Z" fill="#174516"/>
<path d="M18.7042 15.8327H17.604V16.6654H18.7042V15.8327Z" fill="#0D350C"/>
<path d="M17.6037 15.8327H16.5034V16.6654H17.6037V15.8327Z" fill="#1E8021"/>
<path d="M16.5036 15.8327H15.4033V16.6654H16.5036V15.8327Z" fill="#2C8B2F"/>
<path d="M15.4035 15.8327H14.3032V16.6654H15.4035V15.8327Z" fill="#2C8B2F"/>
<path d="M14.3034 15.8327H13.2031V16.6654H14.3034V15.8327Z" fill="#2C8B2F"/>
<path d="M13.2028 15.8327H12.1025V16.6654H13.2028V15.8327Z" fill="#2C8B2F"/>
<path d="M12.1027 15.8327H11.0024V16.6654H12.1027V15.8327Z" fill="#1E8021"/>
<path d="M11.0026 15.8327H9.90234V16.6654H11.0026V15.8327Z" fill="#2C8B2F"/>
<path d="M9.902 15.8327H8.80176V16.6654H9.902V15.8327Z" fill="#2C8B2F"/>
<path d="M8.8019 15.8327H7.70166V16.6654H8.8019V15.8327Z" fill="#20571F"/>
<path d="M7.7018 15.8327H6.60156V16.6654H7.7018V15.8327Z" fill="#20571F"/>
<path d="M6.60122 15.8327H5.50098V16.6654H6.60122V15.8327Z" fill="#20571F"/>
<path d="M5.50112 15.8327H4.40088V16.6654H5.50112V15.8327Z" fill="#20571F"/>
<path d="M4.40102 15.8327H3.30078V16.6654H4.40102V15.8327Z" fill="#20571F"/>
<path d="M28.6061 15H27.5059V15.8327H28.6061V15Z" fill="#2C8B2F"/>
<path d="M27.506 15H26.4058V15.8327H27.506V15Z" fill="#2C8B2F"/>
<path d="M26.4059 15H25.3057V15.8327H26.4059V15Z" fill="#2C8B2F"/>
<path d="M25.3058 15H24.2056V15.8327H25.3058V15Z" fill="#255125"/>
<path d="M24.2052 15H23.105V15.8327H24.2052V15Z" fill="#143214"/>
<path d="M23.1051 15H22.0049V15.8327H23.1051V15Z" fill="#0D350C"/>
<path d="M22.005 15H20.9048V15.8327H22.005V15Z" fill="#174516"/>
<path d="M20.9044 15H19.8042V15.8327H20.9044V15Z" fill="#174516"/>
<path d="M19.8043 15H18.7041V15.8327H19.8043V15Z" fill="#174516"/>
<path d="M18.7042 15H17.604V15.8327H18.7042V15Z" fill="#174516"/>
<path d="M17.6037 15H16.5034V15.8327H17.6037V15Z" fill="#2C8B2F"/>
<path d="M16.5036 15H15.4033V15.8327H16.5036V15Z" fill="#2C8B2F"/>
<path d="M15.4035 15H14.3032V15.8327H15.4035V15Z" fill="#1E8021"/>
<path d="M14.3034 15H13.2031V15.8327H14.3034V15Z" fill="#2C8B2F"/>
<path d="M13.2028 15H12.1025V15.8327H13.2028V15Z" fill="#2C8B2F"/>
<path d="M12.1027 15H11.0024V15.8327H12.1027V15Z" fill="#2C8B2F"/>
<path d="M11.0026 15H9.90234V15.8327H11.0026V15Z" fill="#1E8021"/>
<path d="M9.902 15H8.80176V15.8327H9.902V15Z" fill="#2C8B2F"/>
<path d="M8.8019 15H7.70166V15.8327H8.8019V15Z" fill="#20571F"/>
<path d="M7.7018 15H6.60156V15.8327H7.7018V15Z" fill="#20571F"/>
<path d="M6.60122 15H5.50098V15.8327H6.60122V15Z" fill="#20571F"/>
<path d="M5.50112 15H4.40088V15.8327H5.50112V15Z" fill="#20571F"/>
<path d="M4.40102 15H3.30078V15.8327H4.40102V15Z" fill="#20571F"/>
<path d="M28.6061 14.1674H27.5059V15H28.6061V14.1674Z" fill="#2C8B2F"/>
<path d="M27.506 14.1674H26.4058V15H27.506V14.1674Z" fill="#1E8021"/>
<path d="M26.4059 14.1674H25.3057V15H26.4059V14.1674Z" fill="#2C8B2F"/>
<path d="M25.3058 14.1674H24.2056V15H25.3058V14.1674Z" fill="#255125"/>
<path d="M24.2052 14.1674H23.105V15H24.2052V14.1674Z" fill="#143214"/>
<path d="M23.1051 14.1674H22.0049V15H23.1051V14.1674Z" fill="#174516"/>
<path d="M22.005 14.1674H20.9048V15H22.005V14.1674Z" fill="#174516"/>
<path d="M20.9044 14.1674H19.8042V15H20.9044V14.1674Z" fill="#0D350C"/>
<path d="M19.8043 14.1674H18.7041V15H19.8043V14.1674Z" fill="#174516"/>
<path d="M18.7042 14.1674H17.604V15H18.7042V14.1674Z" fill="#174516"/>
<path d="M17.6037 14.1674H16.5034V15H17.6037V14.1674Z" fill="#2C8B2F"/>
<path d="M16.5036 14.1674H15.4033V15H16.5036V14.1674Z" fill="#2C8B2F"/>
<path d="M15.4035 14.1674H14.3032V15H15.4035V14.1674Z" fill="#2C8B2F"/>
<path d="M14.3034 14.1674H13.2031V15H14.3034V14.1674Z" fill="#2C8B2F"/>
<path d="M13.2028 14.1674H12.1025V15H13.2028V14.1674Z" fill="#1E8021"/>
<path d="M12.1027 14.1674H11.0024V15H12.1027V14.1674Z" fill="#2C8B2F"/>
<path d="M11.0026 14.1674H9.90234V15H11.0026V14.1674Z" fill="#2C8B2F"/>
<path d="M9.902 14.1674H8.80176V15H9.902V14.1674Z" fill="#2C8B2F"/>
<path d="M8.8019 14.1674H7.70166V15H8.8019V14.1674Z" fill="#20571F"/>
<path d="M7.7018 14.1674H6.60156V15H7.7018V14.1674Z" fill="#174516"/>
<path d="M6.60122 14.1674H5.50098V15H6.60122V14.1674Z" fill="#20571F"/>
<path d="M5.50112 14.1674H4.40088V15H5.50112V14.1674Z" fill="#174516"/>
<path d="M4.40102 14.1674H3.30078V15H4.40102V14.1674Z" fill="#20571F"/>
<path d="M28.6061 13.3326H27.5059V14.1653H28.6061V13.3326Z" fill="#2C8B2F"/>
<path d="M27.506 13.3326H26.4058V14.1653H27.506V13.3326Z" fill="#2C8B2F"/>
<path d="M26.4059 13.3326H25.3057V14.1653H26.4059V13.3326Z" fill="#2C8B2F"/>
<path d="M25.3058 13.3326H24.2056V14.1653H25.3058V13.3326Z" fill="#255125"/>
<path d="M24.2052 13.3326H23.105V14.1653H24.2052V13.3326Z" fill="#143214"/>
<path d="M23.1051 13.3326H22.0049V14.1653H23.1051V13.3326Z" fill="#174516"/>
<path d="M22.005 13.3326H20.9048V14.1653H22.005V13.3326Z" fill="#174516"/>
<path d="M20.9044 13.3326H19.8042V14.1653H20.9044V13.3326Z" fill="#174516"/>
<path d="M19.8043 13.3326H18.7041V14.1653H19.8043V13.3326Z" fill="#174516"/>
<path d="M18.7042 13.3326H17.604V14.1653H18.7042V13.3326Z" fill="#174516"/>
<path d="M17.6037 13.3326H16.5034V14.1653H17.6037V13.3326Z" fill="#2C8B2F"/>
<path d="M16.5036 13.3326H15.4033V14.1653H16.5036V13.3326Z" fill="#1E8021"/>
<path d="M15.4035 13.3326H14.3032V14.1653H15.4035V13.3326Z" fill="#2C8B2F"/>
<path d="M14.3034 13.3326H13.2031V14.1653H14.3034V13.3326Z" fill="#2C8B2F"/>
<path d="M13.2028 13.3326H12.1025V14.1653H13.2028V13.3326Z" fill="#2C8B2F"/>
<path d="M12.1027 13.3326H11.0024V14.1653H12.1027V13.3326Z" fill="#1E8021"/>
<path d="M11.0026 13.3326H9.90234V14.1653H11.0026V13.3326Z" fill="#2C8B2F"/>
<path d="M9.902 13.3326H8.80176V14.1653H9.902V13.3326Z" fill="#2C8B2F"/>
<path d="M8.8019 13.3326H7.70166V14.1653H8.8019V13.3326Z" fill="#20571F"/>
<path d="M7.7018 13.3326H6.60156V14.1653H7.7018V13.3326Z" fill="#20571F"/>
<path d="M6.60122 13.3326H5.50098V14.1653H6.60122V13.3326Z" fill="#174516"/>
<path d="M5.50112 13.3326H4.40088V14.1653H5.50112V13.3326Z" fill="#20571F"/>
<path d="M4.40102 13.3326H3.30078V14.1653H4.40102V13.3326Z" fill="#20571F"/>
<path d="M28.6061 12.5H27.5059V13.3327H28.6061V12.5Z" fill="#2C8B2F"/>
<path d="M27.506 12.5H26.4058V13.3327H27.506V12.5Z" fill="#2C8B2F"/>
<path d="M26.4059 12.5H25.3057V13.3327H26.4059V12.5Z" fill="#2C8B2F"/>
<path d="M25.3058 12.5H24.2056V13.3327H25.3058V12.5Z" fill="#255125"/>
<path d="M24.2052 12.5H23.105V13.3327H24.2052V12.5Z" fill="#0C2F0B"/>
<path d="M23.1051 12.5H22.0049V13.3327H23.1051V12.5Z" fill="#0C2F0B"/>
<path d="M22.005 12.5H20.9048V13.3327H22.005V12.5Z" fill="#0C2F0B"/>
<path d="M20.9044 12.5H19.8042V13.3327H20.9044V12.5Z" fill="#0C2F0B"/>
<path d="M19.8043 12.5H18.7041V13.3327H19.8043V12.5Z" fill="#0C2F0B"/>
<path d="M18.7042 12.5H17.604V13.3327H18.7042V12.5Z" fill="#0C2F0B"/>
<path d="M17.6037 12.5H16.5034V13.3327H17.6037V12.5Z" fill="#2C8B2F"/>
<path d="M16.5036 12.5H15.4033V13.3327H16.5036V12.5Z" fill="#2C8B2F"/>
<path d="M15.4035 12.5H14.3032V13.3327H15.4035V12.5Z" fill="#1E8021"/>
<path d="M14.3034 12.5H13.2031V13.3327H14.3034V12.5Z" fill="#2C8B2F"/>
<path d="M13.2028 12.5H12.1025V13.3327H13.2028V12.5Z" fill="#2C8B2F"/>
<path d="M12.1027 12.5H11.0024V13.3327H12.1027V12.5Z" fill="#2C8B2F"/>
<path d="M11.0026 12.5H9.90234V13.3327H11.0026V12.5Z" fill="#2C8B2F"/>
<path d="M9.902 12.5H8.80176V13.3327H9.902V12.5Z" fill="#1E8021"/>
<path d="M8.8019 12.5H7.70166V13.3327H8.8019V12.5Z" fill="#20571F"/>
<path d="M7.7018 12.5H6.60156V13.3327H7.7018V12.5Z" fill="#20571F"/>
<path d="M6.60122 12.5H5.50098V13.3327H6.60122V12.5Z" fill="#20571F"/>
<path d="M5.50112 12.5H4.40088V13.3327H5.50112V12.5Z" fill="#174516"/>
<path d="M4.40102 12.5H3.30078V13.3327H4.40102V12.5Z" fill="#20571F"/>
<path d="M28.6061 11.6673H27.5059V12.5H28.6061V11.6673Z" fill="#1E8021"/>
<path d="M27.506 11.6673H26.4058V12.5H27.506V11.6673Z" fill="#2C8B2F"/>
<path d="M26.4059 11.6673H25.3057V12.5H26.4059V11.6673Z" fill="#2C8B2F"/>
<path d="M25.3058 11.6673H24.2056V12.5H25.3058V11.6673Z" fill="#2C8B2F"/>
<path d="M24.2052 11.6673H23.105V12.5H24.2052V11.6673Z" fill="#2C8B2F"/>
<path d="M23.1051 11.6673H22.0049V12.5H23.1051V11.6673Z" fill="#1E8021"/>
<path d="M22.005 11.6673H20.9048V12.5H22.005V11.6673Z" fill="#2C8B2F"/>
<path d="M20.9044 11.6673H19.8042V12.5H20.9044V11.6673Z" fill="#2C8B2F"/>
<path d="M19.8043 11.6673H18.7041V12.5H19.8043V11.6673Z" fill="#2C8B2F"/>
<path d="M18.7042 11.6673H17.604V12.5H18.7042V11.6673Z" fill="#2C8B2F"/>
<path d="M17.6037 11.6673H16.5034V12.5H17.6037V11.6673Z" fill="#1E8021"/>
<path d="M16.5036 11.6673H15.4033V12.5H16.5036V11.6673Z" fill="#2C8B2F"/>
<path d="M15.4035 11.6673H14.3032V12.5H15.4035V11.6673Z" fill="#2C8B2F"/>
<path d="M14.3034 11.6673H13.2031V12.5H14.3034V11.6673Z" fill="#2C8B2F"/>
<path d="M13.2028 11.6673H12.1025V12.5H13.2028V11.6673Z" fill="#2C8B2F"/>
<path d="M12.1027 11.6673H11.0024V12.5H12.1027V11.6673Z" fill="#2C8B2F"/>
<path d="M11.0026 11.6673H9.90234V12.5H11.0026V11.6673Z" fill="#1E8021"/>
<path d="M9.902 11.6673H8.80176V12.5H9.902V11.6673Z" fill="#2C8B2F"/>
<path d="M8.8019 11.6673H7.70166V12.5H8.8019V11.6673Z" fill="#20571F"/>
<path d="M7.7018 11.6673H6.60156V12.5H7.7018V11.6673Z" fill="#174516"/>
<path d="M6.60122 11.6673H5.50098V12.5H6.60122V11.6673Z" fill="#20571F"/>
<path d="M5.50112 11.6673H4.40088V12.5H5.50112V11.6673Z" fill="#20571F"/>
<path d="M4.40102 11.6673H3.30078V12.5H4.40102V11.6673Z" fill="#174516"/>
<path d="M28.6061 10.8326H27.5059V11.6653H28.6061V10.8326Z" fill="#2C8B2F"/>
<path d="M27.506 10.8326H26.4058V11.6653H27.506V10.8326Z" fill="#2C8B2F"/>
<path d="M26.4059 10.8326H25.3057V11.6653H26.4059V10.8326Z" fill="#1E8021"/>
<path d="M25.3058 10.8326H24.2056V11.6653H25.3058V10.8326Z" fill="#2C8B2F"/>
<path d="M24.2052 10.8326H23.105V11.6653H24.2052V10.8326Z" fill="#2C8B2F"/>
<path d="M23.1051 10.8326H22.0049V11.6653H23.1051V10.8326Z" fill="#2C8B2F"/>
<path d="M22.005 10.8326H20.9048V11.6653H22.005V10.8326Z" fill="#1E8021"/>
<path d="M20.9044 10.8326H19.8042V11.6653H20.9044V10.8326Z" fill="#2C8B2F"/>
<path d="M19.8043 10.8326H18.7041V11.6653H19.8043V10.8326Z" fill="#1E8021"/>
<path d="M18.7042 10.8326H17.604V11.6653H18.7042V10.8326Z" fill="#2C8B2F"/>
<path d="M17.6037 10.8326H16.5034V11.6653H17.6037V10.8326Z" fill="#2C8B2F"/>
<path d="M16.5036 10.8326H15.4033V11.6653H16.5036V10.8326Z" fill="#2C8B2F"/>
<path d="M15.4035 10.8326H14.3032V11.6653H15.4035V10.8326Z" fill="#1E8021"/>
<path d="M14.3034 10.8326H13.2031V11.6653H14.3034V10.8326Z" fill="#2C8B2F"/>
<path d="M13.2028 10.8326H12.1025V11.6653H13.2028V10.8326Z" fill="#1E8021"/>
<path d="M12.1027 10.8326H11.0024V11.6653H12.1027V10.8326Z" fill="#2C8B2F"/>
<path d="M11.0026 10.8326H9.90234V11.6653H11.0026V10.8326Z" fill="#2C8B2F"/>
<path d="M9.902 10.8326H8.80176V11.6653H9.902V10.8326Z" fill="#2C8B2F"/>
<path d="M8.8019 10.8326H7.70166V11.6653H8.8019V10.8326Z" fill="#20571F"/>
<path d="M7.7018 10.8326H6.60156V11.6653H7.7018V10.8326Z" fill="#20571F"/>
<path d="M6.60122 10.8326H5.50098V11.6653H6.60122V10.8326Z" fill="#174516"/>
<path d="M5.50112 10.8326H4.40088V11.6653H5.50112V10.8326Z" fill="#20571F"/>
<path d="M4.40102 10.8326H3.30078V11.6653H4.40102V10.8326Z" fill="#20571F"/>
<path d="M28.6061 9.99997H27.5059V10.8326H28.6061V9.99997Z" fill="#2C8B2F"/>
<path d="M27.506 9.99997H26.4058V10.8326H27.506V9.99997Z" fill="#2C8B2F"/>
<path d="M26.4059 9.99997H25.3057V10.8326H26.4059V9.99997Z" fill="#2C8B2F"/>
<path d="M25.3058 9.99997H24.2056V10.8326H25.3058V9.99997Z" fill="#1E8021"/>
<path d="M24.2052 9.99997H23.105V10.8326H24.2052V9.99997Z" fill="#2C8B2F"/>
<path d="M23.1051 9.99997H22.0049V10.8326H23.1051V9.99997Z" fill="#2C8B2F"/>
<path d="M22.005 9.99997H20.9048V10.8326H22.005V9.99997Z" fill="#2C8B2F"/>
<path d="M20.9044 9.99997H19.8042V10.8326H20.9044V9.99997Z" fill="#2C8B2F"/>
<path d="M19.8043 9.99997H18.7041V10.8326H19.8043V9.99997Z" fill="#2C8B2F"/>
<path d="M18.7042 9.99997H17.604V10.8326H18.7042V9.99997Z" fill="#2C8B2F"/>
<path d="M17.6037 9.99997H16.5034V10.8326H17.6037V9.99997Z" fill="#2C8B2F"/>
<path d="M16.5036 9.99997H15.4033V10.8326H16.5036V9.99997Z" fill="#2C8B2F"/>
<path d="M15.4035 9.99997H14.3032V10.8326H15.4035V9.99997Z" fill="#2C8B2F"/>
<path d="M14.3034 9.99997H13.2031V10.8326H14.3034V9.99997Z" fill="#1E8021"/>
<path d="M13.2028 9.99997H12.1025V10.8326H13.2028V9.99997Z" fill="#2C8B2F"/>
<path d="M12.1027 9.99997H11.0024V10.8326H12.1027V9.99997Z" fill="#2C8B2F"/>
<path d="M11.0026 9.99997H9.90234V10.8326H11.0026V9.99997Z" fill="#2C8B2F"/>
<path d="M9.902 9.99997H8.80176V10.8326H9.902V9.99997Z" fill="#3C983F"/>
<path d="M3.30093 9.99997H2.20068V10.8326H3.30093V9.99997Z" fill="#0F3510"/>
<path d="M2.20034 9.99997H1.1001V10.8326H2.20034V9.99997Z" fill="#0F3510"/>
<path d="M31.9069 9.16733H30.8066V10H31.9069V9.16733Z" fill="#0F3510"/>
<path d="M27.506 9.16733H26.4058V10H27.506V9.16733Z" fill="#3F8F41"/>
<path d="M26.4059 9.16733H25.3057V10H26.4059V9.16733Z" fill="#2C8B2F"/>
<path d="M25.3058 9.16733H24.2056V10H25.3058V9.16733Z" fill="#2C8B2F"/>
<path d="M24.2052 9.16733H23.105V10H24.2052V9.16733Z" fill="#2C8B2F"/>
<path d="M23.1051 9.16733H22.0049V10H23.1051V9.16733Z" fill="#2C8B2F"/>
<path d="M22.005 9.16733H20.9048V10H22.005V9.16733Z" fill="#2C8B2F"/>
<path d="M20.9044 9.16733H19.8042V10H20.9044V9.16733Z" fill="#2C8B2F"/>
<path d="M19.8043 9.16733H18.7041V10H19.8043V9.16733Z" fill="#2C8B2F"/>
<path d="M18.7042 9.16733H17.604V10H18.7042V9.16733Z" fill="#2C8B2F"/>
<path d="M17.6037 9.16733H16.5034V10H17.6037V9.16733Z" fill="#1E8021"/>
<path d="M16.5036 9.16733H15.4033V10H16.5036V9.16733Z" fill="#2C8B2F"/>
<path d="M15.4035 9.16733H14.3032V10H15.4035V9.16733Z" fill="#2C8B2F"/>
<path d="M14.3034 9.16733H13.2031V10H14.3034V9.16733Z" fill="#2C8B2F"/>
<path d="M13.2028 9.16733H12.1025V10H13.2028V9.16733Z" fill="#2C8B2F"/>
<path d="M12.1027 9.16733H11.0024V10H12.1027V9.16733Z" fill="#2C8B2F"/>
<path d="M11.0026 9.16733H9.90234V10H11.0026V9.16733Z" fill="#2C8B2F"/>
<path d="M6.60122 9.16733H5.50098V10H6.60122V9.16733Z" fill="#0F3510"/>
<path d="M5.50112 9.16733H4.40088V10H5.50112V9.16733Z" fill="#0F3510"/>
<path d="M4.40102 9.16733H3.30078V10H4.40102V9.16733Z" fill="#0F3510"/>
<path d="M3.30093 9.16733H2.20068V10H3.30093V9.16733Z" fill="#0F3510"/>
<path d="M2.20034 9.16733H1.1001V10H2.20034V9.16733Z" fill="#0F3510"/>
<path d="M1.10024 9.16733H0V10H1.10024V9.16733Z" fill="#0F3510"/>
<path d="M33.007 8.3327H31.9067V9.16538H33.007V8.3327Z" fill="#0F3510"/>
<path d="M31.9069 8.3327H30.8066V9.16538H31.9069V8.3327Z" fill="#0F3510"/>
<path d="M30.8068 8.3327H29.7065V9.16538H30.8068V8.3327Z" fill="#0F3510"/>
<path d="M26.4059 8.3327H25.3057V9.16538H26.4059V8.3327Z" fill="#2C8B2F"/>
<path d="M25.3058 8.3327H24.2056V9.16538H25.3058V8.3327Z" fill="#2C8B2F"/>
<path d="M24.2052 8.3327H23.105V9.16538H24.2052V8.3327Z" fill="#2C8B2F"/>
<path d="M23.1051 8.3327H22.0049V9.16538H23.1051V8.3327Z" fill="#2C8B2F"/>
<path d="M22.005 8.3327H20.9048V9.16538H22.005V8.3327Z" fill="#2C8B2F"/>
<path d="M20.9044 8.3327H19.8042V9.16538H20.9044V8.3327Z" fill="#2C8B2F"/>
<path d="M19.8043 8.3327H18.7041V9.16538H19.8043V8.3327Z" fill="#1E8021"/>
<path d="M18.7042 8.3327H17.604V9.16538H18.7042V8.3327Z" fill="#2C8B2F"/>
<path d="M17.6037 8.3327H16.5034V9.16538H17.6037V8.3327Z" fill="#2C8B2F"/>
<path d="M16.5036 8.3327H15.4033V9.16538H16.5036V8.3327Z" fill="#1E8021"/>
<path d="M15.4035 8.3327H14.3032V9.16538H15.4035V8.3327Z" fill="#2C8B2F"/>
<path d="M14.3034 8.3327H13.2031V9.16538H14.3034V8.3327Z" fill="#2C8B2F"/>
<path d="M13.2028 8.3327H12.1025V9.16538H13.2028V8.3327Z" fill="#2C8B2F"/>
<path d="M8.8019 8.3327H7.70166V9.16538H8.8019V8.3327Z" fill="#165719"/>
<path d="M7.7018 8.3327H6.60156V9.16538H7.7018V8.3327Z" fill="#0F3510"/>
<path d="M6.60122 8.3327H5.50098V9.16538H6.60122V8.3327Z" fill="#0F3510"/>
<path d="M5.50112 8.3327H4.40088V9.16538H5.50112V8.3327Z" fill="#0F3510"/>
<path d="M4.40102 8.3327H3.30078V9.16538H4.40102V8.3327Z" fill="#0F3510"/>
<path d="M3.30093 8.3327H2.20068V9.16538H3.30093V8.3327Z" fill="#0F3510"/>
<path d="M2.20034 8.3327H1.1001V9.16538H2.20034V8.3327Z" fill="#1F5020"/>
<path d="M1.10024 8.3327H0V9.16538H1.10024V8.3327Z" fill="#346D35"/>
<path d="M31.9069 7.49997H30.8066V8.33265H31.9069V7.49997Z" fill="#0F3510"/>
<path d="M30.8068 7.49997H29.7065V8.33265H30.8068V7.49997Z" fill="#0F3510"/>
<path d="M29.7067 7.49997H28.6064V8.33265H29.7067V7.49997Z" fill="#0F3510"/>
<path d="M24.2052 7.49997H23.105V8.33265H24.2052V7.49997Z" fill="#2C8B2F"/>
<path d="M23.1051 7.49997H22.0049V8.33265H23.1051V7.49997Z" fill="#2C8B2F"/>
<path d="M22.005 7.49997H20.9048V8.33265H22.005V7.49997Z" fill="#1E8021"/>
<path d="M20.9044 7.49997H19.8042V8.33265H20.9044V7.49997Z" fill="#2C8B2F"/>
<path d="M19.8043 7.49997H18.7041V8.33265H19.8043V7.49997Z" fill="#2C8B2F"/>
<path d="M18.7042 7.49997H17.604V8.33265H18.7042V7.49997Z" fill="#1E8021"/>
<path d="M17.6037 7.49997H16.5034V8.33265H17.6037V7.49997Z" fill="#2C8B2F"/>
<path d="M16.5036 7.49997H15.4033V8.33265H16.5036V7.49997Z" fill="#2C8B2F"/>
<path d="M15.4035 7.49997H14.3032V8.33265H15.4035V7.49997Z" fill="#2C8B2F"/>
<path d="M14.3034 7.49997H13.2031V8.33265H14.3034V7.49997Z" fill="#2C8B2F"/>
<path d="M9.902 7.49997H8.80176V8.33265H9.902V7.49997Z" fill="#0F3510"/>
<path d="M8.8019 7.49997H7.70166V8.33265H8.8019V7.49997Z" fill="#0F3510"/>
<path d="M7.7018 7.49997H6.60156V8.33265H7.7018V7.49997Z" fill="#0F3510"/>
<path d="M6.60122 7.49997H5.50098V8.33265H6.60122V7.49997Z" fill="#0F3510"/>
<path d="M5.50112 7.49997H4.40088V8.33265H5.50112V7.49997Z" fill="#176319"/>
<path d="M4.40102 7.49997H3.30078V8.33265H4.40102V7.49997Z" fill="#176319"/>
<path d="M3.30093 7.49997H2.20068V8.33265H3.30093V7.49997Z" fill="#176319"/>
<path d="M2.20034 7.49997H1.1001V8.33265H2.20034V7.49997Z" fill="#316D32"/>
<path d="M30.8068 6.6673H29.7065V7.49997H30.8068V6.6673Z" fill="#0F3510"/>
<path d="M29.7067 6.6673H28.6064V7.49997H29.7067V6.6673Z" fill="#0F3510"/>
<path d="M28.6061 6.6673H27.5059V7.49997H28.6061V6.6673Z" fill="#0F3510"/>
<path d="M27.506 6.6673H26.4058V7.49997H27.506V6.6673Z" fill="#0F3510"/>
<path d="M23.1051 6.6673H22.0049V7.49997H23.1051V6.6673Z" fill="#2C8B2F"/>
<path d="M22.005 6.6673H20.9048V7.49997H22.005V6.6673Z" fill="#2C8B2F"/>
<path d="M20.9044 6.6673H19.8042V7.49997H20.9044V6.6673Z" fill="#1E8021"/>
<path d="M19.8043 6.6673H18.7041V7.49997H19.8043V6.6673Z" fill="#2C8B2F"/>
<path d="M18.7042 6.6673H17.604V7.49997H18.7042V6.6673Z" fill="#2C8B2F"/>
<path d="M17.6037 6.6673H16.5034V7.49997H17.6037V6.6673Z" fill="#2C8B2F"/>
<path d="M16.5036 6.6673H15.4033V7.49997H16.5036V6.6673Z" fill="#2C8B2F"/>
<path d="M15.4035 6.6673H14.3032V7.49997H15.4035V6.6673Z" fill="#2C8B2F"/>
<path d="M11.0026 6.6673H9.90234V7.49997H11.0026V6.6673Z" fill="#0F3510"/>
<path d="M9.902 6.6673H8.80176V7.49997H9.902V6.6673Z" fill="#0F3510"/>
<path d="M8.8019 6.6673H7.70166V7.49997H8.8019V6.6673Z" fill="#0F3510"/>
<path d="M7.7018 6.6673H6.60156V7.49997H7.7018V6.6673Z" fill="#0C560E"/>
<path d="M6.60122 6.6673H5.50098V7.49997H6.60122V6.6673Z" fill="#176319"/>
<path d="M5.50112 6.6673H4.40088V7.49997H5.50112V6.6673Z" fill="#176319"/>
<path d="M4.40102 6.6673H3.30078V7.49997H4.40102V6.6673Z" fill="#176319"/>
<path d="M28.6061 5.8327H27.5059V6.66538H28.6061V5.8327Z" fill="#0F3510"/>
<path d="M27.506 5.8327H26.4058V6.66538H27.506V5.8327Z" fill="#0F3510"/>
<path d="M26.4059 5.8327H25.3057V6.66538H26.4059V5.8327Z" fill="#0F3510"/>
<path d="M22.005 5.8327H20.9048V6.66538H22.005V5.8327Z" fill="#2C8B2F"/>
<path d="M20.9044 5.8327H19.8042V6.66538H20.9044V5.8327Z" fill="#2C8B2F"/>
<path d="M19.8043 5.8327H18.7041V6.66538H19.8043V5.8327Z" fill="#2C8B2F"/>
<path d="M18.7042 5.8327H17.604V6.66538H18.7042V5.8327Z" fill="#2C8B2F"/>
<path d="M17.6037 5.8327H16.5034V6.66538H17.6037V5.8327Z" fill="#2C8B2F"/>
<path d="M12.1027 5.8327H11.0024V6.66538H12.1027V5.8327Z" fill="#0F3510"/>
<path d="M11.0026 5.8327H9.90234V6.66538H11.0026V5.8327Z" fill="#0F3510"/>
<path d="M9.902 5.8327H8.80176V6.66538H9.902V5.8327Z" fill="#0F3510"/>
<path d="M8.8019 5.8327H7.70166V6.66538H8.8019V5.8327Z" fill="#176319"/>
<path d="M7.7018 5.8327H6.60156V6.66538H7.7018V5.8327Z" fill="#176319"/>
<path d="M6.60122 5.8327H5.50098V6.66538H6.60122V5.8327Z" fill="#176319"/>
<path d="M5.50112 5.8327H4.40088V6.66538H5.50112V5.8327Z" fill="#176319"/>
<path d="M27.506 5.00003H26.4058V5.83271H27.506V5.00003Z" fill="#0F3510"/>
<path d="M26.4059 5.00003H25.3057V5.83271H26.4059V5.00003Z" fill="#0F3510"/>
<path d="M25.3058 5.00003H24.2056V5.83271H25.3058V5.00003Z" fill="#0F3510"/>
<path d="M19.8043 5.00003H18.7041V5.83271H19.8043V5.00003Z" fill="#2C8B2F"/>
<path d="M18.7042 5.00003H17.604V5.83271H18.7042V5.00003Z" fill="#2C8B2F"/>
<path d="M14.3034 5.00003H13.2031V5.83271H14.3034V5.00003Z" fill="#0F3510"/>
<path d="M13.2028 5.00003H12.1025V5.83271H13.2028V5.00003Z" fill="#0F3510"/>
<path d="M12.1027 5.00003H11.0024V5.83271H12.1027V5.00003Z" fill="#0F3510"/>
<path d="M11.0026 5.00003H9.90234V5.83271H11.0026V5.00003Z" fill="#0F3510"/>
<path d="M9.902 5.00003H8.80176V5.83271H9.902V5.00003Z" fill="#176319"/>
<path d="M8.8019 5.00003H7.70166V5.83271H8.8019V5.00003Z" fill="#0F3510"/>
<path d="M7.7018 5.00003H6.60156V5.83271H7.7018V5.00003Z" fill="#0F3510"/>
<path d="M6.60122 5.00003H5.50098V5.83271H6.60122V5.00003Z" fill="#176319"/>
<path d="M26.4059 4.1673H25.3057V4.99997H26.4059V4.1673Z" fill="#0F3510"/>
<path d="M25.3058 4.1673H24.2056V4.99997H25.3058V4.1673Z" fill="#0F3510"/>
<path d="M24.2052 4.1673H23.105V4.99997H24.2052V4.1673Z" fill="#0F3510"/>
<path d="M23.1051 4.1673H22.0049V4.99997H23.1051V4.1673Z" fill="#1A4D1C"/>
<path d="M15.4035 4.1673H14.3032V4.99997H15.4035V4.1673Z" fill="#0F3510"/>
<path d="M14.3034 4.1673H13.2031V4.99997H14.3034V4.1673Z" fill="#0F3510"/>
<path d="M13.2028 4.1673H12.1025V4.99997H13.2028V4.1673Z" fill="#0F3510"/>
<path d="M12.1027 4.1673H11.0024V4.99997H12.1027V4.1673Z" fill="#154617"/>
<path d="M11.0026 4.1673H9.90234V4.99997H11.0026V4.1673Z" fill="#176319"/>
<path d="M9.902 4.1673H8.80176V4.99997H9.902V4.1673Z" fill="#0F3510"/>
<path d="M8.8019 4.1673H7.70166V4.99997H8.8019V4.1673Z" fill="#0F3510"/>
<path d="M7.7018 4.1673H6.60156V4.99997H7.7018V4.1673Z" fill="#0F3510"/>
<path d="M6.60122 4.1673H5.50098V4.99997H6.60122V4.1673Z" fill="#176319"/>
<path d="M25.3058 3.33267H24.2056V4.16535H25.3058V3.33267Z" fill="#0F3510"/>
<path d="M24.2052 3.33267H23.105V4.16535H24.2052V3.33267Z" fill="#0F3510"/>
<path d="M23.1051 3.33267H22.0049V4.16535H23.1051V3.33267Z" fill="#0F3510"/>
<path d="M22.005 3.33267H20.9048V4.16535H22.005V3.33267Z" fill="#0F3510"/>
<path d="M16.5036 3.33267H15.4033V4.16535H16.5036V3.33267Z" fill="#0F3510"/>
<path d="M15.4035 3.33267H14.3032V4.16535H15.4035V3.33267Z" fill="#0F3510"/>
<path d="M14.3034 3.33267H13.2031V4.16535H14.3034V3.33267Z" fill="#0F3510"/>
<path d="M13.2028 3.33267H12.1025V4.16535H13.2028V3.33267Z" fill="#1A541B"/>
<path d="M12.1027 3.33267H11.0024V4.16535H12.1027V3.33267Z" fill="#176319"/>
<path d="M11.0026 3.33267H9.90234V4.16535H11.0026V3.33267Z" fill="#176319"/>
<path d="M9.902 3.33267H8.80176V4.16535H9.902V3.33267Z" fill="#0F3510"/>
<path d="M8.8019 3.33267H7.70166V4.16535H8.8019V3.33267Z" fill="#0B4D0C"/>
<path d="M7.7018 3.33267H6.60156V4.16535H7.7018V3.33267Z" fill="#0F3510"/>
<path d="M6.60122 3.33267H5.50098V4.16535H6.60122V3.33267Z" fill="#176319"/>
<path d="M23.1051 2.5H22.0049V3.33268H23.1051V2.5Z" fill="#0F3510"/>
<path d="M22.005 2.5H20.9048V3.33268H22.005V2.5Z" fill="#0F3510"/>
<path d="M20.9044 2.5H19.8042V3.33268H20.9044V2.5Z" fill="#0F3510"/>
<path d="M18.7042 2.5H17.604V3.33268H18.7042V2.5Z" fill="#1A4D1C"/>
<path d="M17.6037 2.5H16.5034V3.33268H17.6037V2.5Z" fill="#0F3510"/>
<path d="M16.5036 2.5H15.4033V3.33268H16.5036V2.5Z" fill="#0F3510"/>
<path d="M15.4035 2.5H14.3032V3.33268H15.4035V2.5Z" fill="#0F3510"/>
<path d="M14.3034 2.5H13.2031V3.33268H14.3034V2.5Z" fill="#176319"/>
<path d="M13.2028 2.5H12.1025V3.33268H13.2028V2.5Z" fill="#176319"/>
<path d="M12.1027 2.5H11.0024V3.33268H12.1027V2.5Z" fill="#176319"/>
<path d="M11.0026 2.5H9.90234V3.33268H11.0026V2.5Z" fill="#176319"/>
<path d="M9.902 2.5H8.80176V3.33268H9.902V2.5Z" fill="#0B4D0C"/>
<path d="M8.8019 2.5H7.70166V3.33268H8.8019V2.5Z" fill="#0F3510"/>
<path d="M7.7018 2.5H6.60156V3.33268H7.7018V2.5Z" fill="#0F3510"/>
<path d="M6.60122 2.5H5.50098V3.33268H6.60122V2.5Z" fill="#176319"/>
<path d="M6.60122 1.66736H5.50098V2.50004H6.60122V1.66736Z" fill="#176319"/>
<path d="M6.60122 0.832672H5.50098V1.66535H6.60122V0.832672Z" fill="#176319"/>
<path d="M22.005 1.66736H20.9048V2.50004H22.005V1.66736Z" fill="#0F3510"/>
<path d="M20.9044 1.66736H19.8042V2.50004H20.9044V1.66736Z" fill="#0F3510"/>
<path d="M19.8043 1.66736H18.7041V2.50004H19.8043V1.66736Z" fill="#0F3510"/>
<path d="M18.7042 1.66736H17.604V2.50004H18.7042V1.66736Z" fill="#0F3510"/>
<path d="M17.6037 1.66736H16.5034V2.50004H17.6037V1.66736Z" fill="#0F3510"/>
<path d="M16.5036 1.66736H15.4033V2.50004H16.5036V1.66736Z" fill="#0F3510"/>
<path d="M15.4035 1.66736H14.3032V2.50004H15.4035V1.66736Z" fill="#176319"/>
<path d="M14.3034 1.66736H13.2031V2.50004H14.3034V1.66736Z" fill="#176319"/>
<path d="M13.2028 1.66736H12.1025V2.50004H13.2028V1.66736Z" fill="#176319"/>
<path d="M12.1027 1.66736H11.0024V2.50004H12.1027V1.66736Z" fill="#176319"/>
<path d="M9.902 1.66736H8.80176V2.50004H9.902V1.66736Z" fill="#0F3510"/>
<path d="M8.8019 1.66736H7.70166V2.50004H8.8019V1.66736Z" fill="#0F3510"/>
<path d="M7.7018 1.66736H6.60156V2.50004H7.7018V1.66736Z" fill="#0F3510"/>
<path d="M9.902 0.832672H8.80176V1.66535H9.902V0.832672Z" fill="#0F3510"/>
<path d="M8.8019 0.832672H7.70166V1.66535H8.8019V0.832672Z" fill="#0F3510"/>
<path d="M7.7018 0.832672H6.60156V1.66535H7.7018V0.832672Z" fill="#0F3510"/>
<path d="M20.9044 0.832672H19.8042V1.66535H20.9044V0.832672Z" fill="#0F3510"/>
<path d="M19.8043 0.832672H18.7041V1.66535H19.8043V0.832672Z" fill="#0F3510"/>
<path d="M18.7042 0.832672H17.604V1.66535H18.7042V0.832672Z" fill="#0F3510"/>
<path d="M17.6037 0.832672H16.5034V1.66535H17.6037V0.832672Z" fill="#1F5421"/>
<path d="M16.5036 0.832672H15.4033V1.66535H16.5036V0.832672Z" fill="#176319"/>
<path d="M15.4035 0.832672H14.3032V1.66535H15.4035V0.832672Z" fill="#176319"/>
<path d="M14.3034 0.832672H13.2031V1.66535H14.3034V0.832672Z" fill="#176319"/>
<path d="M13.2028 0.832672H12.1025V1.66535H13.2028V0.832672Z" fill="#176319"/>
<path d="M19.8043 0H18.7041V0.832676H19.8043V0Z" fill="#0F3510"/>
<path d="M18.7042 0H17.604V0.832676H18.7042V0Z" fill="#176319"/>
</svg>
