<svg width="18" height="18" viewBox="0 0 18 18" fill="none" xmlns="http://www.w3.org/2000/svg">
<path d="M14.7786 0H3.22136C1.44226 0 0 1.1889 0 2.65547V15.3445C0 16.8111 1.44226 18 3.22136 18H14.7786C16.5577 18 18 16.8111 18 15.3445V2.65547C18 1.1889 16.5577 0 14.7786 0ZM6.33862 5.02294H11.6613C12.0719 5.02266 12.405 5.29682 12.4053 5.63526C12.4056 5.9737 12.073 6.2483 11.6625 6.24854C11.6621 6.24854 11.6617 6.24854 11.6613 6.24854H6.33862C5.92806 6.24854 5.59523 5.97418 5.59523 5.63574C5.59523 5.2973 5.92806 5.02294 6.33862 5.02294ZM13.5768 12.9771H4.42318C4.01262 12.9771 3.67979 12.7027 3.67979 12.3643C3.67979 12.0259 4.01262 11.7515 4.42318 11.7515H13.5768C13.9874 11.7515 14.3202 12.0259 14.3202 12.3643C14.3202 12.7027 13.9874 12.9771 13.5768 12.9771ZM13.5768 9.6128H4.42318C4.01262 9.6128 3.67979 9.33844 3.67979 9C3.67979 8.66157 4.01262 8.3872 4.42318 8.3872H13.5768C13.9874 8.3872 14.3202 8.66157 14.3202 9C14.3202 9.33844 13.9874 9.6128 13.5768 9.6128Z" fill="#222222"/>
</svg>
