<svg width="174" height="33" viewBox="0 0 174 33" fill="none" xmlns="http://www.w3.org/2000/svg">
<path d="M66.7368 14.5961V31.0961H63.3449V19.586L59.0107 31.0961H56.0563L51.719 19.6328V31.0961H48.3047V14.5961H52.4568L57.5894 27.007L62.6294 14.5961H66.7368Z" fill="#174516"/>
<path d="M73.5359 16.6787V21.1207H79.9655V23.7418H73.5359V28.3535H80.7201V31.0962H69.915V13.9616H80.7201V16.6787H73.5359Z" fill="#174516"/>
<path d="M95.3386 13.9616V16.6787H90.428V31.0962H86.8786V16.6947H81.9912V13.9616H95.3386Z" fill="#174516"/>
<path d="M107.513 27.7394H100.365L99.1023 31.0961H95.3384L101.89 14.5961H105.957L112.499 31.0961H108.735L107.513 27.7394ZM106.554 25.2086L103.926 18.1679L101.297 25.2086H106.554Z" fill="#174516"/>
<path d="M117.927 24.7371V31.0962H114.406V13.9616H120.825C122.906 13.9616 124.475 14.447 125.531 15.4177C126.587 16.3885 127.116 17.707 127.118 19.3733C127.118 21.0087 126.571 22.3081 125.471 23.281C124.372 24.2539 122.837 24.7371 120.815 24.7371H117.927ZM123.545 19.3733C123.571 19.0149 123.519 18.6553 123.395 18.317C123.27 17.9788 123.074 17.6694 122.82 17.4083C122.34 16.9539 121.546 16.7267 120.449 16.7267H117.927V21.9944H120.446C122.514 21.9944 123.547 21.1207 123.545 19.3733Z" fill="#174516"/>
<path d="M141.815 15.0523C143.159 15.7711 144.266 16.8243 145.016 18.0961C145.784 19.4597 146.186 20.9795 146.186 22.5226C146.186 24.0658 145.784 25.5855 145.016 26.9492C144.268 28.2252 143.16 29.2827 141.815 30.0055C140.428 30.721 138.871 31.0962 137.289 31.0962C135.707 31.0962 134.15 30.721 132.763 30.0055C131.417 29.2836 130.309 28.2259 129.562 26.9492C128.792 25.5861 128.389 24.0662 128.389 22.5226C128.389 20.9791 128.792 19.4591 129.562 18.0961C130.311 16.8236 131.418 15.7702 132.763 15.0523C134.15 14.3367 135.707 13.9616 137.289 13.9616C138.871 13.9616 140.428 14.3367 141.815 15.0523V15.0523ZM134.525 17.7211C133.723 18.1749 133.078 18.8383 132.67 19.6304C132.23 20.5417 132.002 21.5311 132.002 22.532C132.002 23.5329 132.23 24.5223 132.67 25.4336C133.078 26.2257 133.723 26.8891 134.525 27.343C135.367 27.7776 136.312 28.0055 137.272 28.0055C138.233 28.0055 139.178 27.7776 140.02 27.343C140.82 26.8879 141.463 26.2248 141.871 25.4336C142.311 24.5223 142.539 23.5329 142.539 22.532C142.539 21.5311 142.311 20.5417 141.871 19.6304C141.463 18.8393 140.82 18.1761 140.02 17.7211C139.178 17.2864 138.233 17.0585 137.272 17.0585C136.312 17.0585 135.367 17.2864 134.525 17.7211V17.7211Z" fill="#174516"/>
<path d="M151.882 28.4751H158.262V31.0962H148.093V13.9616H151.882V28.4751Z" fill="#174516"/>
<path d="M173.516 13.9616L167.647 25.102V31.0962H164.158V25.102L158.262 13.9616H162.243L165.927 21.46L169.613 13.9616H173.516Z" fill="#174516"/>
<path d="M26.1945 31.9008H24.7393V33H26.1945V31.9008Z" fill="#2D672D"/>
<path d="M24.7394 31.9008H23.2842V33H24.7394V31.9008Z" fill="#2D672D"/>
<path d="M23.2844 31.9008H21.8291V33H23.2844V31.9008Z" fill="#46A949"/>
<path d="M21.8288 31.9008H20.3735V33H21.8288V31.9008Z" fill="#2D9B31"/>
<path d="M20.3737 31.9008H18.9185V33H20.3737V31.9008Z" fill="#2C8B2F"/>
<path d="M18.9186 31.9008H17.4634V33H18.9186V31.9008Z" fill="#2C8B2F"/>
<path d="M17.4631 31.9008H16.0078V33H17.4631V31.9008Z" fill="#1E8021"/>
<path d="M16.008 31.9008H14.5527V33H16.008V31.9008Z" fill="#2C8B2F"/>
<path d="M14.5524 31.9008H13.0972V33H14.5524V31.9008Z" fill="#1E8021"/>
<path d="M13.0974 31.9008H11.6421V33H13.0974V31.9008Z" fill="#2C8B2F"/>
<path d="M11.6423 31.9008H10.187V33H11.6423V31.9008Z" fill="#20571F"/>
<path d="M37.8371 30.7992H36.3818V31.8983H37.8371V30.7992Z" fill="#2C8B2F"/>
<path d="M36.3815 30.7992H34.9263V31.8983H36.3815V30.7992Z" fill="#2C8B2F"/>
<path d="M34.9265 30.7992H33.4712V31.8983H34.9265V30.7992Z" fill="#2C8B2F"/>
<path d="M33.4709 30.7992H32.0156V31.8983H33.4709V30.7992Z" fill="#255125"/>
<path d="M32.0158 30.7992H30.5605V31.8983H32.0158V30.7992Z" fill="#143214"/>
<path d="M30.5607 30.7992H29.1055V31.8983H30.5607V30.7992Z" fill="#174516"/>
<path d="M29.1052 30.7992H27.6499V31.8983H29.1052V30.7992Z" fill="#174516"/>
<path d="M27.6501 30.7992H26.1948V31.8983H27.6501V30.7992Z" fill="#174516"/>
<path d="M26.1945 30.7992H24.7393V31.8983H26.1945V30.7992Z" fill="#174516"/>
<path d="M24.7394 30.7992H23.2842V31.8983H24.7394V30.7992Z" fill="#174516"/>
<path d="M23.2844 30.7992H21.8291V31.8983H23.2844V30.7992Z" fill="#2C8B2F"/>
<path d="M21.8288 30.7992H20.3735V31.8983H21.8288V30.7992Z" fill="#1E8021"/>
<path d="M20.3737 30.7992H18.9185V31.8983H20.3737V30.7992Z" fill="#2C8B2F"/>
<path d="M18.9186 30.7992H17.4634V31.8983H18.9186V30.7992Z" fill="#1E8021"/>
<path d="M17.4631 30.7992H16.0078V31.8983H17.4631V30.7992Z" fill="#2C8B2F"/>
<path d="M16.008 30.7992H14.5527V31.8983H16.008V30.7992Z" fill="#1E8021"/>
<path d="M14.5524 30.7992H13.0972V31.8983H14.5524V30.7992Z" fill="#2C8B2F"/>
<path d="M13.0974 30.7992H11.6421V31.8983H13.0974V30.7992Z" fill="#2C8B2F"/>
<path d="M11.6423 30.7992H10.187V31.8983H11.6423V30.7992Z" fill="#20571F"/>
<path d="M10.1867 30.7992H8.73145V31.8983H10.1867V30.7992Z" fill="#20571F"/>
<path d="M8.73163 30.7992H7.27637V31.8983H8.73163V30.7992Z" fill="#20571F"/>
<path d="M37.8371 29.7H36.3818V30.7991H37.8371V29.7Z" fill="#2C8B2F"/>
<path d="M36.3815 29.7H34.9263V30.7991H36.3815V29.7Z" fill="#1E8021"/>
<path d="M34.9265 29.7H33.4712V30.7991H34.9265V29.7Z" fill="#2C8B2F"/>
<path d="M33.4709 29.7H32.0156V30.7991H33.4709V29.7Z" fill="#255125"/>
<path d="M32.0158 29.7H30.5605V30.7991H32.0158V29.7Z" fill="#143214"/>
<path d="M30.5607 29.7H29.1055V30.7991H30.5607V29.7Z" fill="#174516"/>
<path d="M29.1052 29.7H27.6499V30.7991H29.1052V29.7Z" fill="#174516"/>
<path d="M27.6501 29.7H26.1948V30.7991H27.6501V29.7Z" fill="#174516"/>
<path d="M26.1945 29.7H24.7393V30.7991H26.1945V29.7Z" fill="#174516"/>
<path d="M24.7394 29.7H23.2842V30.7991H24.7394V29.7Z" fill="#174516"/>
<path d="M23.2844 29.7H21.8291V30.7991H23.2844V29.7Z" fill="#2C8B2F"/>
<path d="M21.8288 29.7H20.3735V30.7991H21.8288V29.7Z" fill="#2C8B2F"/>
<path d="M20.3737 29.7H18.9185V30.7991H20.3737V29.7Z" fill="#2C8B2F"/>
<path d="M18.9186 29.7H17.4634V30.7991H18.9186V29.7Z" fill="#2C8B2F"/>
<path d="M17.4631 29.7H16.0078V30.7991H17.4631V29.7Z" fill="#2C8B2F"/>
<path d="M16.008 29.7H14.5527V30.7991H16.008V29.7Z" fill="#2C8B2F"/>
<path d="M14.5524 29.7H13.0972V30.7991H14.5524V29.7Z" fill="#1E8021"/>
<path d="M13.0974 29.7H11.6421V30.7991H13.0974V29.7Z" fill="#2C8B2F"/>
<path d="M11.6423 29.7H10.187V30.7991H11.6423V29.7Z" fill="#174516"/>
<path d="M10.1867 29.7H8.73145V30.7991H10.1867V29.7Z" fill="#20571F"/>
<path d="M8.73163 29.7H7.27637V30.7991H8.73163V29.7Z" fill="#20571F"/>
<path d="M7.27655 29.7H5.82129V30.7991H7.27655V29.7Z" fill="#174516"/>
<path d="M5.82099 29.7H4.36572V30.7991H5.82099V29.7Z" fill="#20571F"/>
<path d="M37.8371 28.6008H36.3818V29.7H37.8371V28.6008Z" fill="#2C8B2F"/>
<path d="M36.3815 28.6008H34.9263V29.7H36.3815V28.6008Z" fill="#2C8B2F"/>
<path d="M34.9265 28.6008H33.4712V29.7H34.9265V28.6008Z" fill="#2C8B2F"/>
<path d="M33.4709 28.6008H32.0156V29.7H33.4709V28.6008Z" fill="#255125"/>
<path d="M32.0158 28.6008H30.5605V29.7H32.0158V28.6008Z" fill="#143214"/>
<path d="M30.5607 28.6008H29.1055V29.7H30.5607V28.6008Z" fill="#174516"/>
<path d="M29.1052 28.6008H27.6499V29.7H29.1052V28.6008Z" fill="#0D350C"/>
<path d="M27.6501 28.6008H26.1948V29.7H27.6501V28.6008Z" fill="#174516"/>
<path d="M26.1945 28.6008H24.7393V29.7H26.1945V28.6008Z" fill="#174516"/>
<path d="M24.7394 28.6008H23.2842V29.7H24.7394V28.6008Z" fill="#174516"/>
<path d="M23.2844 28.6008H21.8291V29.7H23.2844V28.6008Z" fill="#2C8B2F"/>
<path d="M21.8288 28.6008H20.3735V29.7H21.8288V28.6008Z" fill="#1E8021"/>
<path d="M20.3737 28.6008H18.9185V29.7H20.3737V28.6008Z" fill="#2C8B2F"/>
<path d="M18.9186 28.6008H17.4634V29.7H18.9186V28.6008Z" fill="#1E8021"/>
<path d="M17.4631 28.6008H16.0078V29.7H17.4631V28.6008Z" fill="#2C8B2F"/>
<path d="M16.008 28.6008H14.5527V29.7H16.008V28.6008Z" fill="#2C8B2F"/>
<path d="M14.5524 28.6008H13.0972V29.7H14.5524V28.6008Z" fill="#2C8B2F"/>
<path d="M13.0974 28.6008H11.6421V29.7H13.0974V28.6008Z" fill="#1E8021"/>
<path d="M11.6423 28.6008H10.187V29.7H11.6423V28.6008Z" fill="#20571F"/>
<path d="M10.1867 28.6008H8.73145V29.7H10.1867V28.6008Z" fill="#20571F"/>
<path d="M8.73163 28.6008H7.27637V29.7H8.73163V28.6008Z" fill="#20571F"/>
<path d="M7.27655 28.6008H5.82129V29.7H7.27655V28.6008Z" fill="#20571F"/>
<path d="M5.82099 28.6008H4.36572V29.7H5.82099V28.6008Z" fill="#20571F"/>
<path d="M37.8371 27.4991H36.3818V28.5983H37.8371V27.4991Z" fill="#2C8B2F"/>
<path d="M36.3815 27.4991H34.9263V28.5983H36.3815V27.4991Z" fill="#2C8B2F"/>
<path d="M34.9265 27.4991H33.4712V28.5983H34.9265V27.4991Z" fill="#1E8021"/>
<path d="M33.4709 27.4991H32.0156V28.5983H33.4709V27.4991Z" fill="#255125"/>
<path d="M32.0158 27.4991H30.5605V28.5983H32.0158V27.4991Z" fill="#143214"/>
<path d="M30.5607 27.4991H29.1055V28.5983H30.5607V27.4991Z" fill="#174516"/>
<path d="M29.1052 27.4991H27.6499V28.5983H29.1052V27.4991Z" fill="#174516"/>
<path d="M27.6501 27.4991H26.1948V28.5983H27.6501V27.4991Z" fill="#0D350C"/>
<path d="M26.1945 27.4991H24.7393V28.5983H26.1945V27.4991Z" fill="#174516"/>
<path d="M24.7394 27.4991H23.2842V28.5983H24.7394V27.4991Z" fill="#174516"/>
<path d="M23.2844 27.4991H21.8291V28.5983H23.2844V27.4991Z" fill="#2C8B2F"/>
<path d="M21.8288 27.4991H20.3735V28.5983H21.8288V27.4991Z" fill="#2C8B2F"/>
<path d="M20.3737 27.4991H18.9185V28.5983H20.3737V27.4991Z" fill="#2C8B2F"/>
<path d="M18.9186 27.4991H17.4634V28.5983H18.9186V27.4991Z" fill="#2C8B2F"/>
<path d="M17.4631 27.4991H16.0078V28.5983H17.4631V27.4991Z" fill="#1E8021"/>
<path d="M16.008 27.4991H14.5527V28.5983H16.008V27.4991Z" fill="#2C8B2F"/>
<path d="M14.5524 27.4991H13.0972V28.5983H14.5524V27.4991Z" fill="#2C8B2F"/>
<path d="M13.0974 27.4991H11.6421V28.5983H13.0974V27.4991Z" fill="#2C8B2F"/>
<path d="M11.6423 27.4991H10.187V28.5983H11.6423V27.4991Z" fill="#20571F"/>
<path d="M10.1867 27.4991H8.73145V28.5983H10.1867V27.4991Z" fill="#20571F"/>
<path d="M8.73163 27.4991H7.27637V28.5983H8.73163V27.4991Z" fill="#174516"/>
<path d="M7.27655 27.4991H5.82129V28.5983H7.27655V27.4991Z" fill="#20571F"/>
<path d="M5.82099 27.4991H4.36572V28.5983H5.82099V27.4991Z" fill="#20571F"/>
<path d="M37.8371 26.4H36.3818V27.4992H37.8371V26.4Z" fill="#2C8B2F"/>
<path d="M36.3815 26.4H34.9263V27.4992H36.3815V26.4Z" fill="#2C8B2F"/>
<path d="M34.9265 26.4H33.4712V27.4992H34.9265V26.4Z" fill="#2C8B2F"/>
<path d="M33.4709 26.4H32.0156V27.4992H33.4709V26.4Z" fill="#255125"/>
<path d="M32.0158 26.4H30.5605V27.4992H32.0158V26.4Z" fill="#143214"/>
<path d="M30.5607 26.4H29.1055V27.4992H30.5607V26.4Z" fill="#174516"/>
<path d="M29.1052 26.4H27.6499V27.4992H29.1052V26.4Z" fill="#174516"/>
<path d="M27.6501 26.4H26.1948V27.4992H27.6501V26.4Z" fill="#174516"/>
<path d="M26.1945 26.4H24.7393V27.4992H26.1945V26.4Z" fill="#174516"/>
<path d="M24.7394 26.4H23.2842V27.4992H24.7394V26.4Z" fill="#174516"/>
<path d="M23.2844 26.4H21.8291V27.4992H23.2844V26.4Z" fill="#2C8B2F"/>
<path d="M21.8288 26.4H20.3735V27.4992H21.8288V26.4Z" fill="#2C8B2F"/>
<path d="M20.3737 26.4H18.9185V27.4992H20.3737V26.4Z" fill="#1E8021"/>
<path d="M18.9186 26.4H17.4634V27.4992H18.9186V26.4Z" fill="#2C8B2F"/>
<path d="M17.4631 26.4H16.0078V27.4992H17.4631V26.4Z" fill="#2C8B2F"/>
<path d="M16.008 26.4H14.5527V27.4992H16.008V26.4Z" fill="#2C8B2F"/>
<path d="M14.5524 26.4H13.0972V27.4992H14.5524V26.4Z" fill="#1E8021"/>
<path d="M13.0974 26.4H11.6421V27.4992H13.0974V26.4Z" fill="#2C8B2F"/>
<path d="M11.6423 26.4H10.187V27.4992H11.6423V26.4Z" fill="#174516"/>
<path d="M10.1867 26.4H8.73145V27.4992H10.1867V26.4Z" fill="#20571F"/>
<path d="M8.73163 26.4H7.27637V27.4992H8.73163V26.4Z" fill="#20571F"/>
<path d="M7.27655 26.4H5.82129V27.4992H7.27655V26.4Z" fill="#174516"/>
<path d="M5.82099 26.4H4.36572V27.4992H5.82099V26.4Z" fill="#20571F"/>
<path d="M37.8371 25.3008H36.3818V26.4H37.8371V25.3008Z" fill="#2C8B2F"/>
<path d="M36.3815 25.3008H34.9263V26.4H36.3815V25.3008Z" fill="#1E8021"/>
<path d="M34.9265 25.3008H33.4712V26.4H34.9265V25.3008Z" fill="#2C8B2F"/>
<path d="M33.4709 25.3008H32.0156V26.4H33.4709V25.3008Z" fill="#255125"/>
<path d="M32.0158 25.3008H30.5605V26.4H32.0158V25.3008Z" fill="#143214"/>
<path d="M30.5607 25.3008H29.1055V26.4H30.5607V25.3008Z" fill="#0D350C"/>
<path d="M29.1052 25.3008H27.6499V26.4H29.1052V25.3008Z" fill="#174516"/>
<path d="M27.6501 25.3008H26.1948V26.4H27.6501V25.3008Z" fill="#174516"/>
<path d="M26.1945 25.3008H24.7393V26.4H26.1945V25.3008Z" fill="#174516"/>
<path d="M24.7394 25.3008H23.2842V26.4H24.7394V25.3008Z" fill="#174516"/>
<path d="M23.2844 25.3008H21.8291V26.4H23.2844V25.3008Z" fill="#1E8021"/>
<path d="M21.8288 25.3008H20.3735V26.4H21.8288V25.3008Z" fill="#2C8B2F"/>
<path d="M20.3737 25.3008H18.9185V26.4H20.3737V25.3008Z" fill="#2C8B2F"/>
<path d="M18.9186 25.3008H17.4634V26.4H18.9186V25.3008Z" fill="#1E8021"/>
<path d="M17.4631 25.3008H16.0078V26.4H17.4631V25.3008Z" fill="#2C8B2F"/>
<path d="M16.008 25.3008H14.5527V26.4H16.008V25.3008Z" fill="#2C8B2F"/>
<path d="M14.5524 25.3008H13.0972V26.4H14.5524V25.3008Z" fill="#2C8B2F"/>
<path d="M13.0974 25.3008H11.6421V26.4H13.0974V25.3008Z" fill="#1E8021"/>
<path d="M11.6423 25.3008H10.187V26.4H11.6423V25.3008Z" fill="#20571F"/>
<path d="M10.1867 25.3008H8.73145V26.4H10.1867V25.3008Z" fill="#20571F"/>
<path d="M8.73163 25.3008H7.27637V26.4H8.73163V25.3008Z" fill="#20571F"/>
<path d="M7.27655 25.3008H5.82129V26.4H7.27655V25.3008Z" fill="#20571F"/>
<path d="M5.82099 25.3008H4.36572V26.4H5.82099V25.3008Z" fill="#20571F"/>
<path d="M37.8371 24.1992H36.3818V25.2983H37.8371V24.1992Z" fill="#2C8B2F"/>
<path d="M36.3815 24.1992H34.9263V25.2983H36.3815V24.1992Z" fill="#2C8B2F"/>
<path d="M34.9265 24.1992H33.4712V25.2983H34.9265V24.1992Z" fill="#2C8B2F"/>
<path d="M33.4709 24.1992H32.0156V25.2983H33.4709V24.1992Z" fill="#255125"/>
<path d="M32.0158 24.1992H30.5605V25.2983H32.0158V24.1992Z" fill="#143214"/>
<path d="M30.5607 24.1992H29.1055V25.2983H30.5607V24.1992Z" fill="#174516"/>
<path d="M29.1052 24.1992H27.6499V25.2983H29.1052V24.1992Z" fill="#0D350C"/>
<path d="M27.6501 24.1992H26.1948V25.2983H27.6501V24.1992Z" fill="#174516"/>
<path d="M26.1945 24.1992H24.7393V25.2983H26.1945V24.1992Z" fill="#174516"/>
<path d="M24.7394 24.1992H23.2842V25.2983H24.7394V24.1992Z" fill="#174516"/>
<path d="M23.2844 24.1992H21.8291V25.2983H23.2844V24.1992Z" fill="#2C8B2F"/>
<path d="M21.8288 24.1992H20.3735V25.2983H21.8288V24.1992Z" fill="#2C8B2F"/>
<path d="M20.3737 24.1992H18.9185V25.2983H20.3737V24.1992Z" fill="#2C8B2F"/>
<path d="M18.9186 24.1992H17.4634V25.2983H18.9186V24.1992Z" fill="#2C8B2F"/>
<path d="M17.4631 24.1992H16.0078V25.2983H17.4631V24.1992Z" fill="#2C8B2F"/>
<path d="M16.008 24.1992H14.5527V25.2983H16.008V24.1992Z" fill="#1E8021"/>
<path d="M14.5524 24.1992H13.0972V25.2983H14.5524V24.1992Z" fill="#2C8B2F"/>
<path d="M13.0974 24.1992H11.6421V25.2983H13.0974V24.1992Z" fill="#2C8B2F"/>
<path d="M11.6423 24.1992H10.187V25.2983H11.6423V24.1992Z" fill="#20571F"/>
<path d="M10.1867 24.1992H8.73145V25.2983H10.1867V24.1992Z" fill="#20571F"/>
<path d="M8.73163 24.1992H7.27637V25.2983H8.73163V24.1992Z" fill="#174516"/>
<path d="M7.27655 24.1992H5.82129V25.2983H7.27655V24.1992Z" fill="#20571F"/>
<path d="M5.82099 24.1992H4.36572V25.2983H5.82099V24.1992Z" fill="#20571F"/>
<path d="M37.8371 23.1H36.3818V24.1991H37.8371V23.1Z" fill="#1E8021"/>
<path d="M36.3815 23.1H34.9263V24.1991H36.3815V23.1Z" fill="#2C8B2F"/>
<path d="M34.9265 23.1H33.4712V24.1991H34.9265V23.1Z" fill="#2C8B2F"/>
<path d="M33.4709 23.1H32.0156V24.1991H33.4709V23.1Z" fill="#255125"/>
<path d="M32.0158 23.1H30.5605V24.1991H32.0158V23.1Z" fill="#143214"/>
<path d="M30.5607 23.1H29.1055V24.1991H30.5607V23.1Z" fill="#174516"/>
<path d="M29.1052 23.1H27.6499V24.1991H29.1052V23.1Z" fill="#174516"/>
<path d="M27.6501 23.1H26.1948V24.1991H27.6501V23.1Z" fill="#174516"/>
<path d="M26.1945 23.1H24.7393V24.1991H26.1945V23.1Z" fill="#174516"/>
<path d="M24.7394 23.1H23.2842V24.1991H24.7394V23.1Z" fill="#174516"/>
<path d="M23.2844 23.1H21.8291V24.1991H23.2844V23.1Z" fill="#2C8B2F"/>
<path d="M21.8288 23.1H20.3735V24.1991H21.8288V23.1Z" fill="#2C8B2F"/>
<path d="M20.3737 23.1H18.9185V24.1991H20.3737V23.1Z" fill="#1E8021"/>
<path d="M18.9186 23.1H17.4634V24.1991H18.9186V23.1Z" fill="#2C8B2F"/>
<path d="M17.4631 23.1H16.0078V24.1991H17.4631V23.1Z" fill="#2C8B2F"/>
<path d="M16.008 23.1H14.5527V24.1991H16.008V23.1Z" fill="#2C8B2F"/>
<path d="M14.5524 23.1H13.0972V24.1991H14.5524V23.1Z" fill="#1E8021"/>
<path d="M13.0974 23.1H11.6421V24.1991H13.0974V23.1Z" fill="#2C8B2F"/>
<path d="M11.6423 23.1H10.187V24.1991H11.6423V23.1Z" fill="#20571F"/>
<path d="M10.1867 23.1H8.73145V24.1991H10.1867V23.1Z" fill="#20571F"/>
<path d="M8.73163 23.1H7.27637V24.1991H8.73163V23.1Z" fill="#20571F"/>
<path d="M7.27655 23.1H5.82129V24.1991H7.27655V23.1Z" fill="#20571F"/>
<path d="M5.82099 23.1H4.36572V24.1991H5.82099V23.1Z" fill="#20571F"/>
<path d="M37.8371 22.0009H36.3818V23.1H37.8371V22.0009Z" fill="#2C8B2F"/>
<path d="M36.3815 22.0009H34.9263V23.1H36.3815V22.0009Z" fill="#2C8B2F"/>
<path d="M34.9265 22.0009H33.4712V23.1H34.9265V22.0009Z" fill="#2C8B2F"/>
<path d="M33.4709 22.0009H32.0156V23.1H33.4709V22.0009Z" fill="#255125"/>
<path d="M32.0158 22.0009H30.5605V23.1H32.0158V22.0009Z" fill="#143214"/>
<path d="M30.5607 22.0009H29.1055V23.1H30.5607V22.0009Z" fill="#174516"/>
<path d="M29.1052 22.0009H27.6499V23.1H29.1052V22.0009Z" fill="#174516"/>
<path d="M27.6501 22.0009H26.1948V23.1H27.6501V22.0009Z" fill="#174516"/>
<path d="M26.1945 22.0009H24.7393V23.1H26.1945V22.0009Z" fill="#0D350C"/>
<path d="M24.7394 22.0009H23.2842V23.1H24.7394V22.0009Z" fill="#174516"/>
<path d="M23.2844 22.0009H21.8291V23.1H23.2844V22.0009Z" fill="#2C8B2F"/>
<path d="M21.8288 22.0009H20.3735V23.1H21.8288V22.0009Z" fill="#2C8B2F"/>
<path d="M20.3737 22.0009H18.9185V23.1H20.3737V22.0009Z" fill="#2C8B2F"/>
<path d="M18.9186 22.0009H17.4634V23.1H18.9186V22.0009Z" fill="#1E8021"/>
<path d="M17.4631 22.0009H16.0078V23.1H17.4631V22.0009Z" fill="#2C8B2F"/>
<path d="M16.008 22.0009H14.5527V23.1H16.008V22.0009Z" fill="#2C8B2F"/>
<path d="M14.5524 22.0009H13.0972V23.1H14.5524V22.0009Z" fill="#2C8B2F"/>
<path d="M13.0974 22.0009H11.6421V23.1H13.0974V22.0009Z" fill="#2C8B2F"/>
<path d="M11.6423 22.0009H10.187V23.1H11.6423V22.0009Z" fill="#20571F"/>
<path d="M10.1867 22.0009H8.73145V23.1H10.1867V22.0009Z" fill="#20571F"/>
<path d="M8.73163 22.0009H7.27637V23.1H8.73163V22.0009Z" fill="#20571F"/>
<path d="M7.27655 22.0009H5.82129V23.1H7.27655V22.0009Z" fill="#20571F"/>
<path d="M5.82099 22.0009H4.36572V23.1H5.82099V22.0009Z" fill="#174516"/>
<path d="M37.8371 20.8991H36.3818V21.9983H37.8371V20.8991Z" fill="#2C8B2F"/>
<path d="M36.3815 20.8991H34.9263V21.9983H36.3815V20.8991Z" fill="#2C8B2F"/>
<path d="M34.9265 20.8991H33.4712V21.9983H34.9265V20.8991Z" fill="#1E8021"/>
<path d="M33.4709 20.8991H32.0156V21.9983H33.4709V20.8991Z" fill="#255125"/>
<path d="M32.0158 20.8991H30.5605V21.9983H32.0158V20.8991Z" fill="#143214"/>
<path d="M30.5607 20.8991H29.1055V21.9983H30.5607V20.8991Z" fill="#174516"/>
<path d="M29.1052 20.8991H27.6499V21.9983H29.1052V20.8991Z" fill="#174516"/>
<path d="M27.6501 20.8991H26.1948V21.9983H27.6501V20.8991Z" fill="#174516"/>
<path d="M26.1945 20.8991H24.7393V21.9983H26.1945V20.8991Z" fill="#174516"/>
<path d="M24.7394 20.8991H23.2842V21.9983H24.7394V20.8991Z" fill="#0D350C"/>
<path d="M23.2844 20.8991H21.8291V21.9983H23.2844V20.8991Z" fill="#1E8021"/>
<path d="M21.8288 20.8991H20.3735V21.9983H21.8288V20.8991Z" fill="#2C8B2F"/>
<path d="M20.3737 20.8991H18.9185V21.9983H20.3737V20.8991Z" fill="#2C8B2F"/>
<path d="M18.9186 20.8991H17.4634V21.9983H18.9186V20.8991Z" fill="#2C8B2F"/>
<path d="M17.4631 20.8991H16.0078V21.9983H17.4631V20.8991Z" fill="#2C8B2F"/>
<path d="M16.008 20.8991H14.5527V21.9983H16.008V20.8991Z" fill="#1E8021"/>
<path d="M14.5524 20.8991H13.0972V21.9983H14.5524V20.8991Z" fill="#2C8B2F"/>
<path d="M13.0974 20.8991H11.6421V21.9983H13.0974V20.8991Z" fill="#2C8B2F"/>
<path d="M11.6423 20.8991H10.187V21.9983H11.6423V20.8991Z" fill="#20571F"/>
<path d="M10.1867 20.8991H8.73145V21.9983H10.1867V20.8991Z" fill="#20571F"/>
<path d="M8.73163 20.8991H7.27637V21.9983H8.73163V20.8991Z" fill="#20571F"/>
<path d="M7.27655 20.8991H5.82129V21.9983H7.27655V20.8991Z" fill="#20571F"/>
<path d="M5.82099 20.8991H4.36572V21.9983H5.82099V20.8991Z" fill="#20571F"/>
<path d="M37.8371 19.8H36.3818V20.8992H37.8371V19.8Z" fill="#2C8B2F"/>
<path d="M36.3815 19.8H34.9263V20.8992H36.3815V19.8Z" fill="#2C8B2F"/>
<path d="M34.9265 19.8H33.4712V20.8992H34.9265V19.8Z" fill="#2C8B2F"/>
<path d="M33.4709 19.8H32.0156V20.8992H33.4709V19.8Z" fill="#255125"/>
<path d="M32.0158 19.8H30.5605V20.8992H32.0158V19.8Z" fill="#143214"/>
<path d="M30.5607 19.8H29.1055V20.8992H30.5607V19.8Z" fill="#0D350C"/>
<path d="M29.1052 19.8H27.6499V20.8992H29.1052V19.8Z" fill="#174516"/>
<path d="M27.6501 19.8H26.1948V20.8992H27.6501V19.8Z" fill="#174516"/>
<path d="M26.1945 19.8H24.7393V20.8992H26.1945V19.8Z" fill="#174516"/>
<path d="M24.7394 19.8H23.2842V20.8992H24.7394V19.8Z" fill="#174516"/>
<path d="M23.2844 19.8H21.8291V20.8992H23.2844V19.8Z" fill="#2C8B2F"/>
<path d="M21.8288 19.8H20.3735V20.8992H21.8288V19.8Z" fill="#2C8B2F"/>
<path d="M20.3737 19.8H18.9185V20.8992H20.3737V19.8Z" fill="#1E8021"/>
<path d="M18.9186 19.8H17.4634V20.8992H18.9186V19.8Z" fill="#2C8B2F"/>
<path d="M17.4631 19.8H16.0078V20.8992H17.4631V19.8Z" fill="#2C8B2F"/>
<path d="M16.008 19.8H14.5527V20.8992H16.008V19.8Z" fill="#2C8B2F"/>
<path d="M14.5524 19.8H13.0972V20.8992H14.5524V19.8Z" fill="#1E8021"/>
<path d="M13.0974 19.8H11.6421V20.8992H13.0974V19.8Z" fill="#2C8B2F"/>
<path d="M11.6423 19.8H10.187V20.8992H11.6423V19.8Z" fill="#20571F"/>
<path d="M10.1867 19.8H8.73145V20.8992H10.1867V19.8Z" fill="#20571F"/>
<path d="M8.73163 19.8H7.27637V20.8992H8.73163V19.8Z" fill="#20571F"/>
<path d="M7.27655 19.8H5.82129V20.8992H7.27655V19.8Z" fill="#20571F"/>
<path d="M5.82099 19.8H4.36572V20.8992H5.82099V19.8Z" fill="#20571F"/>
<path d="M37.8371 18.7009H36.3818V19.8H37.8371V18.7009Z" fill="#2C8B2F"/>
<path d="M36.3815 18.7009H34.9263V19.8H36.3815V18.7009Z" fill="#1E8021"/>
<path d="M34.9265 18.7009H33.4712V19.8H34.9265V18.7009Z" fill="#2C8B2F"/>
<path d="M33.4709 18.7009H32.0156V19.8H33.4709V18.7009Z" fill="#255125"/>
<path d="M32.0158 18.7009H30.5605V19.8H32.0158V18.7009Z" fill="#143214"/>
<path d="M30.5607 18.7009H29.1055V19.8H30.5607V18.7009Z" fill="#174516"/>
<path d="M29.1052 18.7009H27.6499V19.8H29.1052V18.7009Z" fill="#174516"/>
<path d="M27.6501 18.7009H26.1948V19.8H27.6501V18.7009Z" fill="#0D350C"/>
<path d="M26.1945 18.7009H24.7393V19.8H26.1945V18.7009Z" fill="#174516"/>
<path d="M24.7394 18.7009H23.2842V19.8H24.7394V18.7009Z" fill="#174516"/>
<path d="M23.2844 18.7009H21.8291V19.8H23.2844V18.7009Z" fill="#2C8B2F"/>
<path d="M21.8288 18.7009H20.3735V19.8H21.8288V18.7009Z" fill="#2C8B2F"/>
<path d="M20.3737 18.7009H18.9185V19.8H20.3737V18.7009Z" fill="#2C8B2F"/>
<path d="M18.9186 18.7009H17.4634V19.8H18.9186V18.7009Z" fill="#2C8B2F"/>
<path d="M17.4631 18.7009H16.0078V19.8H17.4631V18.7009Z" fill="#1E8021"/>
<path d="M16.008 18.7009H14.5527V19.8H16.008V18.7009Z" fill="#2C8B2F"/>
<path d="M14.5524 18.7009H13.0972V19.8H14.5524V18.7009Z" fill="#2C8B2F"/>
<path d="M13.0974 18.7009H11.6421V19.8H13.0974V18.7009Z" fill="#2C8B2F"/>
<path d="M11.6423 18.7009H10.187V19.8H11.6423V18.7009Z" fill="#20571F"/>
<path d="M10.1867 18.7009H8.73145V19.8H10.1867V18.7009Z" fill="#174516"/>
<path d="M8.73163 18.7009H7.27637V19.8H8.73163V18.7009Z" fill="#20571F"/>
<path d="M7.27655 18.7009H5.82129V19.8H7.27655V18.7009Z" fill="#174516"/>
<path d="M5.82099 18.7009H4.36572V19.8H5.82099V18.7009Z" fill="#20571F"/>
<path d="M37.8371 17.5992H36.3818V18.6983H37.8371V17.5992Z" fill="#2C8B2F"/>
<path d="M36.3815 17.5992H34.9263V18.6983H36.3815V17.5992Z" fill="#2C8B2F"/>
<path d="M34.9265 17.5992H33.4712V18.6983H34.9265V17.5992Z" fill="#2C8B2F"/>
<path d="M33.4709 17.5992H32.0156V18.6983H33.4709V17.5992Z" fill="#255125"/>
<path d="M32.0158 17.5992H30.5605V18.6983H32.0158V17.5992Z" fill="#143214"/>
<path d="M30.5607 17.5992H29.1055V18.6983H30.5607V17.5992Z" fill="#174516"/>
<path d="M29.1052 17.5992H27.6499V18.6983H29.1052V17.5992Z" fill="#174516"/>
<path d="M27.6501 17.5992H26.1948V18.6983H27.6501V17.5992Z" fill="#174516"/>
<path d="M26.1945 17.5992H24.7393V18.6983H26.1945V17.5992Z" fill="#174516"/>
<path d="M24.7394 17.5992H23.2842V18.6983H24.7394V17.5992Z" fill="#174516"/>
<path d="M23.2844 17.5992H21.8291V18.6983H23.2844V17.5992Z" fill="#2C8B2F"/>
<path d="M21.8288 17.5992H20.3735V18.6983H21.8288V17.5992Z" fill="#1E8021"/>
<path d="M20.3737 17.5992H18.9185V18.6983H20.3737V17.5992Z" fill="#2C8B2F"/>
<path d="M18.9186 17.5992H17.4634V18.6983H18.9186V17.5992Z" fill="#2C8B2F"/>
<path d="M17.4631 17.5992H16.0078V18.6983H17.4631V17.5992Z" fill="#2C8B2F"/>
<path d="M16.008 17.5992H14.5527V18.6983H16.008V17.5992Z" fill="#1E8021"/>
<path d="M14.5524 17.5992H13.0972V18.6983H14.5524V17.5992Z" fill="#2C8B2F"/>
<path d="M13.0974 17.5992H11.6421V18.6983H13.0974V17.5992Z" fill="#2C8B2F"/>
<path d="M11.6423 17.5992H10.187V18.6983H11.6423V17.5992Z" fill="#20571F"/>
<path d="M10.1867 17.5992H8.73145V18.6983H10.1867V17.5992Z" fill="#20571F"/>
<path d="M8.73163 17.5992H7.27637V18.6983H8.73163V17.5992Z" fill="#174516"/>
<path d="M7.27655 17.5992H5.82129V18.6983H7.27655V17.5992Z" fill="#20571F"/>
<path d="M5.82099 17.5992H4.36572V18.6983H5.82099V17.5992Z" fill="#20571F"/>
<path d="M37.8371 16.5H36.3818V17.5991H37.8371V16.5Z" fill="#2C8B2F"/>
<path d="M36.3815 16.5H34.9263V17.5991H36.3815V16.5Z" fill="#2C8B2F"/>
<path d="M34.9265 16.5H33.4712V17.5991H34.9265V16.5Z" fill="#2C8B2F"/>
<path d="M33.4709 16.5H32.0156V17.5991H33.4709V16.5Z" fill="#255125"/>
<path d="M32.0158 16.5H30.5605V17.5991H32.0158V16.5Z" fill="#0C2F0B"/>
<path d="M30.5607 16.5H29.1055V17.5991H30.5607V16.5Z" fill="#0C2F0B"/>
<path d="M29.1052 16.5H27.6499V17.5991H29.1052V16.5Z" fill="#0C2F0B"/>
<path d="M27.6501 16.5H26.1948V17.5991H27.6501V16.5Z" fill="#0C2F0B"/>
<path d="M26.1945 16.5H24.7393V17.5991H26.1945V16.5Z" fill="#0C2F0B"/>
<path d="M24.7394 16.5H23.2842V17.5991H24.7394V16.5Z" fill="#0C2F0B"/>
<path d="M23.2844 16.5H21.8291V17.5991H23.2844V16.5Z" fill="#2C8B2F"/>
<path d="M21.8288 16.5H20.3735V17.5991H21.8288V16.5Z" fill="#2C8B2F"/>
<path d="M20.3737 16.5H18.9185V17.5991H20.3737V16.5Z" fill="#1E8021"/>
<path d="M18.9186 16.5H17.4634V17.5991H18.9186V16.5Z" fill="#2C8B2F"/>
<path d="M17.4631 16.5H16.0078V17.5991H17.4631V16.5Z" fill="#2C8B2F"/>
<path d="M16.008 16.5H14.5527V17.5991H16.008V16.5Z" fill="#2C8B2F"/>
<path d="M14.5524 16.5H13.0972V17.5991H14.5524V16.5Z" fill="#2C8B2F"/>
<path d="M13.0974 16.5H11.6421V17.5991H13.0974V16.5Z" fill="#1E8021"/>
<path d="M11.6423 16.5H10.187V17.5991H11.6423V16.5Z" fill="#20571F"/>
<path d="M10.1867 16.5H8.73145V17.5991H10.1867V16.5Z" fill="#20571F"/>
<path d="M8.73163 16.5H7.27637V17.5991H8.73163V16.5Z" fill="#20571F"/>
<path d="M7.27655 16.5H5.82129V17.5991H7.27655V16.5Z" fill="#174516"/>
<path d="M5.82099 16.5H4.36572V17.5991H5.82099V16.5Z" fill="#20571F"/>
<path d="M37.8371 15.4008H36.3818V16.5H37.8371V15.4008Z" fill="#1E8021"/>
<path d="M36.3815 15.4008H34.9263V16.5H36.3815V15.4008Z" fill="#2C8B2F"/>
<path d="M34.9265 15.4008H33.4712V16.5H34.9265V15.4008Z" fill="#2C8B2F"/>
<path d="M33.4709 15.4008H32.0156V16.5H33.4709V15.4008Z" fill="#2C8B2F"/>
<path d="M32.0158 15.4008H30.5605V16.5H32.0158V15.4008Z" fill="#2C8B2F"/>
<path d="M30.5607 15.4008H29.1055V16.5H30.5607V15.4008Z" fill="#1E8021"/>
<path d="M29.1052 15.4008H27.6499V16.5H29.1052V15.4008Z" fill="#2C8B2F"/>
<path d="M27.6501 15.4008H26.1948V16.5H27.6501V15.4008Z" fill="#2C8B2F"/>
<path d="M26.1945 15.4008H24.7393V16.5H26.1945V15.4008Z" fill="#2C8B2F"/>
<path d="M24.7394 15.4008H23.2842V16.5H24.7394V15.4008Z" fill="#2C8B2F"/>
<path d="M23.2844 15.4008H21.8291V16.5H23.2844V15.4008Z" fill="#1E8021"/>
<path d="M21.8288 15.4008H20.3735V16.5H21.8288V15.4008Z" fill="#2C8B2F"/>
<path d="M20.3737 15.4008H18.9185V16.5H20.3737V15.4008Z" fill="#2C8B2F"/>
<path d="M18.9186 15.4008H17.4634V16.5H18.9186V15.4008Z" fill="#2C8B2F"/>
<path d="M17.4631 15.4008H16.0078V16.5H17.4631V15.4008Z" fill="#2C8B2F"/>
<path d="M16.008 15.4008H14.5527V16.5H16.008V15.4008Z" fill="#2C8B2F"/>
<path d="M14.5524 15.4008H13.0972V16.5H14.5524V15.4008Z" fill="#1E8021"/>
<path d="M13.0974 15.4008H11.6421V16.5H13.0974V15.4008Z" fill="#2C8B2F"/>
<path d="M11.6423 15.4008H10.187V16.5H11.6423V15.4008Z" fill="#20571F"/>
<path d="M10.1867 15.4008H8.73145V16.5H10.1867V15.4008Z" fill="#174516"/>
<path d="M8.73163 15.4008H7.27637V16.5H8.73163V15.4008Z" fill="#20571F"/>
<path d="M7.27655 15.4008H5.82129V16.5H7.27655V15.4008Z" fill="#20571F"/>
<path d="M5.82099 15.4008H4.36572V16.5H5.82099V15.4008Z" fill="#174516"/>
<path d="M37.8371 14.2991H36.3818V15.3983H37.8371V14.2991Z" fill="#2C8B2F"/>
<path d="M36.3815 14.2991H34.9263V15.3983H36.3815V14.2991Z" fill="#2C8B2F"/>
<path d="M34.9265 14.2991H33.4712V15.3983H34.9265V14.2991Z" fill="#1E8021"/>
<path d="M33.4709 14.2991H32.0156V15.3983H33.4709V14.2991Z" fill="#2C8B2F"/>
<path d="M32.0158 14.2991H30.5605V15.3983H32.0158V14.2991Z" fill="#2C8B2F"/>
<path d="M30.5607 14.2991H29.1055V15.3983H30.5607V14.2991Z" fill="#2C8B2F"/>
<path d="M29.1052 14.2991H27.6499V15.3983H29.1052V14.2991Z" fill="#1E8021"/>
<path d="M27.6501 14.2991H26.1948V15.3983H27.6501V14.2991Z" fill="#2C8B2F"/>
<path d="M26.1945 14.2991H24.7393V15.3983H26.1945V14.2991Z" fill="#1E8021"/>
<path d="M24.7394 14.2991H23.2842V15.3983H24.7394V14.2991Z" fill="#2C8B2F"/>
<path d="M23.2844 14.2991H21.8291V15.3983H23.2844V14.2991Z" fill="#2C8B2F"/>
<path d="M21.8288 14.2991H20.3735V15.3983H21.8288V14.2991Z" fill="#2C8B2F"/>
<path d="M20.3737 14.2991H18.9185V15.3983H20.3737V14.2991Z" fill="#1E8021"/>
<path d="M18.9186 14.2991H17.4634V15.3983H18.9186V14.2991Z" fill="#2C8B2F"/>
<path d="M17.4631 14.2991H16.0078V15.3983H17.4631V14.2991Z" fill="#1E8021"/>
<path d="M16.008 14.2991H14.5527V15.3983H16.008V14.2991Z" fill="#2C8B2F"/>
<path d="M14.5524 14.2991H13.0972V15.3983H14.5524V14.2991Z" fill="#2C8B2F"/>
<path d="M13.0974 14.2991H11.6421V15.3983H13.0974V14.2991Z" fill="#2C8B2F"/>
<path d="M11.6423 14.2991H10.187V15.3983H11.6423V14.2991Z" fill="#20571F"/>
<path d="M10.1867 14.2991H8.73145V15.3983H10.1867V14.2991Z" fill="#20571F"/>
<path d="M8.73163 14.2991H7.27637V15.3983H8.73163V14.2991Z" fill="#174516"/>
<path d="M7.27655 14.2991H5.82129V15.3983H7.27655V14.2991Z" fill="#20571F"/>
<path d="M5.82099 14.2991H4.36572V15.3983H5.82099V14.2991Z" fill="#20571F"/>
<path d="M37.8371 13.2H36.3818V14.2991H37.8371V13.2Z" fill="#2C8B2F"/>
<path d="M36.3815 13.2H34.9263V14.2991H36.3815V13.2Z" fill="#2C8B2F"/>
<path d="M34.9265 13.2H33.4712V14.2991H34.9265V13.2Z" fill="#2C8B2F"/>
<path d="M33.4709 13.2H32.0156V14.2991H33.4709V13.2Z" fill="#1E8021"/>
<path d="M32.0158 13.2H30.5605V14.2991H32.0158V13.2Z" fill="#2C8B2F"/>
<path d="M30.5607 13.2H29.1055V14.2991H30.5607V13.2Z" fill="#2C8B2F"/>
<path d="M29.1052 13.2H27.6499V14.2991H29.1052V13.2Z" fill="#2C8B2F"/>
<path d="M27.6501 13.2H26.1948V14.2991H27.6501V13.2Z" fill="#2C8B2F"/>
<path d="M26.1945 13.2H24.7393V14.2991H26.1945V13.2Z" fill="#2C8B2F"/>
<path d="M24.7394 13.2H23.2842V14.2991H24.7394V13.2Z" fill="#2C8B2F"/>
<path d="M23.2844 13.2H21.8291V14.2991H23.2844V13.2Z" fill="#2C8B2F"/>
<path d="M21.8288 13.2H20.3735V14.2991H21.8288V13.2Z" fill="#2C8B2F"/>
<path d="M20.3737 13.2H18.9185V14.2991H20.3737V13.2Z" fill="#2C8B2F"/>
<path d="M18.9186 13.2H17.4634V14.2991H18.9186V13.2Z" fill="#1E8021"/>
<path d="M17.4631 13.2H16.0078V14.2991H17.4631V13.2Z" fill="#2C8B2F"/>
<path d="M16.008 13.2H14.5527V14.2991H16.008V13.2Z" fill="#2C8B2F"/>
<path d="M14.5524 13.2H13.0972V14.2991H14.5524V13.2Z" fill="#2C8B2F"/>
<path d="M13.0974 13.2H11.6421V14.2991H13.0974V13.2Z" fill="#3C983F"/>
<path d="M4.36591 13.2H2.91064V14.2991H4.36591V13.2Z" fill="#0F3510"/>
<path d="M2.91034 13.2H1.45508V14.2991H2.91034V13.2Z" fill="#0F3510"/>
<path d="M42.2028 12.1008H40.7476V13.2H42.2028V12.1008Z" fill="#0F3510"/>
<path d="M36.3815 12.1008H34.9263V13.2H36.3815V12.1008Z" fill="#3F8F41"/>
<path d="M34.9265 12.1008H33.4712V13.2H34.9265V12.1008Z" fill="#2C8B2F"/>
<path d="M33.4709 12.1008H32.0156V13.2H33.4709V12.1008Z" fill="#2C8B2F"/>
<path d="M32.0158 12.1008H30.5605V13.2H32.0158V12.1008Z" fill="#2C8B2F"/>
<path d="M30.5607 12.1008H29.1055V13.2H30.5607V12.1008Z" fill="#2C8B2F"/>
<path d="M29.1052 12.1008H27.6499V13.2H29.1052V12.1008Z" fill="#2C8B2F"/>
<path d="M27.6501 12.1008H26.1948V13.2H27.6501V12.1008Z" fill="#2C8B2F"/>
<path d="M26.1945 12.1008H24.7393V13.2H26.1945V12.1008Z" fill="#2C8B2F"/>
<path d="M24.7394 12.1008H23.2842V13.2H24.7394V12.1008Z" fill="#2C8B2F"/>
<path d="M23.2844 12.1008H21.8291V13.2H23.2844V12.1008Z" fill="#1E8021"/>
<path d="M21.8288 12.1008H20.3735V13.2H21.8288V12.1008Z" fill="#2C8B2F"/>
<path d="M20.3737 12.1008H18.9185V13.2H20.3737V12.1008Z" fill="#2C8B2F"/>
<path d="M18.9186 12.1008H17.4634V13.2H18.9186V12.1008Z" fill="#2C8B2F"/>
<path d="M17.4631 12.1008H16.0078V13.2H17.4631V12.1008Z" fill="#2C8B2F"/>
<path d="M16.008 12.1008H14.5527V13.2H16.008V12.1008Z" fill="#2C8B2F"/>
<path d="M14.5524 12.1008H13.0972V13.2H14.5524V12.1008Z" fill="#2C8B2F"/>
<path d="M8.73163 12.1008H7.27637V13.2H8.73163V12.1008Z" fill="#0F3510"/>
<path d="M7.27655 12.1008H5.82129V13.2H7.27655V12.1008Z" fill="#0F3510"/>
<path d="M5.82099 12.1008H4.36572V13.2H5.82099V12.1008Z" fill="#0F3510"/>
<path d="M4.36591 12.1008H2.91064V13.2H4.36591V12.1008Z" fill="#0F3510"/>
<path d="M2.91034 12.1008H1.45508V13.2H2.91034V12.1008Z" fill="#0F3510"/>
<path d="M1.45527 12.1008H0V13.2H1.45527V12.1008Z" fill="#0F3510"/>
<path d="M43.6579 10.9991H42.2026V12.0983H43.6579V10.9991Z" fill="#0F3510"/>
<path d="M42.2028 10.9991H40.7476V12.0983H42.2028V10.9991Z" fill="#0F3510"/>
<path d="M40.7473 10.9991H39.292V12.0983H40.7473V10.9991Z" fill="#0F3510"/>
<path d="M34.9265 10.9991H33.4712V12.0983H34.9265V10.9991Z" fill="#2C8B2F"/>
<path d="M33.4709 10.9991H32.0156V12.0983H33.4709V10.9991Z" fill="#2C8B2F"/>
<path d="M32.0158 10.9991H30.5605V12.0983H32.0158V10.9991Z" fill="#2C8B2F"/>
<path d="M30.5607 10.9991H29.1055V12.0983H30.5607V10.9991Z" fill="#2C8B2F"/>
<path d="M29.1052 10.9991H27.6499V12.0983H29.1052V10.9991Z" fill="#2C8B2F"/>
<path d="M27.6501 10.9991H26.1948V12.0983H27.6501V10.9991Z" fill="#2C8B2F"/>
<path d="M26.1945 10.9991H24.7393V12.0983H26.1945V10.9991Z" fill="#1E8021"/>
<path d="M24.7394 10.9991H23.2842V12.0983H24.7394V10.9991Z" fill="#2C8B2F"/>
<path d="M23.2844 10.9991H21.8291V12.0983H23.2844V10.9991Z" fill="#2C8B2F"/>
<path d="M21.8288 10.9991H20.3735V12.0983H21.8288V10.9991Z" fill="#1E8021"/>
<path d="M20.3737 10.9991H18.9185V12.0983H20.3737V10.9991Z" fill="#2C8B2F"/>
<path d="M18.9186 10.9991H17.4634V12.0983H18.9186V10.9991Z" fill="#2C8B2F"/>
<path d="M17.4631 10.9991H16.0078V12.0983H17.4631V10.9991Z" fill="#2C8B2F"/>
<path d="M11.6423 10.9991H10.187V12.0983H11.6423V10.9991Z" fill="#165719"/>
<path d="M10.1867 10.9991H8.73145V12.0983H10.1867V10.9991Z" fill="#0F3510"/>
<path d="M8.73163 10.9991H7.27637V12.0983H8.73163V10.9991Z" fill="#0F3510"/>
<path d="M7.27655 10.9991H5.82129V12.0983H7.27655V10.9991Z" fill="#0F3510"/>
<path d="M5.82099 10.9991H4.36572V12.0983H5.82099V10.9991Z" fill="#0F3510"/>
<path d="M4.36591 10.9991H2.91064V12.0983H4.36591V10.9991Z" fill="#0F3510"/>
<path d="M2.91034 10.9991H1.45508V12.0983H2.91034V10.9991Z" fill="#1F5020"/>
<path d="M1.45527 10.9991H0V12.0983H1.45527V10.9991Z" fill="#346D35"/>
<path d="M42.2028 9.89999H40.7476V10.9991H42.2028V9.89999Z" fill="#0F3510"/>
<path d="M40.7473 9.89999H39.292V10.9991H40.7473V9.89999Z" fill="#0F3510"/>
<path d="M39.2922 9.89999H37.8369V10.9991H39.2922V9.89999Z" fill="#0F3510"/>
<path d="M32.0158 9.89999H30.5605V10.9991H32.0158V9.89999Z" fill="#2C8B2F"/>
<path d="M30.5607 9.89999H29.1055V10.9991H30.5607V9.89999Z" fill="#2C8B2F"/>
<path d="M29.1052 9.89999H27.6499V10.9991H29.1052V9.89999Z" fill="#1E8021"/>
<path d="M27.6501 9.89999H26.1948V10.9991H27.6501V9.89999Z" fill="#2C8B2F"/>
<path d="M26.1945 9.89999H24.7393V10.9991H26.1945V9.89999Z" fill="#2C8B2F"/>
<path d="M24.7394 9.89999H23.2842V10.9991H24.7394V9.89999Z" fill="#1E8021"/>
<path d="M23.2844 9.89999H21.8291V10.9991H23.2844V9.89999Z" fill="#2C8B2F"/>
<path d="M21.8288 9.89999H20.3735V10.9991H21.8288V9.89999Z" fill="#2C8B2F"/>
<path d="M20.3737 9.89999H18.9185V10.9991H20.3737V9.89999Z" fill="#2C8B2F"/>
<path d="M18.9186 9.89999H17.4634V10.9991H18.9186V9.89999Z" fill="#2C8B2F"/>
<path d="M13.0974 9.89999H11.6421V10.9991H13.0974V9.89999Z" fill="#0F3510"/>
<path d="M11.6423 9.89999H10.187V10.9991H11.6423V9.89999Z" fill="#0F3510"/>
<path d="M10.1867 9.89999H8.73145V10.9991H10.1867V9.89999Z" fill="#0F3510"/>
<path d="M8.73163 9.89999H7.27637V10.9991H8.73163V9.89999Z" fill="#0F3510"/>
<path d="M7.27655 9.89999H5.82129V10.9991H7.27655V9.89999Z" fill="#176319"/>
<path d="M5.82099 9.89999H4.36572V10.9991H5.82099V9.89999Z" fill="#176319"/>
<path d="M4.36591 9.89999H2.91064V10.9991H4.36591V9.89999Z" fill="#176319"/>
<path d="M2.91034 9.89999H1.45508V10.9991H2.91034V9.89999Z" fill="#316D32"/>
<path d="M40.7473 8.80087H39.292V9.90001H40.7473V8.80087Z" fill="#0F3510"/>
<path d="M39.2922 8.80087H37.8369V9.90001H39.2922V8.80087Z" fill="#0F3510"/>
<path d="M37.8371 8.80087H36.3818V9.90001H37.8371V8.80087Z" fill="#0F3510"/>
<path d="M36.3815 8.80087H34.9263V9.90001H36.3815V8.80087Z" fill="#0F3510"/>
<path d="M30.5607 8.80087H29.1055V9.90001H30.5607V8.80087Z" fill="#2C8B2F"/>
<path d="M29.1052 8.80087H27.6499V9.90001H29.1052V8.80087Z" fill="#2C8B2F"/>
<path d="M27.6501 8.80087H26.1948V9.90001H27.6501V8.80087Z" fill="#1E8021"/>
<path d="M26.1945 8.80087H24.7393V9.90001H26.1945V8.80087Z" fill="#2C8B2F"/>
<path d="M24.7394 8.80087H23.2842V9.90001H24.7394V8.80087Z" fill="#2C8B2F"/>
<path d="M23.2844 8.80087H21.8291V9.90001H23.2844V8.80087Z" fill="#2C8B2F"/>
<path d="M21.8288 8.80087H20.3735V9.90001H21.8288V8.80087Z" fill="#2C8B2F"/>
<path d="M20.3737 8.80087H18.9185V9.90001H20.3737V8.80087Z" fill="#2C8B2F"/>
<path d="M14.5524 8.80087H13.0972V9.90001H14.5524V8.80087Z" fill="#0F3510"/>
<path d="M13.0974 8.80087H11.6421V9.90001H13.0974V8.80087Z" fill="#0F3510"/>
<path d="M11.6423 8.80087H10.187V9.90001H11.6423V8.80087Z" fill="#0F3510"/>
<path d="M10.1867 8.80087H8.73145V9.90001H10.1867V8.80087Z" fill="#0C560E"/>
<path d="M8.73163 8.80087H7.27637V9.90001H8.73163V8.80087Z" fill="#176319"/>
<path d="M7.27655 8.80087H5.82129V9.90001H7.27655V8.80087Z" fill="#176319"/>
<path d="M5.82099 8.80087H4.36572V9.90001H5.82099V8.80087Z" fill="#176319"/>
<path d="M37.8371 7.69913H36.3818V8.79826H37.8371V7.69913Z" fill="#0F3510"/>
<path d="M36.3815 7.69913H34.9263V8.79826H36.3815V7.69913Z" fill="#0F3510"/>
<path d="M34.9265 7.69913H33.4712V8.79826H34.9265V7.69913Z" fill="#0F3510"/>
<path d="M29.1052 7.69913H27.6499V8.79826H29.1052V7.69913Z" fill="#2C8B2F"/>
<path d="M27.6501 7.69913H26.1948V8.79826H27.6501V7.69913Z" fill="#2C8B2F"/>
<path d="M26.1945 7.69913H24.7393V8.79826H26.1945V7.69913Z" fill="#2C8B2F"/>
<path d="M24.7394 7.69913H23.2842V8.79826H24.7394V7.69913Z" fill="#2C8B2F"/>
<path d="M23.2844 7.69913H21.8291V8.79826H23.2844V7.69913Z" fill="#2C8B2F"/>
<path d="M16.008 7.69913H14.5527V8.79826H16.008V7.69913Z" fill="#0F3510"/>
<path d="M14.5524 7.69913H13.0972V8.79826H14.5524V7.69913Z" fill="#0F3510"/>
<path d="M13.0974 7.69913H11.6421V8.79826H13.0974V7.69913Z" fill="#0F3510"/>
<path d="M11.6423 7.69913H10.187V8.79826H11.6423V7.69913Z" fill="#176319"/>
<path d="M10.1867 7.69913H8.73145V8.79826H10.1867V7.69913Z" fill="#176319"/>
<path d="M8.73163 7.69913H7.27637V8.79826H8.73163V7.69913Z" fill="#176319"/>
<path d="M7.27655 7.69913H5.82129V8.79826H7.27655V7.69913Z" fill="#176319"/>
<path d="M36.3815 6.60001H34.9263V7.69914H36.3815V6.60001Z" fill="#0F3510"/>
<path d="M34.9265 6.60001H33.4712V7.69914H34.9265V6.60001Z" fill="#0F3510"/>
<path d="M33.4709 6.60001H32.0156V7.69914H33.4709V6.60001Z" fill="#0F3510"/>
<path d="M26.1945 6.60001H24.7393V7.69914H26.1945V6.60001Z" fill="#2C8B2F"/>
<path d="M24.7394 6.60001H23.2842V7.69914H24.7394V6.60001Z" fill="#2C8B2F"/>
<path d="M18.9186 6.60001H17.4634V7.69914H18.9186V6.60001Z" fill="#0F3510"/>
<path d="M17.4631 6.60001H16.0078V7.69914H17.4631V6.60001Z" fill="#0F3510"/>
<path d="M16.008 6.60001H14.5527V7.69914H16.008V6.60001Z" fill="#0F3510"/>
<path d="M14.5524 6.60001H13.0972V7.69914H14.5524V6.60001Z" fill="#0F3510"/>
<path d="M13.0974 6.60001H11.6421V7.69914H13.0974V6.60001Z" fill="#176319"/>
<path d="M11.6423 6.60001H10.187V7.69914H11.6423V6.60001Z" fill="#0F3510"/>
<path d="M10.1867 6.60001H8.73145V7.69914H10.1867V6.60001Z" fill="#0F3510"/>
<path d="M8.73163 6.60001H7.27637V7.69914H8.73163V6.60001Z" fill="#176319"/>
<path d="M34.9265 5.50082H33.4712V6.59996H34.9265V5.50082Z" fill="#0F3510"/>
<path d="M33.4709 5.50082H32.0156V6.59996H33.4709V5.50082Z" fill="#0F3510"/>
<path d="M32.0158 5.50082H30.5605V6.59996H32.0158V5.50082Z" fill="#0F3510"/>
<path d="M30.5607 5.50082H29.1055V6.59996H30.5607V5.50082Z" fill="#1A4D1C"/>
<path d="M20.3737 5.50082H18.9185V6.59996H20.3737V5.50082Z" fill="#0F3510"/>
<path d="M18.9186 5.50082H17.4634V6.59996H18.9186V5.50082Z" fill="#0F3510"/>
<path d="M17.4631 5.50082H16.0078V6.59996H17.4631V5.50082Z" fill="#0F3510"/>
<path d="M16.008 5.50082H14.5527V6.59996H16.008V5.50082Z" fill="#154617"/>
<path d="M14.5524 5.50082H13.0972V6.59996H14.5524V5.50082Z" fill="#176319"/>
<path d="M13.0974 5.50082H11.6421V6.59996H13.0974V5.50082Z" fill="#0F3510"/>
<path d="M11.6423 5.50082H10.187V6.59996H11.6423V5.50082Z" fill="#0F3510"/>
<path d="M10.1867 5.50082H8.73145V6.59996H10.1867V5.50082Z" fill="#0F3510"/>
<path d="M8.73163 5.50082H7.27637V6.59996H8.73163V5.50082Z" fill="#176319"/>
<path d="M33.4709 4.39911H32.0156V5.49824H33.4709V4.39911Z" fill="#0F3510"/>
<path d="M32.0158 4.39911H30.5605V5.49824H32.0158V4.39911Z" fill="#0F3510"/>
<path d="M30.5607 4.39911H29.1055V5.49824H30.5607V4.39911Z" fill="#0F3510"/>
<path d="M29.1052 4.39911H27.6499V5.49824H29.1052V4.39911Z" fill="#0F3510"/>
<path d="M21.8288 4.39911H20.3735V5.49824H21.8288V4.39911Z" fill="#0F3510"/>
<path d="M20.3737 4.39911H18.9185V5.49824H20.3737V4.39911Z" fill="#0F3510"/>
<path d="M18.9186 4.39911H17.4634V5.49824H18.9186V4.39911Z" fill="#0F3510"/>
<path d="M17.4631 4.39911H16.0078V5.49824H17.4631V4.39911Z" fill="#1A541B"/>
<path d="M16.008 4.39911H14.5527V5.49824H16.008V4.39911Z" fill="#176319"/>
<path d="M14.5524 4.39911H13.0972V5.49824H14.5524V4.39911Z" fill="#176319"/>
<path d="M13.0974 4.39911H11.6421V5.49824H13.0974V4.39911Z" fill="#0F3510"/>
<path d="M11.6423 4.39911H10.187V5.49824H11.6423V4.39911Z" fill="#0B4D0C"/>
<path d="M10.1867 4.39911H8.73145V5.49824H10.1867V4.39911Z" fill="#0F3510"/>
<path d="M8.73163 4.39911H7.27637V5.49824H8.73163V4.39911Z" fill="#176319"/>
<path d="M30.5607 3.30002H29.1055V4.39915H30.5607V3.30002Z" fill="#0F3510"/>
<path d="M29.1052 3.30002H27.6499V4.39915H29.1052V3.30002Z" fill="#0F3510"/>
<path d="M27.6501 3.30002H26.1948V4.39915H27.6501V3.30002Z" fill="#0F3510"/>
<path d="M24.7394 3.30002H23.2842V4.39915H24.7394V3.30002Z" fill="#1A4D1C"/>
<path d="M23.2844 3.30002H21.8291V4.39915H23.2844V3.30002Z" fill="#0F3510"/>
<path d="M21.8288 3.30002H20.3735V4.39915H21.8288V3.30002Z" fill="#0F3510"/>
<path d="M20.3737 3.30002H18.9185V4.39915H20.3737V3.30002Z" fill="#0F3510"/>
<path d="M18.9186 3.30002H17.4634V4.39915H18.9186V3.30002Z" fill="#176319"/>
<path d="M17.4631 3.30002H16.0078V4.39915H17.4631V3.30002Z" fill="#176319"/>
<path d="M16.008 3.30002H14.5527V4.39915H16.008V3.30002Z" fill="#176319"/>
<path d="M14.5524 3.30002H13.0972V4.39915H14.5524V3.30002Z" fill="#176319"/>
<path d="M13.0974 3.30002H11.6421V4.39915H13.0974V3.30002Z" fill="#0B4D0C"/>
<path d="M11.6423 3.30002H10.187V4.39915H11.6423V3.30002Z" fill="#0F3510"/>
<path d="M10.1867 3.30002H8.73145V4.39915H10.1867V3.30002Z" fill="#0F3510"/>
<path d="M8.73163 3.30002H7.27637V4.39915H8.73163V3.30002Z" fill="#176319"/>
<path d="M8.73163 2.20084H7.27637V3.29997H8.73163V2.20084Z" fill="#176319"/>
<path d="M8.73163 1.09912H7.27637V2.19825H8.73163V1.09912Z" fill="#176319"/>
<path d="M29.1052 2.20084H27.6499V3.29997H29.1052V2.20084Z" fill="#0F3510"/>
<path d="M27.6501 2.20084H26.1948V3.29997H27.6501V2.20084Z" fill="#0F3510"/>
<path d="M26.1945 2.20084H24.7393V3.29997H26.1945V2.20084Z" fill="#0F3510"/>
<path d="M24.7394 2.20084H23.2842V3.29997H24.7394V2.20084Z" fill="#0F3510"/>
<path d="M23.2844 2.20084H21.8291V3.29997H23.2844V2.20084Z" fill="#0F3510"/>
<path d="M21.8288 2.20084H20.3735V3.29997H21.8288V2.20084Z" fill="#0F3510"/>
<path d="M20.3737 2.20084H18.9185V3.29997H20.3737V2.20084Z" fill="#176319"/>
<path d="M18.9186 2.20084H17.4634V3.29997H18.9186V2.20084Z" fill="#176319"/>
<path d="M17.4631 2.20084H16.0078V3.29997H17.4631V2.20084Z" fill="#176319"/>
<path d="M16.008 2.20084H14.5527V3.29997H16.008V2.20084Z" fill="#176319"/>
<path d="M13.0974 2.20084H11.6421V3.29997H13.0974V2.20084Z" fill="#0F3510"/>
<path d="M11.6423 2.20084H10.187V3.29997H11.6423V2.20084Z" fill="#0F3510"/>
<path d="M10.1867 2.20084H8.73145V3.29997H10.1867V2.20084Z" fill="#0F3510"/>
<path d="M13.0974 1.09912H11.6421V2.19825H13.0974V1.09912Z" fill="#0F3510"/>
<path d="M11.6423 1.09912H10.187V2.19825H11.6423V1.09912Z" fill="#0F3510"/>
<path d="M10.1867 1.09912H8.73145V2.19825H10.1867V1.09912Z" fill="#0F3510"/>
<path d="M27.6501 1.09912H26.1948V2.19825H27.6501V1.09912Z" fill="#0F3510"/>
<path d="M26.1945 1.09912H24.7393V2.19825H26.1945V1.09912Z" fill="#0F3510"/>
<path d="M24.7394 1.09912H23.2842V2.19825H24.7394V1.09912Z" fill="#0F3510"/>
<path d="M23.2844 1.09912H21.8291V2.19825H23.2844V1.09912Z" fill="#1F5421"/>
<path d="M21.8288 1.09912H20.3735V2.19825H21.8288V1.09912Z" fill="#176319"/>
<path d="M20.3737 1.09912H18.9185V2.19825H20.3737V1.09912Z" fill="#176319"/>
<path d="M18.9186 1.09912H17.4634V2.19825H18.9186V1.09912Z" fill="#176319"/>
<path d="M17.4631 1.09912H16.0078V2.19825H17.4631V1.09912Z" fill="#176319"/>
<path d="M26.1945 0H24.7393V1.09913H26.1945V0Z" fill="#0F3510"/>
<path d="M24.7394 0H23.2842V1.09913H24.7394V0Z" fill="#176319"/>
</svg>
