<svg width="10" height="10" viewBox="0 0 10 10" fill="none" xmlns="http://www.w3.org/2000/svg">
<path d="M9.85981 0.887825L9.16903 0.205261C8.98212 0.0183461 8.6733 0.0183461 8.47826 0.205261L5.0325 3.65091L1.5218 0.140247C1.33481 -0.046749 1.02599 -0.046749 0.831026 0.140247L0.140248 0.831019C-0.0467494 1.01793 -0.0467494 1.32675 0.140248 1.52179L3.6429 5.02441L0.205263 8.47827C0.0183463 8.66518 0.0183463 8.974 0.205263 9.16904L0.89604 9.85981C1.08296 10.0467 1.39177 10.0467 1.58682 9.85981L5.0325 6.41408L8.47826 9.85981C8.66517 10.0467 8.97399 10.0467 9.16903 9.85981L9.85981 9.16904C10.0467 8.98213 10.0467 8.67331 9.85981 8.47827L6.40593 5.03254L9.85169 1.58689C10.0467 1.39168 10.0467 1.08287 9.85981 0.887825Z" fill="white"/>
</svg>
